G04 #@! TF.GenerationSoftware,KiCad,Pcbnew,(6.0.10-0)*
G04 #@! TF.CreationDate,2023-02-15T13:21:11+09:00*
G04 #@! TF.ProjectId,MEZ6809LED,4d455a36-3830-4394-9c45-442e6b696361,A*
G04 #@! TF.SameCoordinates,PX5ee3fe0PY8f872a0*
G04 #@! TF.FileFunction,Soldermask,Bot*
G04 #@! TF.FilePolarity,Negative*
%FSLAX46Y46*%
G04 Gerber Fmt 4.6, Leading zero omitted, Abs format (unit mm)*
G04 Created by KiCad (PCBNEW (6.0.10-0)) date 2023-02-15 13:21:11*
%MOMM*%
%LPD*%
G01*
G04 APERTURE LIST*
G04 Aperture macros list*
%AMFreePoly0*
4,1,22,0.500000,-0.750000,0.000000,-0.750000,0.000000,-0.745033,-0.079941,-0.743568,-0.215256,-0.701293,-0.333266,-0.622738,-0.424486,-0.514219,-0.481581,-0.384460,-0.499164,-0.250000,-0.500000,-0.250000,-0.500000,0.250000,-0.499164,0.250000,-0.499963,0.256109,-0.478152,0.396186,-0.417904,0.524511,-0.324060,0.630769,-0.204165,0.706417,-0.067858,0.745374,0.000000,0.744959,0.000000,0.750000,
0.500000,0.750000,0.500000,-0.750000,0.500000,-0.750000,$1*%
%AMFreePoly1*
4,1,20,0.000000,0.744959,0.073905,0.744508,0.209726,0.703889,0.328688,0.626782,0.421226,0.519385,0.479903,0.390333,0.500000,0.250000,0.500000,-0.250000,0.499851,-0.262216,0.476331,-0.402017,0.414519,-0.529596,0.319384,-0.634700,0.198574,-0.708877,0.061801,-0.746166,0.000000,-0.745033,0.000000,-0.750000,-0.500000,-0.750000,-0.500000,0.750000,0.000000,0.750000,0.000000,0.744959,
0.000000,0.744959,$1*%
G04 Aperture macros list end*
%ADD10R,1.700000X1.700000*%
%ADD11O,1.700000X1.700000*%
%ADD12R,1.600000X1.600000*%
%ADD13O,1.600000X1.600000*%
%ADD14C,1.600000*%
%ADD15FreePoly0,0.000000*%
%ADD16FreePoly1,0.000000*%
%ADD17C,0.605000*%
G04 APERTURE END LIST*
D10*
X48260000Y74930000D03*
D11*
X48260000Y72390000D03*
X48260000Y69850000D03*
X48260000Y67310000D03*
X48260000Y64770000D03*
X48260000Y62230000D03*
X48260000Y59690000D03*
X48260000Y57150000D03*
X48260000Y54610000D03*
X48260000Y52070000D03*
X48260000Y49530000D03*
X48260000Y46990000D03*
X48260000Y44450000D03*
X48260000Y41910000D03*
X48260000Y39370000D03*
X48260000Y36830000D03*
X48260000Y34290000D03*
X48260000Y31750000D03*
X48260000Y29210000D03*
X48260000Y26670000D03*
D12*
X53970000Y74930000D03*
D13*
X53970000Y72390000D03*
X53970000Y69850000D03*
X53970000Y67310000D03*
X53970000Y64770000D03*
X53970000Y62230000D03*
X53970000Y59690000D03*
X53970000Y57150000D03*
X53970000Y54610000D03*
X53970000Y52070000D03*
X53970000Y49530000D03*
X53970000Y46990000D03*
X53970000Y44450000D03*
X53970000Y41910000D03*
X53970000Y39370000D03*
X53970000Y36830000D03*
X53970000Y34290000D03*
X53970000Y31750000D03*
X53970000Y29210000D03*
X53970000Y26670000D03*
X69210000Y26670000D03*
X69210000Y29210000D03*
X69210000Y31750000D03*
X69210000Y34290000D03*
X69210000Y36830000D03*
X69210000Y39370000D03*
X69210000Y41910000D03*
X69210000Y44450000D03*
X69210000Y46990000D03*
X69210000Y49530000D03*
X69210000Y52070000D03*
X69210000Y54610000D03*
X69210000Y57150000D03*
X69210000Y59690000D03*
X69210000Y62230000D03*
X69210000Y64770000D03*
X69210000Y67310000D03*
X69210000Y69850000D03*
X69210000Y72390000D03*
X69210000Y74930000D03*
D14*
X55245000Y19685000D03*
D13*
X45085000Y19685000D03*
D10*
X1905000Y12695000D03*
D11*
X1905000Y10155000D03*
X1905000Y7615000D03*
X1905000Y5075000D03*
X1905000Y2535000D03*
D14*
X55245000Y16510000D03*
D13*
X45085000Y16510000D03*
D14*
X45045000Y59690000D03*
X42545000Y59690000D03*
X57785000Y22860000D03*
D13*
X67945000Y22860000D03*
D10*
X74930000Y74930000D03*
D11*
X74930000Y72390000D03*
X74930000Y69850000D03*
X74930000Y67310000D03*
X74930000Y64770000D03*
X74930000Y62230000D03*
X74930000Y59690000D03*
X74930000Y57150000D03*
X74930000Y54610000D03*
X74930000Y52070000D03*
X74930000Y49530000D03*
X74930000Y46990000D03*
X74930000Y44450000D03*
X74930000Y41910000D03*
X74930000Y39370000D03*
X74930000Y36830000D03*
X74930000Y34290000D03*
X74930000Y31750000D03*
X74930000Y29210000D03*
X74930000Y26670000D03*
D14*
X57785000Y19685000D03*
D13*
X67945000Y19685000D03*
D10*
X69215000Y12695000D03*
D11*
X69215000Y10155000D03*
X69215000Y7615000D03*
X69215000Y5075000D03*
X69215000Y2535000D03*
D14*
X55270000Y22860000D03*
D13*
X45110000Y22860000D03*
D10*
X71755000Y74930000D03*
D11*
X71755000Y72390000D03*
X71755000Y69850000D03*
X71755000Y67310000D03*
X71755000Y64770000D03*
X71755000Y62230000D03*
X71755000Y59690000D03*
X71755000Y57150000D03*
X71755000Y54610000D03*
X71755000Y52070000D03*
X71755000Y49530000D03*
X71755000Y46990000D03*
X71755000Y44450000D03*
X71755000Y41910000D03*
X71755000Y39370000D03*
X71755000Y36830000D03*
X71755000Y34290000D03*
X71755000Y31750000D03*
X71755000Y29210000D03*
X71755000Y26670000D03*
D10*
X51435000Y74930000D03*
D11*
X51435000Y72390000D03*
X51435000Y69850000D03*
X51435000Y67310000D03*
X51435000Y64770000D03*
X51435000Y62230000D03*
X51435000Y59690000D03*
X51435000Y57150000D03*
X51435000Y54610000D03*
X51435000Y52070000D03*
X51435000Y49530000D03*
X51435000Y46990000D03*
X51435000Y44450000D03*
X51435000Y41910000D03*
X51435000Y39370000D03*
X51435000Y36830000D03*
X51435000Y34290000D03*
X51435000Y31750000D03*
X51435000Y29210000D03*
X51435000Y26670000D03*
D15*
X64755000Y72390000D03*
D16*
X66055000Y72390000D03*
D17*
X50546000Y22860000D03*
X48514000Y22860000D03*
X56515000Y69850000D03*
X67310000Y69850000D03*
X67310000Y67310000D03*
X56515000Y67310000D03*
X57150000Y59690000D03*
X64135000Y52070000D03*
X57150000Y52070000D03*
X62230000Y46990000D03*
X57150000Y46990000D03*
X66040000Y43815000D03*
X57150000Y41910000D03*
X66040000Y39370000D03*
X66040000Y31750000D03*
X57150000Y31750000D03*
X38227000Y14351000D03*
X48514000Y14097000D03*
X50546000Y14097000D03*
X50546000Y8255000D03*
X48514000Y8255000D03*
X4445000Y6350000D03*
X4445000Y3810000D03*
X66040000Y2540000D03*
X81915000Y26035000D03*
X81915000Y76200000D03*
X38735000Y76200000D03*
X76934500Y50800000D03*
X78867000Y45720000D03*
X77174800Y40640000D03*
X77851000Y50800000D03*
X64257400Y47998500D03*
X67564000Y52219600D03*
X67564000Y51104300D03*
X67564000Y50038000D03*
X67564000Y48976300D03*
X64803141Y49817141D03*
X66605959Y45650959D03*
X79397600Y44958000D03*
X64755000Y73597900D03*
M02*
