G04 #@! TF.GenerationSoftware,KiCad,Pcbnew,(6.0.10-0)*
G04 #@! TF.CreationDate,2023-02-15T13:21:11+09:00*
G04 #@! TF.ProjectId,MEZ6809LED,4d455a36-3830-4394-9c45-442e6b696361,A*
G04 #@! TF.SameCoordinates,PX5ee3fe0PY8f872a0*
G04 #@! TF.FileFunction,Copper,L1,Top*
G04 #@! TF.FilePolarity,Positive*
%FSLAX46Y46*%
G04 Gerber Fmt 4.6, Leading zero omitted, Abs format (unit mm)*
G04 Created by KiCad (PCBNEW (6.0.10-0)) date 2023-02-15 13:21:11*
%MOMM*%
%LPD*%
G01*
G04 APERTURE LIST*
G04 #@! TA.AperFunction,ComponentPad*
%ADD10R,1.700000X1.700000*%
G04 #@! TD*
G04 #@! TA.AperFunction,ComponentPad*
%ADD11O,1.700000X1.700000*%
G04 #@! TD*
G04 #@! TA.AperFunction,ComponentPad*
%ADD12R,1.600000X1.600000*%
G04 #@! TD*
G04 #@! TA.AperFunction,ComponentPad*
%ADD13O,1.600000X1.600000*%
G04 #@! TD*
G04 #@! TA.AperFunction,ComponentPad*
%ADD14C,1.600000*%
G04 #@! TD*
G04 #@! TA.AperFunction,ViaPad*
%ADD15C,0.605000*%
G04 #@! TD*
G04 #@! TA.AperFunction,Conductor*
%ADD16C,0.152400*%
G04 #@! TD*
G04 #@! TA.AperFunction,Conductor*
%ADD17C,0.400000*%
G04 #@! TD*
G04 APERTURE END LIST*
D10*
X48260000Y74930000D03*
D11*
X48260000Y72390000D03*
X48260000Y69850000D03*
X48260000Y67310000D03*
X48260000Y64770000D03*
X48260000Y62230000D03*
X48260000Y59690000D03*
X48260000Y57150000D03*
X48260000Y54610000D03*
X48260000Y52070000D03*
X48260000Y49530000D03*
X48260000Y46990000D03*
X48260000Y44450000D03*
X48260000Y41910000D03*
X48260000Y39370000D03*
X48260000Y36830000D03*
X48260000Y34290000D03*
X48260000Y31750000D03*
X48260000Y29210000D03*
X48260000Y26670000D03*
D12*
X53970000Y74930000D03*
D13*
X53970000Y72390000D03*
X53970000Y69850000D03*
X53970000Y67310000D03*
X53970000Y64770000D03*
X53970000Y62230000D03*
X53970000Y59690000D03*
X53970000Y57150000D03*
X53970000Y54610000D03*
X53970000Y52070000D03*
X53970000Y49530000D03*
X53970000Y46990000D03*
X53970000Y44450000D03*
X53970000Y41910000D03*
X53970000Y39370000D03*
X53970000Y36830000D03*
X53970000Y34290000D03*
X53970000Y31750000D03*
X53970000Y29210000D03*
X53970000Y26670000D03*
X69210000Y26670000D03*
X69210000Y29210000D03*
X69210000Y31750000D03*
X69210000Y34290000D03*
X69210000Y36830000D03*
X69210000Y39370000D03*
X69210000Y41910000D03*
X69210000Y44450000D03*
X69210000Y46990000D03*
X69210000Y49530000D03*
X69210000Y52070000D03*
X69210000Y54610000D03*
X69210000Y57150000D03*
X69210000Y59690000D03*
X69210000Y62230000D03*
X69210000Y64770000D03*
X69210000Y67310000D03*
X69210000Y69850000D03*
X69210000Y72390000D03*
X69210000Y74930000D03*
D14*
X55245000Y19685000D03*
D13*
X45085000Y19685000D03*
D10*
X1905000Y12695000D03*
D11*
X1905000Y10155000D03*
X1905000Y7615000D03*
X1905000Y5075000D03*
X1905000Y2535000D03*
D14*
X55245000Y16510000D03*
D13*
X45085000Y16510000D03*
D14*
X45045000Y59690000D03*
X42545000Y59690000D03*
X57785000Y22860000D03*
D13*
X67945000Y22860000D03*
D10*
X74930000Y74930000D03*
D11*
X74930000Y72390000D03*
X74930000Y69850000D03*
X74930000Y67310000D03*
X74930000Y64770000D03*
X74930000Y62230000D03*
X74930000Y59690000D03*
X74930000Y57150000D03*
X74930000Y54610000D03*
X74930000Y52070000D03*
X74930000Y49530000D03*
X74930000Y46990000D03*
X74930000Y44450000D03*
X74930000Y41910000D03*
X74930000Y39370000D03*
X74930000Y36830000D03*
X74930000Y34290000D03*
X74930000Y31750000D03*
X74930000Y29210000D03*
X74930000Y26670000D03*
D14*
X57785000Y19685000D03*
D13*
X67945000Y19685000D03*
D10*
X69215000Y12695000D03*
D11*
X69215000Y10155000D03*
X69215000Y7615000D03*
X69215000Y5075000D03*
X69215000Y2535000D03*
D14*
X55270000Y22860000D03*
D13*
X45110000Y22860000D03*
D10*
X71755000Y74930000D03*
D11*
X71755000Y72390000D03*
X71755000Y69850000D03*
X71755000Y67310000D03*
X71755000Y64770000D03*
X71755000Y62230000D03*
X71755000Y59690000D03*
X71755000Y57150000D03*
X71755000Y54610000D03*
X71755000Y52070000D03*
X71755000Y49530000D03*
X71755000Y46990000D03*
X71755000Y44450000D03*
X71755000Y41910000D03*
X71755000Y39370000D03*
X71755000Y36830000D03*
X71755000Y34290000D03*
X71755000Y31750000D03*
X71755000Y29210000D03*
X71755000Y26670000D03*
D10*
X51435000Y74930000D03*
D11*
X51435000Y72390000D03*
X51435000Y69850000D03*
X51435000Y67310000D03*
X51435000Y64770000D03*
X51435000Y62230000D03*
X51435000Y59690000D03*
X51435000Y57150000D03*
X51435000Y54610000D03*
X51435000Y52070000D03*
X51435000Y49530000D03*
X51435000Y46990000D03*
X51435000Y44450000D03*
X51435000Y41910000D03*
X51435000Y39370000D03*
X51435000Y36830000D03*
X51435000Y34290000D03*
X51435000Y31750000D03*
X51435000Y29210000D03*
X51435000Y26670000D03*
D15*
X50546000Y22860000D03*
X48514000Y22860000D03*
X56515000Y69850000D03*
X67310000Y69850000D03*
X67310000Y67310000D03*
X56515000Y67310000D03*
X57150000Y59690000D03*
X64135000Y52070000D03*
X57150000Y52070000D03*
X62230000Y46990000D03*
X57150000Y46990000D03*
X66040000Y43815000D03*
X57150000Y41910000D03*
X66040000Y39370000D03*
X66040000Y31750000D03*
X57150000Y31750000D03*
X38227000Y14351000D03*
X48514000Y14097000D03*
X50546000Y14097000D03*
X50546000Y8255000D03*
X48514000Y8255000D03*
X4445000Y6350000D03*
X4445000Y3810000D03*
X66040000Y2540000D03*
X81915000Y26035000D03*
X81915000Y76200000D03*
X38735000Y76200000D03*
X76934500Y50800000D03*
X78867000Y45720000D03*
X77174800Y40640000D03*
X77851000Y50800000D03*
X64257400Y47998500D03*
X67564000Y52219600D03*
X67564000Y51104300D03*
X67564000Y50038000D03*
X67564000Y48976300D03*
X64803141Y49817141D03*
X66605959Y45650959D03*
X79397600Y44958000D03*
X64755000Y73597900D03*
D16*
X51435000Y44450000D02*
X49338600Y42353600D01*
X51511500Y38291400D02*
X52737900Y37065000D01*
X49338600Y41463229D02*
X48515371Y40640000D01*
X49338600Y42353600D02*
X49338600Y41463229D01*
X47181400Y39826400D02*
X47181400Y38923229D01*
X48515371Y40640000D02*
X47995000Y40640000D01*
X47181400Y38923229D02*
X47813229Y38291400D01*
X47995000Y40640000D02*
X47181400Y39826400D01*
X47813229Y38291400D02*
X51511500Y38291400D01*
X52737900Y37065000D02*
X52737900Y33996100D01*
X67152600Y33261300D02*
X68181300Y34290000D01*
X52737900Y33996100D02*
X53472700Y33261300D01*
X53472700Y33261300D02*
X67152600Y33261300D01*
X68181300Y34290000D02*
X69210000Y34290000D01*
X71755000Y74930000D02*
X70676300Y74930000D01*
X70676300Y74930000D02*
X69597600Y73851300D01*
X69597600Y73851300D02*
X68372500Y73851300D01*
X68372500Y73851300D02*
X65832400Y71311200D01*
X65832400Y71311200D02*
X47764777Y71311200D01*
X47764777Y71311200D02*
X46876600Y70423023D01*
X46876600Y70423023D02*
X46876600Y62166652D01*
X46876600Y62166652D02*
X46149148Y61439200D01*
X46149148Y61439200D02*
X44466796Y61439200D01*
X44466796Y61439200D02*
X43860596Y60833000D01*
X43860596Y60833000D02*
X42233339Y60833000D01*
X42233339Y60833000D02*
X41516400Y60116061D01*
X41516400Y60116061D02*
X41516400Y59263939D01*
X41516400Y59263939D02*
X42118939Y58661400D01*
X42118939Y58661400D02*
X43756835Y58661400D01*
X43756835Y58661400D02*
X44366435Y58051800D01*
X44366435Y58051800D02*
X45861096Y58051800D01*
X45861096Y58051800D02*
X46571800Y57341096D01*
X46571800Y57341096D02*
X46571800Y33438200D01*
X46571800Y33438200D02*
X48260000Y31750000D01*
X70676300Y69850000D02*
X69647500Y68821200D01*
X69647500Y68821200D02*
X55892800Y68821200D01*
X71755000Y69850000D02*
X70676300Y69850000D01*
X55892800Y68821200D02*
X54998600Y69715400D01*
X54998600Y69715400D02*
X54998600Y70276061D01*
X54998600Y70276061D02*
X54338861Y70935800D01*
X54338861Y70935800D02*
X47820429Y70935800D01*
X47820429Y70935800D02*
X47181400Y70296771D01*
X47181400Y70296771D02*
X47181400Y62040400D01*
X47181400Y62040400D02*
X46275400Y61134400D01*
X46275400Y61134400D02*
X44593048Y61134400D01*
X44593048Y61134400D02*
X43711600Y60252952D01*
X43711600Y60252952D02*
X43711600Y59137687D01*
X43711600Y59137687D02*
X44492687Y58356600D01*
X44492687Y58356600D02*
X45987348Y58356600D01*
X45987348Y58356600D02*
X46876600Y57467348D01*
X46876600Y57467348D02*
X46876600Y38213400D01*
X46876600Y38213400D02*
X48260000Y36830000D01*
X69164900Y63258600D02*
X68783939Y63258600D01*
X66739339Y61214000D02*
X54408661Y61214000D01*
X68783939Y63258600D02*
X66739339Y61214000D01*
X54408661Y61214000D02*
X54346061Y61151400D01*
X71755000Y64770000D02*
X70676300Y64770000D01*
X54346061Y61151400D02*
X46723452Y61151400D01*
X70676300Y64770000D02*
X69164900Y63258600D01*
X46723452Y61151400D02*
X46401652Y60829600D01*
X46401652Y60829600D02*
X44719300Y60829600D01*
X44719300Y60829600D02*
X44016400Y60126700D01*
X44016400Y60126700D02*
X44016400Y59263939D01*
X44016400Y59263939D02*
X44618939Y58661400D01*
X44618939Y58661400D02*
X46113600Y58661400D01*
X46113600Y58661400D02*
X47181400Y57593600D01*
X47181400Y57593600D02*
X47181400Y42988600D01*
X47181400Y42988600D02*
X48260000Y41910000D01*
X77174800Y40640000D02*
X76949000Y40865800D01*
X76949000Y40865800D02*
X76949000Y49898000D01*
X76949000Y49898000D02*
X77851000Y50800000D01*
X76934500Y50800000D02*
X76644200Y50509700D01*
X76644200Y50509700D02*
X76644200Y26858829D01*
X70371600Y25286600D02*
X67945000Y22860000D01*
X76644200Y26858829D02*
X75376771Y25591400D01*
X75376771Y25591400D02*
X74282452Y25591400D01*
X74282452Y25591400D02*
X73977652Y25286600D01*
X73977652Y25286600D02*
X70371600Y25286600D01*
X67564000Y52219600D02*
X67497159Y52219600D01*
X67497159Y52219600D02*
X65625800Y50348241D01*
X65625800Y50348241D02*
X64583152Y50348241D01*
X64583152Y50348241D02*
X63764911Y49530000D01*
X63764911Y49530000D02*
X53970000Y49530000D01*
X64211200Y49225200D02*
X55448200Y49225200D01*
X54483000Y48260000D02*
X53783700Y48260000D01*
X55448200Y49225200D02*
X54483000Y48260000D01*
X64803141Y49817141D02*
X64211200Y49225200D01*
X53783700Y48260000D02*
X52513700Y46990000D01*
X52513700Y46990000D02*
X51435000Y46990000D01*
X51435000Y42853700D02*
X52513700Y43932400D01*
X51435000Y41910000D02*
X51435000Y42853700D01*
X52513700Y44448361D02*
X53785339Y45720000D01*
X53785339Y45720000D02*
X54154661Y45720000D01*
X52513700Y43932400D02*
X52513700Y44448361D01*
X54154661Y45720000D02*
X54998600Y46563939D01*
X54998600Y46563939D02*
X54998600Y48140600D01*
X54998600Y48140600D02*
X55778400Y48920400D01*
X55778400Y48920400D02*
X64756544Y48920400D01*
X64756544Y48920400D02*
X67032900Y51196756D01*
X67032900Y51196756D02*
X67032900Y51324289D01*
X67032900Y51324289D02*
X67397611Y51689000D01*
X67397611Y51689000D02*
X68829000Y51689000D01*
X68829000Y51689000D02*
X69210000Y52070000D01*
X67564000Y51104300D02*
X67371496Y51104300D01*
X64882796Y48615600D02*
X55904652Y48615600D01*
X55904652Y48615600D02*
X55303400Y48014348D01*
X55303400Y48014348D02*
X55303400Y45783400D01*
X67371496Y51104300D02*
X64882796Y48615600D01*
X55303400Y45783400D02*
X53970000Y44450000D01*
X71755000Y49530000D02*
X70676300Y49530000D01*
X70676300Y49530000D02*
X69632600Y50573700D01*
X69632600Y50573700D02*
X67271948Y50573700D01*
X67271948Y50573700D02*
X64696748Y47998500D01*
X64696748Y47998500D02*
X64257400Y47998500D01*
X67564000Y48976300D02*
X66967704Y48976300D01*
X54998600Y35318600D02*
X53970000Y34290000D01*
X66967704Y48976300D02*
X54998600Y37007196D01*
X54998600Y37007196D02*
X54998600Y35318600D01*
X74930000Y59690000D02*
X73787000Y59690000D01*
X73787000Y59690000D02*
X72685800Y58588800D01*
X72685800Y58588800D02*
X71211300Y58588800D01*
X71211300Y58588800D02*
X70110100Y59690000D01*
X70110100Y59690000D02*
X69210000Y59690000D01*
X53970000Y64770000D02*
X53086000Y64770000D01*
X53086000Y64770000D02*
X52007300Y63691300D01*
X52007300Y63691300D02*
X50417400Y63691300D01*
X50417400Y63691300D02*
X49338700Y64770000D01*
X49338700Y64770000D02*
X48260000Y64770000D01*
X54998600Y67444600D02*
X54998600Y66883939D01*
X54392761Y66278100D02*
X52466900Y66278100D01*
X78686900Y46662100D02*
X78686900Y51146241D01*
X54998600Y66883939D02*
X54392761Y66278100D01*
X77012800Y67641900D02*
X76232900Y68421800D01*
X78686900Y51146241D02*
X77012800Y52820341D01*
X77012800Y52820341D02*
X77012800Y67641900D01*
X76232900Y68421800D02*
X55975800Y68421800D01*
X55975800Y68421800D02*
X54998600Y67444600D01*
X79397600Y45951400D02*
X78686900Y46662100D01*
X79397600Y44958000D02*
X79397600Y45951400D01*
X52466900Y66278100D02*
X51435000Y67310000D01*
X70676300Y59690000D02*
X69533300Y60833000D01*
X53527300Y56121400D02*
X52514100Y55108200D01*
X52514100Y49073900D02*
X51877700Y48437500D01*
X69533300Y60833000D02*
X55753000Y60833000D01*
X51331900Y48437500D02*
X49884400Y46990000D01*
X55753000Y60833000D02*
X54998600Y60078600D01*
X54998600Y60078600D02*
X54998600Y56723939D01*
X54998600Y56723939D02*
X54396061Y56121400D01*
X71755000Y59690000D02*
X70676300Y59690000D01*
X54396061Y56121400D02*
X53527300Y56121400D01*
X51877700Y48437500D02*
X51331900Y48437500D01*
X52514100Y55108200D02*
X52514100Y49073900D01*
X49884400Y46990000D02*
X48260000Y46990000D01*
X51435000Y39370000D02*
X52513700Y39370000D01*
X52513700Y39370000D02*
X53542300Y38341400D01*
X53542300Y38341400D02*
X55359400Y38341400D01*
X55359400Y38341400D02*
X55372000Y38354000D01*
X55372000Y38354000D02*
X55914352Y38354000D01*
X55914352Y38354000D02*
X67067252Y49506900D01*
X67067252Y49506900D02*
X69186900Y49506900D01*
X69186900Y49506900D02*
X69210000Y49530000D01*
X78867000Y45720000D02*
X78382100Y46204900D01*
X78382100Y51019989D02*
X76708000Y52694089D01*
X78382100Y46204900D02*
X78382100Y51019989D01*
X76708000Y52694089D02*
X76708000Y62992000D01*
X76708000Y62992000D02*
X74930000Y64770000D01*
X71755000Y54610000D02*
X70676300Y54610000D01*
X69519800Y53453500D02*
X56586252Y53453500D01*
X56586252Y53453500D02*
X54401152Y55638600D01*
X54401152Y55638600D02*
X53475800Y55638600D01*
X70676300Y54610000D02*
X69519800Y53453500D01*
X53475800Y55638600D02*
X52941300Y55104100D01*
X52941300Y55104100D02*
X52941300Y53098700D01*
X52941300Y53098700D02*
X53970000Y52070000D01*
X67167300Y50038000D02*
X56499300Y39370000D01*
X56499300Y39370000D02*
X53970000Y39370000D01*
X67564000Y50038000D02*
X67167300Y50038000D01*
X48260000Y39370000D02*
X49338700Y39370000D01*
X49338700Y39370000D02*
X50481700Y40513000D01*
X50481700Y40513000D02*
X52827000Y40513000D01*
X52827000Y40513000D02*
X53970000Y39370000D01*
X48260000Y46990000D02*
X49377500Y45872500D01*
X52852500Y45872500D02*
X53970000Y46990000D01*
X49377500Y45872500D02*
X52852500Y45872500D01*
X74930000Y26670000D02*
X73851400Y25591400D01*
X73851400Y25591400D02*
X70288600Y25591400D01*
X70288600Y25591400D02*
X69210000Y26670000D01*
X71755000Y26670000D02*
X72136000Y26670000D01*
X72136000Y26670000D02*
X73533000Y28067000D01*
X75438000Y28067000D02*
X76339400Y28968400D01*
X73533000Y28067000D02*
X75438000Y28067000D01*
X76339400Y28968400D02*
X76339400Y58280600D01*
X76339400Y58280600D02*
X74930000Y59690000D01*
X74930000Y29210000D02*
X73851300Y29210000D01*
X73851300Y29210000D02*
X72750100Y28108800D01*
X72750100Y28108800D02*
X71211300Y28108800D01*
X71211300Y28108800D02*
X70110100Y29210000D01*
X70110100Y29210000D02*
X69210000Y29210000D01*
X74930000Y31750000D02*
X73851300Y31750000D01*
X73851300Y31750000D02*
X72740000Y32861300D01*
X72740000Y32861300D02*
X71225400Y32861300D01*
X71225400Y32861300D02*
X70114100Y31750000D01*
X70114100Y31750000D02*
X69210000Y31750000D01*
X74930000Y34290000D02*
X73851300Y34290000D01*
X73851300Y34290000D02*
X72750100Y33188800D01*
X72750100Y33188800D02*
X71205200Y33188800D01*
X71205200Y33188800D02*
X70104000Y34290000D01*
X70104000Y34290000D02*
X69210000Y34290000D01*
X74930000Y39370000D02*
X73851300Y39370000D01*
X73851300Y39370000D02*
X72750100Y38268800D01*
X72750100Y38268800D02*
X71211300Y38268800D01*
X71211300Y38268800D02*
X70110100Y39370000D01*
X70110100Y39370000D02*
X69210000Y39370000D01*
X74930000Y36830000D02*
X73851300Y36830000D01*
X72740000Y37941300D02*
X71221400Y37941300D01*
X73851300Y36830000D02*
X72740000Y37941300D01*
X71221400Y37941300D02*
X70110100Y36830000D01*
X70110100Y36830000D02*
X69210000Y36830000D01*
X74930000Y41910000D02*
X73851300Y41910000D01*
X73851300Y41910000D02*
X72745000Y43016300D01*
X72745000Y43016300D02*
X71216400Y43016300D01*
X71216400Y43016300D02*
X70110100Y41910000D01*
X70110100Y41910000D02*
X69210000Y41910000D01*
X74930000Y44450000D02*
X73851300Y44450000D01*
X73851300Y44450000D02*
X72750100Y43348800D01*
X71211300Y43348800D02*
X70110100Y44450000D01*
X72750100Y43348800D02*
X71211300Y43348800D01*
X70110100Y44450000D02*
X69210000Y44450000D01*
X69210000Y46990000D02*
X70112100Y46990000D01*
X73851400Y48068600D02*
X74930000Y46990000D01*
X70112100Y46990000D02*
X71190700Y48068600D01*
X71190700Y48068600D02*
X73851400Y48068600D01*
X69210000Y49530000D02*
X70110100Y49530000D01*
X70110100Y49530000D02*
X71188800Y48451300D01*
X71188800Y48451300D02*
X72772600Y48451300D01*
X72772600Y48451300D02*
X73851300Y49530000D01*
X73851300Y49530000D02*
X74930000Y49530000D01*
X74930000Y52070000D02*
X73851300Y52070000D01*
X73851300Y52070000D02*
X72738300Y50957000D01*
X72738300Y50957000D02*
X71223100Y50957000D01*
X71223100Y50957000D02*
X70110100Y52070000D01*
X70110100Y52070000D02*
X69210000Y52070000D01*
X71755000Y29210000D02*
X72833700Y29210000D01*
X72833700Y29210000D02*
X73912400Y30288700D01*
X73912400Y30288700D02*
X74999100Y30288700D01*
X74999100Y30288700D02*
X76008700Y31298300D01*
X76008700Y31298300D02*
X76008700Y53531300D01*
X76008700Y53531300D02*
X74930000Y54610000D01*
X74930000Y54610000D02*
X73851300Y54610000D01*
X73851300Y54610000D02*
X72767300Y55694000D01*
X71194100Y55694000D02*
X70110100Y54610000D01*
X72767300Y55694000D02*
X71194100Y55694000D01*
X70110100Y54610000D02*
X69210000Y54610000D01*
X74930000Y57150000D02*
X73851300Y57150000D01*
X73851300Y57150000D02*
X72745000Y58256300D01*
X72745000Y58256300D02*
X71216400Y58256300D01*
X71216400Y58256300D02*
X70110100Y57150000D01*
X70110100Y57150000D02*
X69210000Y57150000D01*
X74930000Y62230000D02*
X73851300Y62230000D01*
X72740100Y61118800D02*
X71221300Y61118800D01*
X71221300Y61118800D02*
X70110100Y62230000D01*
X73851300Y62230000D02*
X72740100Y61118800D01*
X70110100Y62230000D02*
X69210000Y62230000D01*
X74930000Y64770000D02*
X73851300Y64770000D01*
X73851300Y64770000D02*
X72740000Y65881300D01*
X72740000Y65881300D02*
X71221400Y65881300D01*
X71221400Y65881300D02*
X70110100Y64770000D01*
X70110100Y64770000D02*
X69210000Y64770000D01*
X74930000Y72390000D02*
X73851300Y72390000D01*
X73851300Y72390000D02*
X72750100Y71288800D01*
X72750100Y71288800D02*
X71211300Y71288800D01*
X70110100Y72390000D02*
X69210000Y72390000D01*
X71211300Y71288800D02*
X70110100Y72390000D01*
X74930000Y69850000D02*
X73851300Y69850000D01*
X73851300Y69850000D02*
X72740000Y70961300D01*
X72740000Y70961300D02*
X71221400Y70961300D01*
X71221400Y70961300D02*
X70110100Y69850000D01*
X70110100Y69850000D02*
X69210000Y69850000D01*
X74930000Y67310000D02*
X73851300Y67310000D01*
X70229629Y67310000D02*
X69210000Y67310000D01*
X73851300Y67310000D02*
X72772700Y66231400D01*
X71308229Y66231400D02*
X70229629Y67310000D01*
X72772700Y66231400D02*
X71308229Y66231400D01*
X66605959Y45650959D02*
X66980341Y45650959D01*
X66980341Y45650959D02*
X68181300Y44450000D01*
X68181300Y44450000D02*
X69210000Y44450000D01*
X53970000Y67310000D02*
X53069900Y67310000D01*
X53069900Y67310000D02*
X51991200Y68388700D01*
X51991200Y68388700D02*
X50417400Y68388700D01*
X50417400Y68388700D02*
X49338700Y67310000D01*
X49338700Y67310000D02*
X48260000Y67310000D01*
X53970000Y69850000D02*
X53069900Y69850000D01*
X53069900Y69850000D02*
X51991200Y68771300D01*
X50417400Y68771300D02*
X49338700Y69850000D01*
X51991200Y68771300D02*
X50417400Y68771300D01*
X49338700Y69850000D02*
X48260000Y69850000D01*
X53970000Y72390000D02*
X53069900Y72390000D01*
X53069900Y72390000D02*
X51991200Y73468700D01*
X51991200Y73468700D02*
X50417400Y73468700D01*
X50417400Y73468700D02*
X49338700Y72390000D01*
X49338700Y72390000D02*
X48260000Y72390000D01*
X53970000Y62230000D02*
X51435000Y62230000D01*
X51435000Y62230000D02*
X48260000Y62230000D01*
X69597600Y53148700D02*
X70676300Y52070000D01*
X56460000Y53148700D02*
X69597600Y53148700D01*
X54998700Y54610000D02*
X56460000Y53148700D01*
X53970000Y54610000D02*
X54998700Y54610000D01*
X71755000Y52070000D02*
X70676300Y52070000D01*
D17*
X48260000Y59690000D02*
X49530000Y58420000D01*
X52700000Y58420000D02*
X53970000Y59690000D01*
X49530000Y58420000D02*
X52700000Y58420000D01*
X45045000Y59690000D02*
X48260000Y59690000D01*
X48260000Y59690000D02*
X49530000Y58420000D01*
X49657000Y51308000D02*
X51435000Y49530000D01*
X49657000Y58293000D02*
X49657000Y51308000D01*
X49530000Y58420000D02*
X49657000Y58293000D01*
X49525000Y2535000D02*
X1905000Y2535000D01*
X51435000Y4445000D02*
X49525000Y2535000D01*
X51435000Y26670000D02*
X51435000Y4445000D01*
X47625000Y9525000D02*
X45715000Y7615000D01*
X45715000Y7615000D02*
X1905000Y7615000D01*
X47057600Y27168051D02*
X47057600Y26171949D01*
X49530000Y34925000D02*
X49530000Y28575000D01*
X47625000Y25604549D02*
X47625000Y9525000D01*
X49530000Y28575000D02*
X48895000Y27940000D01*
X47829549Y27940000D02*
X47057600Y27168051D01*
X51435000Y36830000D02*
X49530000Y34925000D01*
X48895000Y27940000D02*
X47829549Y27940000D01*
X47057600Y26171949D02*
X47625000Y25604549D01*
X47620000Y5075000D02*
X1905000Y5075000D01*
X51435000Y29210000D02*
X51435000Y28829000D01*
X49530000Y26924000D02*
X49530000Y6985000D01*
X51435000Y28829000D02*
X49530000Y26924000D01*
X49530000Y6985000D02*
X47620000Y5075000D01*
G04 #@! TA.AperFunction,Conductor*
G36*
X82515931Y76979998D02*
G01*
X82536905Y76963095D01*
X82963095Y76536905D01*
X82997121Y76474593D01*
X83000000Y76447810D01*
X83000000Y25552190D01*
X82979998Y25484069D01*
X82963095Y25463095D01*
X82536905Y25036905D01*
X82474593Y25002879D01*
X82447810Y25000000D01*
X75681346Y25000000D01*
X75613225Y25020002D01*
X75566732Y25073658D01*
X75556628Y25143932D01*
X75586122Y25208512D01*
X75610520Y25230210D01*
X75610830Y25230421D01*
X75619321Y25234498D01*
X75624343Y25239141D01*
X75630412Y25242293D01*
X75635190Y25246374D01*
X75670365Y25281549D01*
X75673931Y25284979D01*
X75706627Y25315203D01*
X75713542Y25321595D01*
X75717081Y25327687D01*
X75722040Y25333224D01*
X76922722Y26533906D01*
X76933812Y26543761D01*
X76951366Y26557599D01*
X76951370Y26557603D01*
X76958765Y26563433D01*
X76990311Y26609077D01*
X76992606Y26612289D01*
X77019965Y26649330D01*
X77025562Y26656907D01*
X77027828Y26663358D01*
X77031717Y26668986D01*
X77048464Y26721942D01*
X77049700Y26725644D01*
X77064954Y26769080D01*
X77068076Y26777970D01*
X77068344Y26784802D01*
X77070407Y26791324D01*
X77070900Y26797588D01*
X77070900Y26847359D01*
X77070997Y26852306D01*
X77071302Y26860058D01*
X77073114Y26906181D01*
X77071308Y26912992D01*
X77070900Y26920406D01*
X77070900Y39860525D01*
X77090902Y39928646D01*
X77144558Y39975139D01*
X77198879Y39986509D01*
X77235961Y39985926D01*
X77235964Y39985926D01*
X77243558Y39985807D01*
X77397620Y40021092D01*
X77538819Y40092108D01*
X77659002Y40194754D01*
X77722229Y40282743D01*
X77746794Y40316929D01*
X77746795Y40316930D01*
X77751231Y40323104D01*
X77810182Y40469750D01*
X77832452Y40626224D01*
X77832596Y40640000D01*
X77813608Y40796906D01*
X77757741Y40944754D01*
X77734338Y40978805D01*
X77672522Y41068749D01*
X77672521Y41068751D01*
X77668220Y41075008D01*
X77658541Y41083632D01*
X77555884Y41175097D01*
X77555880Y41175100D01*
X77550213Y41180149D01*
X77543505Y41183701D01*
X77543503Y41183702D01*
X77442741Y41237052D01*
X77391898Y41286605D01*
X77375700Y41348407D01*
X77375700Y49669065D01*
X77395702Y49737186D01*
X77412605Y49758160D01*
X77740305Y50085860D01*
X77802617Y50119886D01*
X77873432Y50114821D01*
X77930268Y50072274D01*
X77955079Y50005754D01*
X77955400Y49996765D01*
X77955400Y46237710D01*
X77954527Y46222902D01*
X77950792Y46191345D01*
X77952484Y46182083D01*
X77952484Y46182074D01*
X77960763Y46136748D01*
X77961414Y46132840D01*
X77969656Y46078016D01*
X77972616Y46071852D01*
X77973845Y46065123D01*
X77999422Y46015885D01*
X78001179Y46012369D01*
X78021120Y45970841D01*
X78021122Y45970837D01*
X78025198Y45962350D01*
X78029841Y45957328D01*
X78032993Y45951259D01*
X78037074Y45946481D01*
X78072249Y45911306D01*
X78075678Y45907741D01*
X78112295Y45868129D01*
X78118387Y45864590D01*
X78123924Y45859631D01*
X78173182Y45810373D01*
X78207208Y45748061D01*
X78209314Y45727452D01*
X78209240Y45726888D01*
X78213002Y45692814D01*
X78225326Y45581190D01*
X78226584Y45569792D01*
X78229194Y45562661D01*
X78229194Y45562659D01*
X78243110Y45524631D01*
X78280899Y45421367D01*
X78285136Y45415061D01*
X78285138Y45415058D01*
X78317659Y45366663D01*
X78369052Y45290183D01*
X78485951Y45183812D01*
X78492624Y45180189D01*
X78492628Y45180186D01*
X78618172Y45112022D01*
X78618174Y45112021D01*
X78624849Y45108397D01*
X78632198Y45106469D01*
X78646885Y45102616D01*
X78707701Y45065982D01*
X78739056Y45002285D01*
X78740905Y44979420D01*
X78740832Y44972421D01*
X78739840Y44964888D01*
X78746448Y44905037D01*
X78756136Y44817286D01*
X78757184Y44807792D01*
X78759794Y44800661D01*
X78759794Y44800659D01*
X78773648Y44762802D01*
X78811499Y44659367D01*
X78815736Y44653061D01*
X78815738Y44653058D01*
X78851539Y44599782D01*
X78899652Y44528183D01*
X79016551Y44421812D01*
X79023224Y44418189D01*
X79023228Y44418186D01*
X79087614Y44383228D01*
X79155449Y44346397D01*
X79308327Y44306290D01*
X79391677Y44304980D01*
X79458761Y44303926D01*
X79458764Y44303926D01*
X79466358Y44303807D01*
X79620420Y44339092D01*
X79761619Y44410108D01*
X79881802Y44512754D01*
X79974031Y44641104D01*
X80032982Y44787750D01*
X80055252Y44944224D01*
X80055396Y44958000D01*
X80054670Y44964004D01*
X80044441Y45048527D01*
X80036408Y45114906D01*
X79980541Y45262754D01*
X79911821Y45362743D01*
X79895322Y45386749D01*
X79895321Y45386751D01*
X79891020Y45393008D01*
X79885348Y45398061D01*
X79885346Y45398064D01*
X79866480Y45414874D01*
X79828925Y45475125D01*
X79824300Y45508949D01*
X79824300Y45918589D01*
X79825173Y45933400D01*
X79826022Y45940571D01*
X79828908Y45964954D01*
X79818936Y46019555D01*
X79818287Y46023453D01*
X79817125Y46031186D01*
X79810044Y46078284D01*
X79807084Y46084449D01*
X79805855Y46091176D01*
X79780297Y46140378D01*
X79778530Y46143915D01*
X79758581Y46185458D01*
X79758577Y46185464D01*
X79754502Y46193950D01*
X79749858Y46198974D01*
X79746707Y46205040D01*
X79742627Y46209818D01*
X79707451Y46244994D01*
X79704021Y46248560D01*
X79673797Y46281256D01*
X79673798Y46281256D01*
X79667405Y46288171D01*
X79661313Y46291710D01*
X79655776Y46296669D01*
X79150505Y46801940D01*
X79116479Y46864252D01*
X79113600Y46891035D01*
X79113600Y51113430D01*
X79114473Y51128241D01*
X79117101Y51150444D01*
X79118208Y51159795D01*
X79116516Y51169060D01*
X79108240Y51214376D01*
X79107590Y51218279D01*
X79100744Y51263814D01*
X79100744Y51263815D01*
X79099344Y51273125D01*
X79096384Y51279289D01*
X79095155Y51286018D01*
X79069578Y51335256D01*
X79067821Y51338772D01*
X79047880Y51380300D01*
X79047878Y51380304D01*
X79043802Y51388791D01*
X79039159Y51393813D01*
X79036007Y51399882D01*
X79031926Y51404659D01*
X78996763Y51439822D01*
X78993333Y51443388D01*
X78963096Y51476098D01*
X78956705Y51483012D01*
X78950612Y51486551D01*
X78945070Y51491515D01*
X77476405Y52960181D01*
X77442379Y53022493D01*
X77439500Y53049276D01*
X77439500Y67609097D01*
X77440373Y67623906D01*
X77443000Y67646103D01*
X77444107Y67655455D01*
X77442341Y67665126D01*
X77434142Y67710022D01*
X77433492Y67713925D01*
X77426644Y67759475D01*
X77426643Y67759478D01*
X77425244Y67768784D01*
X77422284Y67774949D01*
X77421055Y67781677D01*
X77395478Y67830915D01*
X77393721Y67834431D01*
X77373780Y67875959D01*
X77373778Y67875963D01*
X77369702Y67884450D01*
X77365059Y67889472D01*
X77361907Y67895541D01*
X77357826Y67900319D01*
X77322651Y67935494D01*
X77319221Y67939060D01*
X77288997Y67971756D01*
X77288998Y67971756D01*
X77282605Y67978671D01*
X77276513Y67982210D01*
X77270976Y67987169D01*
X76557823Y68700322D01*
X76547968Y68711412D01*
X76534130Y68728966D01*
X76534126Y68728970D01*
X76528296Y68736365D01*
X76482585Y68767957D01*
X76479462Y68770190D01*
X76434821Y68803162D01*
X76428371Y68805427D01*
X76422743Y68809317D01*
X76413768Y68812155D01*
X76413763Y68812158D01*
X76369854Y68826044D01*
X76366113Y68827292D01*
X76345333Y68834589D01*
X76322645Y68842557D01*
X76322642Y68842558D01*
X76313759Y68845677D01*
X76306923Y68845946D01*
X76300405Y68848007D01*
X76294141Y68848500D01*
X76244380Y68848500D01*
X76239434Y68848597D01*
X76239156Y68848608D01*
X76185548Y68850714D01*
X76178737Y68848908D01*
X76171322Y68848500D01*
X75927288Y68848500D01*
X75859167Y68868502D01*
X75812674Y68922158D01*
X75802570Y68992432D01*
X75830414Y69055069D01*
X75919904Y69162668D01*
X75919911Y69162678D01*
X75923602Y69167116D01*
X76031410Y69359621D01*
X76033266Y69365088D01*
X76033268Y69365093D01*
X76100475Y69563079D01*
X76100476Y69563084D01*
X76102331Y69568548D01*
X76103159Y69574257D01*
X76103160Y69574262D01*
X76133458Y69783228D01*
X76133991Y69786902D01*
X76135643Y69850000D01*
X76115454Y70069711D01*
X76055565Y70282064D01*
X75957980Y70479947D01*
X75937446Y70507446D01*
X75829420Y70652109D01*
X75829420Y70652110D01*
X75825967Y70656733D01*
X75711286Y70762743D01*
X75668189Y70802582D01*
X75668186Y70802584D01*
X75663949Y70806501D01*
X75477350Y70924236D01*
X75274955Y71004983D01*
X75219096Y71048804D01*
X75195795Y71115868D01*
X75212451Y71184883D01*
X75263775Y71233937D01*
X75281144Y71241326D01*
X75414907Y71286732D01*
X75414912Y71286734D01*
X75420379Y71288590D01*
X75612884Y71396398D01*
X75659243Y71434954D01*
X75778086Y71533796D01*
X75782518Y71537482D01*
X75858435Y71628762D01*
X75919908Y71702674D01*
X75919910Y71702677D01*
X75923602Y71707116D01*
X76031410Y71899621D01*
X76033266Y71905088D01*
X76033268Y71905093D01*
X76100475Y72103079D01*
X76100476Y72103084D01*
X76102331Y72108548D01*
X76103159Y72114257D01*
X76103160Y72114262D01*
X76128347Y72287979D01*
X76133991Y72326902D01*
X76135643Y72390000D01*
X76115454Y72609711D01*
X76099524Y72666197D01*
X76077921Y72742794D01*
X76055565Y72822064D01*
X75957980Y73019947D01*
X75890491Y73110326D01*
X75829420Y73192109D01*
X75829420Y73192110D01*
X75825967Y73196733D01*
X75711286Y73302743D01*
X75668189Y73342582D01*
X75668186Y73342584D01*
X75663949Y73346501D01*
X75477350Y73464236D01*
X75437348Y73480195D01*
X75421620Y73486470D01*
X75365760Y73530291D01*
X75342460Y73597355D01*
X75359116Y73666370D01*
X75410440Y73715424D01*
X75468310Y73729500D01*
X75813218Y73729500D01*
X75817768Y73730170D01*
X75817771Y73730170D01*
X75872426Y73738216D01*
X75872427Y73738216D01*
X75882112Y73739642D01*
X75932008Y73764140D01*
X75977507Y73786478D01*
X75977509Y73786479D01*
X75986855Y73791068D01*
X76069293Y73873650D01*
X76075963Y73887294D01*
X76116240Y73969694D01*
X76120536Y73978482D01*
X76127709Y74027649D01*
X76129840Y74042256D01*
X76129840Y74042260D01*
X76130500Y74046782D01*
X76130500Y75813218D01*
X76128815Y75824669D01*
X76121784Y75872426D01*
X76121784Y75872427D01*
X76120358Y75882112D01*
X76077246Y75969921D01*
X76073522Y75977507D01*
X76073521Y75977509D01*
X76068932Y75986855D01*
X75986350Y76069293D01*
X75960627Y76081867D01*
X75944540Y76089730D01*
X75881518Y76120536D01*
X75851027Y76124984D01*
X75817744Y76129840D01*
X75817740Y76129840D01*
X75813218Y76130500D01*
X74046782Y76130500D01*
X74042232Y76129830D01*
X74042229Y76129830D01*
X73987574Y76121784D01*
X73987573Y76121784D01*
X73977888Y76120358D01*
X73932930Y76098285D01*
X73882493Y76073522D01*
X73882491Y76073521D01*
X73873145Y76068932D01*
X73865787Y76061562D01*
X73865788Y76061562D01*
X73819595Y76015288D01*
X73790707Y75986350D01*
X73786134Y75976994D01*
X73786133Y75976993D01*
X73777580Y75959495D01*
X73739464Y75881518D01*
X73737020Y75864762D01*
X73731171Y75824669D01*
X73729500Y75813218D01*
X73729500Y74046782D01*
X73730170Y74042232D01*
X73730170Y74042229D01*
X73738216Y73987577D01*
X73739642Y73977888D01*
X73743958Y73969098D01*
X73773907Y73908099D01*
X73791068Y73873145D01*
X73873650Y73790707D01*
X73883006Y73786134D01*
X73883007Y73786133D01*
X73907264Y73774276D01*
X73978482Y73739464D01*
X74008973Y73735016D01*
X74042256Y73730160D01*
X74042260Y73730160D01*
X74046782Y73729500D01*
X74386570Y73729500D01*
X74454691Y73709498D01*
X74501184Y73655842D01*
X74511288Y73585568D01*
X74481794Y73520988D01*
X74430180Y73485288D01*
X74421382Y73482042D01*
X74410957Y73478196D01*
X74405996Y73475244D01*
X74405995Y73475244D01*
X74258873Y73387715D01*
X74221341Y73365386D01*
X74055457Y73219910D01*
X73918863Y73046640D01*
X73893450Y72998338D01*
X73825750Y72869663D01*
X73776330Y72818691D01*
X73742599Y72807051D01*
X73742733Y72806614D01*
X73733729Y72803844D01*
X73724416Y72802444D01*
X73718252Y72799484D01*
X73711523Y72798255D01*
X73662285Y72772678D01*
X73658769Y72770921D01*
X73617241Y72750980D01*
X73617237Y72750978D01*
X73608750Y72746902D01*
X73603728Y72742259D01*
X73597659Y72739107D01*
X73592881Y72735026D01*
X73557706Y72699851D01*
X73554141Y72696422D01*
X73514529Y72659805D01*
X73510990Y72653713D01*
X73506031Y72648176D01*
X73174795Y72316940D01*
X73112483Y72282914D01*
X73041668Y72287979D01*
X72984832Y72330526D01*
X72960229Y72394506D01*
X72940983Y72603954D01*
X72940454Y72609711D01*
X72924524Y72666197D01*
X72902921Y72742794D01*
X72880565Y72822064D01*
X72782980Y73019947D01*
X72715491Y73110326D01*
X72654420Y73192109D01*
X72654420Y73192110D01*
X72650967Y73196733D01*
X72536286Y73302743D01*
X72493189Y73342582D01*
X72493186Y73342584D01*
X72488949Y73346501D01*
X72302350Y73464236D01*
X72262348Y73480195D01*
X72246620Y73486470D01*
X72190760Y73530291D01*
X72167460Y73597355D01*
X72184116Y73666370D01*
X72235440Y73715424D01*
X72293310Y73729500D01*
X72638218Y73729500D01*
X72642768Y73730170D01*
X72642771Y73730170D01*
X72697426Y73738216D01*
X72697427Y73738216D01*
X72707112Y73739642D01*
X72757008Y73764140D01*
X72802507Y73786478D01*
X72802509Y73786479D01*
X72811855Y73791068D01*
X72894293Y73873650D01*
X72900963Y73887294D01*
X72941240Y73969694D01*
X72945536Y73978482D01*
X72952709Y74027649D01*
X72954840Y74042256D01*
X72954840Y74042260D01*
X72955500Y74046782D01*
X72955500Y75813218D01*
X72953815Y75824669D01*
X72946784Y75872426D01*
X72946784Y75872427D01*
X72945358Y75882112D01*
X72902246Y75969921D01*
X72898522Y75977507D01*
X72898521Y75977509D01*
X72893932Y75986855D01*
X72811350Y76069293D01*
X72785627Y76081867D01*
X72769540Y76089730D01*
X72706518Y76120536D01*
X72676027Y76124984D01*
X72642744Y76129840D01*
X72642740Y76129840D01*
X72638218Y76130500D01*
X70871782Y76130500D01*
X70867232Y76129830D01*
X70867229Y76129830D01*
X70812574Y76121784D01*
X70812573Y76121784D01*
X70802888Y76120358D01*
X70757930Y76098285D01*
X70707493Y76073522D01*
X70707491Y76073521D01*
X70698145Y76068932D01*
X70690787Y76061562D01*
X70690788Y76061562D01*
X70644595Y76015288D01*
X70615707Y75986350D01*
X70611134Y75976994D01*
X70611133Y75976993D01*
X70602580Y75959495D01*
X70564464Y75881518D01*
X70562020Y75864762D01*
X70556171Y75824669D01*
X70554500Y75813218D01*
X70554500Y75424155D01*
X70534498Y75356034D01*
X70483041Y75310571D01*
X70460299Y75299650D01*
X70451653Y75295499D01*
X70381586Y75284044D01*
X70316449Y75312288D01*
X70284107Y75353355D01*
X70197719Y75528531D01*
X70195165Y75533710D01*
X70068651Y75703133D01*
X69949562Y75813218D01*
X69917622Y75842743D01*
X69917620Y75842745D01*
X69913381Y75846663D01*
X69872549Y75872426D01*
X69739434Y75956416D01*
X69739433Y75956416D01*
X69734554Y75959495D01*
X69538160Y76037848D01*
X69532503Y76038973D01*
X69532497Y76038975D01*
X69336442Y76077972D01*
X69336440Y76077972D01*
X69330775Y76079099D01*
X69325000Y76079175D01*
X69324996Y76079175D01*
X69218976Y76080563D01*
X69119346Y76081867D01*
X69113649Y76080888D01*
X69113648Y76080888D01*
X68916650Y76047038D01*
X68916649Y76047038D01*
X68910953Y76046059D01*
X68712575Y75972873D01*
X68707614Y75969921D01*
X68707613Y75969921D01*
X68542750Y75871838D01*
X68530856Y75864762D01*
X68371881Y75725345D01*
X68240976Y75559292D01*
X68238287Y75554181D01*
X68238285Y75554178D01*
X68224792Y75528531D01*
X68142523Y75372164D01*
X68079820Y75170227D01*
X68054967Y74960246D01*
X68068796Y74749251D01*
X68070217Y74743655D01*
X68070218Y74743650D01*
X68087824Y74674329D01*
X68120845Y74544310D01*
X68123262Y74539067D01*
X68197430Y74378184D01*
X68207785Y74307947D01*
X68178522Y74243261D01*
X68145817Y74218192D01*
X68146235Y74217577D01*
X68138439Y74212278D01*
X68129950Y74208202D01*
X68124928Y74203559D01*
X68118859Y74200407D01*
X68114082Y74196326D01*
X68078919Y74161163D01*
X68075354Y74157734D01*
X68035729Y74121105D01*
X68032190Y74115012D01*
X68027226Y74109470D01*
X65692560Y71774805D01*
X65630248Y71740779D01*
X65603465Y71737900D01*
X55137885Y71737900D01*
X55069764Y71757902D01*
X55023271Y71811558D01*
X55013167Y71881832D01*
X55022760Y71915087D01*
X55025537Y71920045D01*
X55027393Y71925512D01*
X55027395Y71925517D01*
X55091309Y72113803D01*
X55093504Y72120270D01*
X55094577Y72127665D01*
X55123314Y72325860D01*
X55123314Y72325862D01*
X55123846Y72329530D01*
X55125429Y72390000D01*
X55106081Y72600560D01*
X55099331Y72624496D01*
X55079046Y72696421D01*
X55048686Y72804069D01*
X55043141Y72815315D01*
X54957719Y72988531D01*
X54955165Y72993710D01*
X54828651Y73163133D01*
X54673381Y73306663D01*
X54668503Y73309741D01*
X54668491Y73309750D01*
X54542190Y73389440D01*
X54495252Y73442706D01*
X54484564Y73512894D01*
X54513518Y73577718D01*
X54572922Y73616597D01*
X54609426Y73622001D01*
X54814669Y73622001D01*
X54821490Y73622371D01*
X54872352Y73627895D01*
X54887604Y73631521D01*
X55008054Y73676676D01*
X55023649Y73685214D01*
X55125724Y73761715D01*
X55138285Y73774276D01*
X55214786Y73876351D01*
X55223324Y73891946D01*
X55268478Y74012394D01*
X55272105Y74027649D01*
X55277631Y74078514D01*
X55278000Y74085328D01*
X55278000Y74657885D01*
X55273525Y74673124D01*
X55272135Y74674329D01*
X55264452Y74676000D01*
X53842000Y74676000D01*
X53773879Y74696002D01*
X53727386Y74749658D01*
X53716000Y74802000D01*
X53716000Y75202115D01*
X54224000Y75202115D01*
X54228475Y75186876D01*
X54229865Y75185671D01*
X54237548Y75184000D01*
X55259884Y75184000D01*
X55275123Y75188475D01*
X55276328Y75189865D01*
X55277999Y75197548D01*
X55277999Y75774669D01*
X55277629Y75781490D01*
X55272105Y75832352D01*
X55268479Y75847604D01*
X55223324Y75968054D01*
X55214786Y75983649D01*
X55138285Y76085724D01*
X55125724Y76098285D01*
X55023649Y76174786D01*
X55008054Y76183324D01*
X54887606Y76228478D01*
X54872351Y76232105D01*
X54821486Y76237631D01*
X54814672Y76238000D01*
X54242115Y76238000D01*
X54226876Y76233525D01*
X54225671Y76232135D01*
X54224000Y76224452D01*
X54224000Y75202115D01*
X53716000Y75202115D01*
X53716000Y76219884D01*
X53711525Y76235123D01*
X53710135Y76236328D01*
X53702452Y76237999D01*
X53125331Y76237999D01*
X53118510Y76237629D01*
X53067648Y76232105D01*
X53052396Y76228479D01*
X52931946Y76183324D01*
X52916351Y76174786D01*
X52814276Y76098285D01*
X52801716Y76085725D01*
X52748927Y76015288D01*
X52692068Y75972772D01*
X52621249Y75967746D01*
X52559082Y76001679D01*
X52542679Y76018054D01*
X52491350Y76069293D01*
X52465627Y76081867D01*
X52449540Y76089730D01*
X52386518Y76120536D01*
X52356027Y76124984D01*
X52322744Y76129840D01*
X52322740Y76129840D01*
X52318218Y76130500D01*
X50551782Y76130500D01*
X50547232Y76129830D01*
X50547229Y76129830D01*
X50492574Y76121784D01*
X50492573Y76121784D01*
X50482888Y76120358D01*
X50437930Y76098285D01*
X50387493Y76073522D01*
X50387491Y76073521D01*
X50378145Y76068932D01*
X50370787Y76061562D01*
X50370788Y76061562D01*
X50324595Y76015288D01*
X50295707Y75986350D01*
X50291134Y75976994D01*
X50291133Y75976993D01*
X50282580Y75959495D01*
X50244464Y75881518D01*
X50242020Y75864762D01*
X50236171Y75824669D01*
X50234500Y75813218D01*
X50234500Y74046782D01*
X50235170Y74042232D01*
X50235170Y74042229D01*
X50236186Y74035331D01*
X50244642Y73977888D01*
X50245914Y73975298D01*
X50246969Y73908099D01*
X50209528Y73847777D01*
X50190893Y73835334D01*
X50191135Y73834977D01*
X50183339Y73829678D01*
X50174850Y73825602D01*
X50169828Y73820959D01*
X50163759Y73817807D01*
X50158981Y73813726D01*
X50123806Y73778551D01*
X50120241Y73775122D01*
X50080629Y73738505D01*
X50077090Y73732413D01*
X50072131Y73726876D01*
X49423938Y73078683D01*
X49361626Y73044657D01*
X49290811Y73049722D01*
X49233885Y73092389D01*
X49159420Y73192109D01*
X49159420Y73192110D01*
X49155967Y73196733D01*
X48993949Y73346501D01*
X48992831Y73347207D01*
X48951817Y73403376D01*
X48947595Y73474247D01*
X48982359Y73536150D01*
X49045072Y73569431D01*
X49070388Y73572001D01*
X49154669Y73572001D01*
X49161490Y73572371D01*
X49212352Y73577895D01*
X49227604Y73581521D01*
X49348054Y73626676D01*
X49363649Y73635214D01*
X49465724Y73711715D01*
X49478285Y73724276D01*
X49554786Y73826351D01*
X49563324Y73841946D01*
X49608478Y73962394D01*
X49612105Y73977649D01*
X49617631Y74028514D01*
X49618000Y74035331D01*
X49618000Y74657885D01*
X49613525Y74673124D01*
X49612135Y74674329D01*
X49604452Y74676000D01*
X46920116Y74676000D01*
X46904877Y74671525D01*
X46903672Y74670135D01*
X46902001Y74662452D01*
X46902001Y74035331D01*
X46902371Y74028510D01*
X46907895Y73977648D01*
X46911521Y73962396D01*
X46956676Y73841946D01*
X46965214Y73826351D01*
X47041715Y73724276D01*
X47054276Y73711715D01*
X47156351Y73635214D01*
X47171946Y73626676D01*
X47292394Y73581522D01*
X47307649Y73577895D01*
X47358514Y73572369D01*
X47365328Y73572000D01*
X47452165Y73572000D01*
X47520286Y73551998D01*
X47566779Y73498342D01*
X47576883Y73428068D01*
X47547389Y73363488D01*
X47535247Y73351272D01*
X47385457Y73219910D01*
X47248863Y73046640D01*
X47146131Y72851380D01*
X47080703Y72640667D01*
X47054770Y72421560D01*
X47069200Y72201396D01*
X47070621Y72195800D01*
X47070622Y72195795D01*
X47122090Y71993143D01*
X47123511Y71987548D01*
X47125928Y71982306D01*
X47125928Y71982305D01*
X47161843Y71904401D01*
X47215883Y71787179D01*
X47329101Y71626979D01*
X47352081Y71559807D01*
X47335097Y71490872D01*
X47315298Y71465166D01*
X46598078Y70747946D01*
X46586988Y70738091D01*
X46569434Y70724253D01*
X46569430Y70724249D01*
X46562035Y70718419D01*
X46530443Y70672708D01*
X46528210Y70669585D01*
X46495238Y70624944D01*
X46492973Y70618494D01*
X46489083Y70612866D01*
X46486245Y70603891D01*
X46486242Y70603886D01*
X46472356Y70559977D01*
X46471103Y70556220D01*
X46455843Y70512768D01*
X46455842Y70512765D01*
X46452723Y70503882D01*
X46452454Y70497046D01*
X46450393Y70490528D01*
X46449900Y70484264D01*
X46449900Y70434503D01*
X46449803Y70429557D01*
X46447686Y70375671D01*
X46449492Y70368860D01*
X46449900Y70361445D01*
X46449900Y62395587D01*
X46429898Y62327466D01*
X46412995Y62306492D01*
X46009308Y61902805D01*
X45946996Y61868779D01*
X45920213Y61865900D01*
X44499598Y61865900D01*
X44484788Y61866773D01*
X44467536Y61868815D01*
X44453241Y61870507D01*
X44443977Y61868815D01*
X44443974Y61868815D01*
X44398674Y61860542D01*
X44394771Y61859892D01*
X44349221Y61853044D01*
X44349218Y61853043D01*
X44339912Y61851644D01*
X44333747Y61848684D01*
X44327019Y61847455D01*
X44277781Y61821878D01*
X44274265Y61820121D01*
X44232737Y61800180D01*
X44232733Y61800178D01*
X44224246Y61796102D01*
X44219224Y61791459D01*
X44213155Y61788307D01*
X44208377Y61784226D01*
X44173202Y61749051D01*
X44169637Y61745622D01*
X44130025Y61709005D01*
X44126486Y61702913D01*
X44121527Y61697376D01*
X43720756Y61296605D01*
X43658444Y61262579D01*
X43631661Y61259700D01*
X42266150Y61259700D01*
X42251342Y61260573D01*
X42219785Y61264308D01*
X42210521Y61262616D01*
X42210520Y61262616D01*
X42165204Y61254340D01*
X42161301Y61253690D01*
X42115766Y61246844D01*
X42115765Y61246844D01*
X42106455Y61245444D01*
X42100291Y61242484D01*
X42093562Y61241255D01*
X42044324Y61215678D01*
X42040808Y61213921D01*
X41999280Y61193980D01*
X41999276Y61193978D01*
X41990789Y61189902D01*
X41985767Y61185259D01*
X41979698Y61182107D01*
X41974921Y61178026D01*
X41939758Y61142863D01*
X41936193Y61139434D01*
X41896568Y61102805D01*
X41893029Y61096712D01*
X41888069Y61091174D01*
X41237873Y60440979D01*
X41226783Y60431125D01*
X41209234Y60417291D01*
X41209230Y60417287D01*
X41201835Y60411457D01*
X41170243Y60365746D01*
X41168010Y60362623D01*
X41135038Y60317982D01*
X41132773Y60311532D01*
X41128883Y60305904D01*
X41126045Y60296929D01*
X41126042Y60296924D01*
X41112156Y60253015D01*
X41110903Y60249258D01*
X41095643Y60205806D01*
X41095642Y60205803D01*
X41092523Y60196920D01*
X41092254Y60190084D01*
X41090193Y60183566D01*
X41089700Y60177302D01*
X41089700Y60127541D01*
X41089603Y60122595D01*
X41087486Y60068709D01*
X41089292Y60061898D01*
X41089700Y60054483D01*
X41089700Y59296749D01*
X41088827Y59281941D01*
X41085092Y59250384D01*
X41086784Y59241122D01*
X41086784Y59241113D01*
X41095063Y59195787D01*
X41095714Y59191879D01*
X41103956Y59137055D01*
X41106916Y59130891D01*
X41108145Y59124162D01*
X41133722Y59074924D01*
X41135479Y59071408D01*
X41155420Y59029880D01*
X41155422Y59029876D01*
X41159498Y59021389D01*
X41164141Y59016367D01*
X41167293Y59010298D01*
X41171374Y59005520D01*
X41206548Y58970346D01*
X41209978Y58966780D01*
X41246595Y58927168D01*
X41252687Y58923629D01*
X41258219Y58918675D01*
X41794020Y58382875D01*
X41803875Y58371784D01*
X41823543Y58346835D01*
X41869249Y58315246D01*
X41872337Y58313040D01*
X41917018Y58280037D01*
X41923470Y58277771D01*
X41929096Y58273883D01*
X41938073Y58271044D01*
X41938075Y58271043D01*
X41982000Y58257152D01*
X41985730Y58255907D01*
X42038080Y58237523D01*
X42044916Y58237254D01*
X42051434Y58235193D01*
X42057698Y58234700D01*
X42107459Y58234700D01*
X42112405Y58234603D01*
X42166291Y58232486D01*
X42173102Y58234292D01*
X42180517Y58234700D01*
X43527900Y58234700D01*
X43596021Y58214698D01*
X43616995Y58197795D01*
X44041512Y57773278D01*
X44051367Y57762188D01*
X44065205Y57744634D01*
X44065209Y57744630D01*
X44071039Y57737235D01*
X44078786Y57731880D01*
X44078788Y57731879D01*
X44116667Y57705700D01*
X44119889Y57703398D01*
X44156938Y57676032D01*
X44156942Y57676030D01*
X44164514Y57670437D01*
X44170966Y57668171D01*
X44176592Y57664283D01*
X44185569Y57661444D01*
X44185571Y57661443D01*
X44229496Y57647552D01*
X44233226Y57646307D01*
X44285576Y57627923D01*
X44292412Y57627654D01*
X44298930Y57625593D01*
X44305194Y57625100D01*
X44354955Y57625100D01*
X44359901Y57625003D01*
X44413787Y57622886D01*
X44420598Y57624692D01*
X44428013Y57625100D01*
X45632161Y57625100D01*
X45700282Y57605098D01*
X45721256Y57588195D01*
X46108195Y57201256D01*
X46142221Y57138944D01*
X46145100Y57112161D01*
X46145100Y33471010D01*
X46144227Y33456202D01*
X46140492Y33424645D01*
X46142184Y33415383D01*
X46142184Y33415374D01*
X46150463Y33370048D01*
X46151114Y33366140D01*
X46159356Y33311316D01*
X46162316Y33305152D01*
X46163545Y33298423D01*
X46189122Y33249185D01*
X46190879Y33245669D01*
X46210820Y33204141D01*
X46210822Y33204137D01*
X46214898Y33195650D01*
X46219541Y33190628D01*
X46222693Y33184559D01*
X46226774Y33179781D01*
X46261949Y33144606D01*
X46265378Y33141041D01*
X46301995Y33101429D01*
X46308087Y33097890D01*
X46313624Y33092931D01*
X47103952Y32302603D01*
X47137978Y32240291D01*
X47135190Y32176144D01*
X47080703Y32000667D01*
X47054770Y31781560D01*
X47069200Y31561396D01*
X47070621Y31555800D01*
X47070622Y31555795D01*
X47122090Y31353143D01*
X47123511Y31347548D01*
X47125928Y31342306D01*
X47125928Y31342305D01*
X47162090Y31263865D01*
X47215883Y31147179D01*
X47343222Y30966998D01*
X47501264Y30813039D01*
X47506060Y30809834D01*
X47506063Y30809832D01*
X47590261Y30753573D01*
X47684717Y30690460D01*
X47690020Y30688182D01*
X47690023Y30688180D01*
X47880169Y30606487D01*
X47887436Y30603365D01*
X47893071Y30602090D01*
X47893074Y30602089D01*
X47894484Y30601770D01*
X47895083Y30601436D01*
X47898562Y30600306D01*
X47898340Y30599623D01*
X47956511Y30567228D01*
X47990016Y30504634D01*
X47984362Y30433863D01*
X47941344Y30377384D01*
X47910287Y30360665D01*
X47746376Y30300196D01*
X47746368Y30300192D01*
X47740957Y30298196D01*
X47551341Y30185386D01*
X47385457Y30039910D01*
X47248863Y29866640D01*
X47146131Y29671380D01*
X47080703Y29460667D01*
X47054770Y29241560D01*
X47069200Y29021396D01*
X47070621Y29015800D01*
X47070622Y29015795D01*
X47122090Y28813143D01*
X47123511Y28807548D01*
X47125928Y28802306D01*
X47125928Y28802305D01*
X47164046Y28719621D01*
X47215883Y28607179D01*
X47343222Y28426998D01*
X47347356Y28422971D01*
X47350453Y28419954D01*
X47385291Y28358092D01*
X47381154Y28287216D01*
X47351628Y28240604D01*
X46678946Y27567921D01*
X46675136Y27564268D01*
X46629444Y27522252D01*
X46606501Y27485249D01*
X46599800Y27475499D01*
X46573488Y27440834D01*
X46567954Y27426856D01*
X46557893Y27406852D01*
X46549965Y27394065D01*
X46547568Y27385814D01*
X46547567Y27385812D01*
X46537825Y27352279D01*
X46533980Y27341049D01*
X46517964Y27300598D01*
X46517066Y27292057D01*
X46517066Y27292056D01*
X46516392Y27285643D01*
X46512080Y27263668D01*
X46507885Y27249226D01*
X46507100Y27238536D01*
X46507100Y27203834D01*
X46506410Y27190664D01*
X46502199Y27150597D01*
X46503631Y27142132D01*
X46503631Y27142123D01*
X46505335Y27132051D01*
X46507100Y27111038D01*
X46507100Y26186942D01*
X46506989Y26181666D01*
X46504390Y26119655D01*
X46506352Y26111290D01*
X46514327Y26077287D01*
X46516490Y26065616D01*
X46522394Y26022517D01*
X46525806Y26014633D01*
X46525806Y26014632D01*
X46528365Y26008719D01*
X46535399Y25987450D01*
X46538832Y25972813D01*
X46542969Y25965288D01*
X46542970Y25965285D01*
X46559795Y25934681D01*
X46565011Y25924036D01*
X46582295Y25884094D01*
X46591758Y25872408D01*
X46604245Y25853824D01*
X46611493Y25840641D01*
X46618497Y25832527D01*
X46643033Y25807991D01*
X46651858Y25798190D01*
X46669755Y25776090D01*
X46677214Y25766879D01*
X46684213Y25761905D01*
X46684214Y25761904D01*
X46692546Y25755983D01*
X46708651Y25742373D01*
X46884293Y25566732D01*
X47037595Y25413430D01*
X47071620Y25351117D01*
X47074500Y25324334D01*
X47074500Y9805215D01*
X47054498Y9737094D01*
X47037595Y9716120D01*
X45523881Y8202405D01*
X45461569Y8168380D01*
X45434786Y8165500D01*
X3050511Y8165500D01*
X2982390Y8185502D01*
X2937507Y8235768D01*
X2935536Y8239764D01*
X2935535Y8239766D01*
X2932980Y8244947D01*
X2800967Y8421733D01*
X2638949Y8571501D01*
X2453702Y8688383D01*
X2453700Y8688385D01*
X2452350Y8689236D01*
X2452517Y8689501D01*
X2403071Y8736198D01*
X2386002Y8805112D01*
X2408901Y8872314D01*
X2456454Y8912871D01*
X2598095Y8982261D01*
X2606945Y8987536D01*
X2780328Y9111208D01*
X2788200Y9117861D01*
X2939052Y9268188D01*
X2945730Y9276035D01*
X3070003Y9448980D01*
X3075313Y9457817D01*
X3169670Y9648733D01*
X3173469Y9658328D01*
X3235377Y9862090D01*
X3237555Y9872163D01*
X3238986Y9883038D01*
X3236775Y9897222D01*
X3223617Y9901000D01*
X588225Y9901000D01*
X574694Y9897027D01*
X573257Y9887034D01*
X603565Y9752554D01*
X606645Y9742725D01*
X686770Y9545397D01*
X691413Y9536206D01*
X802694Y9354612D01*
X808777Y9346301D01*
X948213Y9185333D01*
X955580Y9178117D01*
X1119434Y9042084D01*
X1127881Y9036169D01*
X1311756Y8928721D01*
X1321043Y8924271D01*
X1343682Y8915626D01*
X1400186Y8872638D01*
X1424478Y8805927D01*
X1408847Y8736672D01*
X1363156Y8689631D01*
X1357307Y8686151D01*
X1196341Y8590386D01*
X1030457Y8444910D01*
X893863Y8271640D01*
X791131Y8076380D01*
X725703Y7865667D01*
X699770Y7646560D01*
X714200Y7426396D01*
X715621Y7420800D01*
X715622Y7420795D01*
X761128Y7241617D01*
X768511Y7212548D01*
X770928Y7207306D01*
X770928Y7207305D01*
X809046Y7124621D01*
X860883Y7012179D01*
X988222Y6831998D01*
X1146264Y6678039D01*
X1151060Y6674834D01*
X1151063Y6674832D01*
X1297226Y6577170D01*
X1329717Y6555460D01*
X1335020Y6553182D01*
X1335023Y6553180D01*
X1527129Y6470645D01*
X1532436Y6468365D01*
X1538071Y6467090D01*
X1538074Y6467089D01*
X1539484Y6466770D01*
X1540083Y6466436D01*
X1543562Y6465306D01*
X1543340Y6464623D01*
X1601511Y6432228D01*
X1635016Y6369634D01*
X1629362Y6298863D01*
X1586344Y6242384D01*
X1555287Y6225665D01*
X1391376Y6165196D01*
X1391368Y6165192D01*
X1385957Y6163196D01*
X1196341Y6050386D01*
X1030457Y5904910D01*
X893863Y5731640D01*
X791131Y5536380D01*
X725703Y5325667D01*
X699770Y5106560D01*
X714200Y4886396D01*
X715621Y4880800D01*
X715622Y4880795D01*
X761128Y4701617D01*
X768511Y4672548D01*
X770928Y4667306D01*
X770928Y4667305D01*
X809046Y4584621D01*
X860883Y4472179D01*
X988222Y4291998D01*
X1146264Y4138039D01*
X1151060Y4134834D01*
X1151063Y4134832D01*
X1297226Y4037170D01*
X1329717Y4015460D01*
X1335020Y4013182D01*
X1335023Y4013180D01*
X1527129Y3930645D01*
X1532436Y3928365D01*
X1538071Y3927090D01*
X1538074Y3927089D01*
X1539484Y3926770D01*
X1540083Y3926436D01*
X1543562Y3925306D01*
X1543340Y3924623D01*
X1601511Y3892228D01*
X1635016Y3829634D01*
X1629362Y3758863D01*
X1586344Y3702384D01*
X1555287Y3685665D01*
X1391376Y3625196D01*
X1391368Y3625192D01*
X1385957Y3623196D01*
X1196341Y3510386D01*
X1030457Y3364910D01*
X893863Y3191640D01*
X791131Y2996380D01*
X725703Y2785667D01*
X699770Y2566560D01*
X714200Y2346396D01*
X715621Y2340800D01*
X715622Y2340795D01*
X761128Y2161617D01*
X768511Y2132548D01*
X770928Y2127306D01*
X770928Y2127305D01*
X809046Y2044621D01*
X860883Y1932179D01*
X988222Y1751998D01*
X1146264Y1598039D01*
X1151060Y1594834D01*
X1151063Y1594832D01*
X1235261Y1538573D01*
X1329717Y1475460D01*
X1335020Y1473182D01*
X1335023Y1473180D01*
X1527129Y1390645D01*
X1532436Y1388365D01*
X1612088Y1370342D01*
X1741995Y1340946D01*
X1742001Y1340945D01*
X1747632Y1339671D01*
X1753403Y1339444D01*
X1753405Y1339444D01*
X1821211Y1336780D01*
X1968098Y1331009D01*
X2077275Y1346839D01*
X2180738Y1361840D01*
X2180743Y1361841D01*
X2186452Y1362669D01*
X2191916Y1364524D01*
X2191921Y1364525D01*
X2389907Y1431732D01*
X2389912Y1431734D01*
X2395379Y1433590D01*
X2587884Y1541398D01*
X2757518Y1682482D01*
X2898602Y1852116D01*
X2901426Y1857158D01*
X2936657Y1920067D01*
X2987394Y1969728D01*
X3046591Y1984500D01*
X49510007Y1984500D01*
X49515284Y1984389D01*
X49577294Y1981790D01*
X49588848Y1984500D01*
X49619662Y1991727D01*
X49631333Y1993890D01*
X49646229Y1995931D01*
X49674432Y1999794D01*
X49688230Y2005765D01*
X49709499Y2012799D01*
X49715775Y2014271D01*
X49724136Y2016232D01*
X49731661Y2020369D01*
X49731664Y2020370D01*
X49762268Y2037195D01*
X49772913Y2042411D01*
X49812855Y2059695D01*
X49824541Y2069158D01*
X49843126Y2081646D01*
X49850518Y2085710D01*
X49856308Y2088893D01*
X49864422Y2095897D01*
X49888958Y2120433D01*
X49898759Y2129258D01*
X49923392Y2149206D01*
X49923393Y2149207D01*
X49930070Y2154614D01*
X49935043Y2161612D01*
X49935048Y2161617D01*
X49940968Y2169948D01*
X49954579Y2186054D01*
X50335085Y2566560D01*
X68009770Y2566560D01*
X68024200Y2346396D01*
X68025621Y2340800D01*
X68025622Y2340795D01*
X68071128Y2161617D01*
X68078511Y2132548D01*
X68080928Y2127306D01*
X68080928Y2127305D01*
X68119046Y2044621D01*
X68170883Y1932179D01*
X68298222Y1751998D01*
X68456264Y1598039D01*
X68461060Y1594834D01*
X68461063Y1594832D01*
X68545261Y1538573D01*
X68639717Y1475460D01*
X68645020Y1473182D01*
X68645023Y1473180D01*
X68837129Y1390645D01*
X68842436Y1388365D01*
X68922088Y1370342D01*
X69051995Y1340946D01*
X69052001Y1340945D01*
X69057632Y1339671D01*
X69063403Y1339444D01*
X69063405Y1339444D01*
X69131211Y1336780D01*
X69278098Y1331009D01*
X69387275Y1346839D01*
X69490738Y1361840D01*
X69490743Y1361841D01*
X69496452Y1362669D01*
X69501916Y1364524D01*
X69501921Y1364525D01*
X69699907Y1431732D01*
X69699912Y1431734D01*
X69705379Y1433590D01*
X69897884Y1541398D01*
X70067518Y1682482D01*
X70204909Y1847675D01*
X70204910Y1847677D01*
X70208602Y1852116D01*
X70282322Y1983752D01*
X70313586Y2039578D01*
X70313587Y2039580D01*
X70316410Y2044621D01*
X70318266Y2050088D01*
X70318268Y2050093D01*
X70385475Y2248079D01*
X70385476Y2248084D01*
X70387331Y2253548D01*
X70388159Y2259257D01*
X70388160Y2259262D01*
X70418458Y2468228D01*
X70418991Y2471902D01*
X70420643Y2535000D01*
X70400454Y2754711D01*
X70340565Y2967064D01*
X70242980Y3164947D01*
X70110967Y3341733D01*
X69948949Y3491501D01*
X69762350Y3609236D01*
X69559955Y3689983D01*
X69504096Y3733804D01*
X69480795Y3800868D01*
X69497451Y3869883D01*
X69548775Y3918937D01*
X69566144Y3926326D01*
X69699907Y3971732D01*
X69699912Y3971734D01*
X69705379Y3973590D01*
X69897884Y4081398D01*
X69909188Y4090799D01*
X70063086Y4218796D01*
X70067518Y4222482D01*
X70179802Y4357488D01*
X70204908Y4387674D01*
X70204910Y4387677D01*
X70208602Y4392116D01*
X70282322Y4523752D01*
X70313586Y4579578D01*
X70313587Y4579580D01*
X70316410Y4584621D01*
X70318266Y4590088D01*
X70318268Y4590093D01*
X70385475Y4788079D01*
X70385476Y4788084D01*
X70387331Y4793548D01*
X70388159Y4799257D01*
X70388160Y4799262D01*
X70418458Y5008228D01*
X70418991Y5011902D01*
X70420643Y5075000D01*
X70400454Y5294711D01*
X70340565Y5507064D01*
X70242980Y5704947D01*
X70110967Y5881733D01*
X69948949Y6031501D01*
X69762350Y6149236D01*
X69559955Y6229983D01*
X69504096Y6273804D01*
X69480795Y6340868D01*
X69497451Y6409883D01*
X69548775Y6458937D01*
X69566144Y6466326D01*
X69699907Y6511732D01*
X69699912Y6511734D01*
X69705379Y6513590D01*
X69897884Y6621398D01*
X69909188Y6630799D01*
X70063086Y6758796D01*
X70067518Y6762482D01*
X70179802Y6897488D01*
X70204908Y6927674D01*
X70204910Y6927677D01*
X70208602Y6932116D01*
X70282322Y7063752D01*
X70313586Y7119578D01*
X70313587Y7119580D01*
X70316410Y7124621D01*
X70318266Y7130088D01*
X70318268Y7130093D01*
X70385475Y7328079D01*
X70385476Y7328084D01*
X70387331Y7333548D01*
X70388159Y7339257D01*
X70388160Y7339262D01*
X70418458Y7548228D01*
X70418991Y7551902D01*
X70420643Y7615000D01*
X70400454Y7834711D01*
X70340565Y8047064D01*
X70242980Y8244947D01*
X70110967Y8421733D01*
X69948949Y8571501D01*
X69762350Y8689236D01*
X69559955Y8769983D01*
X69504096Y8813804D01*
X69480795Y8880868D01*
X69497451Y8949883D01*
X69548775Y8998937D01*
X69566144Y9006326D01*
X69699907Y9051732D01*
X69699912Y9051734D01*
X69705379Y9053590D01*
X69897884Y9161398D01*
X69909188Y9170799D01*
X70063086Y9298796D01*
X70067518Y9302482D01*
X70179802Y9437488D01*
X70204908Y9467674D01*
X70204910Y9467677D01*
X70208602Y9472116D01*
X70316410Y9664621D01*
X70318266Y9670088D01*
X70318268Y9670093D01*
X70385475Y9868079D01*
X70385476Y9868084D01*
X70387331Y9873548D01*
X70388159Y9879257D01*
X70388160Y9879262D01*
X70418458Y10088228D01*
X70418991Y10091902D01*
X70420643Y10155000D01*
X70400454Y10374711D01*
X70340565Y10587064D01*
X70242980Y10784947D01*
X70110967Y10961733D01*
X69948949Y11111501D01*
X69762350Y11229236D01*
X69722348Y11245195D01*
X69706620Y11251470D01*
X69650760Y11295291D01*
X69627460Y11362355D01*
X69644116Y11431370D01*
X69695440Y11480424D01*
X69753310Y11494500D01*
X70098218Y11494500D01*
X70102768Y11495170D01*
X70102771Y11495170D01*
X70157426Y11503216D01*
X70157427Y11503216D01*
X70167112Y11504642D01*
X70261804Y11551133D01*
X70262507Y11551478D01*
X70262509Y11551479D01*
X70271855Y11556068D01*
X70354293Y11638650D01*
X70405536Y11743482D01*
X70415500Y11811782D01*
X70415500Y13578218D01*
X70406871Y13636838D01*
X70406784Y13637426D01*
X70406784Y13637427D01*
X70405358Y13647112D01*
X70353932Y13751855D01*
X70271350Y13834293D01*
X70166518Y13885536D01*
X70136027Y13889984D01*
X70102744Y13894840D01*
X70102740Y13894840D01*
X70098218Y13895500D01*
X68331782Y13895500D01*
X68327232Y13894830D01*
X68327229Y13894830D01*
X68272574Y13886784D01*
X68272573Y13886784D01*
X68262888Y13885358D01*
X68212992Y13860860D01*
X68167493Y13838522D01*
X68167491Y13838521D01*
X68158145Y13833932D01*
X68075707Y13751350D01*
X68024464Y13646518D01*
X68014500Y13578218D01*
X68014500Y11811782D01*
X68015170Y11807232D01*
X68015170Y11807229D01*
X68023216Y11752574D01*
X68024642Y11742888D01*
X68076068Y11638145D01*
X68158650Y11555707D01*
X68263482Y11504464D01*
X68293973Y11500016D01*
X68327256Y11495160D01*
X68327260Y11495160D01*
X68331782Y11494500D01*
X68671570Y11494500D01*
X68739691Y11474498D01*
X68786184Y11420842D01*
X68796288Y11350568D01*
X68766794Y11285988D01*
X68715180Y11250288D01*
X68706382Y11247042D01*
X68695957Y11243196D01*
X68690996Y11240244D01*
X68690995Y11240244D01*
X68573350Y11170252D01*
X68506341Y11130386D01*
X68340457Y10984910D01*
X68203863Y10811640D01*
X68101131Y10616380D01*
X68035703Y10405667D01*
X68009770Y10186560D01*
X68024200Y9966396D01*
X68025621Y9960800D01*
X68025622Y9960795D01*
X68065135Y9805215D01*
X68078511Y9752548D01*
X68080928Y9747306D01*
X68080928Y9747305D01*
X68119046Y9664621D01*
X68170883Y9552179D01*
X68298222Y9371998D01*
X68456264Y9218039D01*
X68461060Y9214834D01*
X68461063Y9214832D01*
X68606191Y9117861D01*
X68639717Y9095460D01*
X68645020Y9093182D01*
X68645023Y9093180D01*
X68763953Y9042084D01*
X68842436Y9008365D01*
X68848071Y9007090D01*
X68848074Y9007089D01*
X68849484Y9006770D01*
X68850083Y9006436D01*
X68853562Y9005306D01*
X68853340Y9004623D01*
X68911511Y8972228D01*
X68945016Y8909634D01*
X68939362Y8838863D01*
X68896344Y8782384D01*
X68865287Y8765665D01*
X68701376Y8705196D01*
X68701368Y8705192D01*
X68695957Y8703196D01*
X68506341Y8590386D01*
X68340457Y8444910D01*
X68203863Y8271640D01*
X68101131Y8076380D01*
X68035703Y7865667D01*
X68009770Y7646560D01*
X68024200Y7426396D01*
X68025621Y7420800D01*
X68025622Y7420795D01*
X68071128Y7241617D01*
X68078511Y7212548D01*
X68080928Y7207306D01*
X68080928Y7207305D01*
X68119046Y7124621D01*
X68170883Y7012179D01*
X68298222Y6831998D01*
X68456264Y6678039D01*
X68461060Y6674834D01*
X68461063Y6674832D01*
X68607226Y6577170D01*
X68639717Y6555460D01*
X68645020Y6553182D01*
X68645023Y6553180D01*
X68837129Y6470645D01*
X68842436Y6468365D01*
X68848071Y6467090D01*
X68848074Y6467089D01*
X68849484Y6466770D01*
X68850083Y6466436D01*
X68853562Y6465306D01*
X68853340Y6464623D01*
X68911511Y6432228D01*
X68945016Y6369634D01*
X68939362Y6298863D01*
X68896344Y6242384D01*
X68865287Y6225665D01*
X68701376Y6165196D01*
X68701368Y6165192D01*
X68695957Y6163196D01*
X68506341Y6050386D01*
X68340457Y5904910D01*
X68203863Y5731640D01*
X68101131Y5536380D01*
X68035703Y5325667D01*
X68009770Y5106560D01*
X68024200Y4886396D01*
X68025621Y4880800D01*
X68025622Y4880795D01*
X68071128Y4701617D01*
X68078511Y4672548D01*
X68080928Y4667306D01*
X68080928Y4667305D01*
X68119046Y4584621D01*
X68170883Y4472179D01*
X68298222Y4291998D01*
X68456264Y4138039D01*
X68461060Y4134834D01*
X68461063Y4134832D01*
X68607226Y4037170D01*
X68639717Y4015460D01*
X68645020Y4013182D01*
X68645023Y4013180D01*
X68837129Y3930645D01*
X68842436Y3928365D01*
X68848071Y3927090D01*
X68848074Y3927089D01*
X68849484Y3926770D01*
X68850083Y3926436D01*
X68853562Y3925306D01*
X68853340Y3924623D01*
X68911511Y3892228D01*
X68945016Y3829634D01*
X68939362Y3758863D01*
X68896344Y3702384D01*
X68865287Y3685665D01*
X68701376Y3625196D01*
X68701368Y3625192D01*
X68695957Y3623196D01*
X68506341Y3510386D01*
X68340457Y3364910D01*
X68203863Y3191640D01*
X68101131Y2996380D01*
X68035703Y2785667D01*
X68009770Y2566560D01*
X50335085Y2566560D01*
X51813642Y4045118D01*
X51817451Y4048771D01*
X51849860Y4078573D01*
X51863156Y4090799D01*
X51886099Y4127802D01*
X51892800Y4137552D01*
X51919112Y4172217D01*
X51924646Y4186196D01*
X51934707Y4206199D01*
X51942635Y4218986D01*
X51954775Y4260772D01*
X51958621Y4272005D01*
X51974636Y4312453D01*
X51976208Y4327408D01*
X51980520Y4349383D01*
X51984715Y4363825D01*
X51985500Y4374515D01*
X51985500Y4409217D01*
X51986190Y4422387D01*
X51989503Y4453912D01*
X51990401Y4462454D01*
X51988969Y4470919D01*
X51988969Y4470928D01*
X51987265Y4481000D01*
X51985500Y4502013D01*
X51985500Y16540246D01*
X54089967Y16540246D01*
X54103796Y16329251D01*
X54105217Y16323655D01*
X54105218Y16323650D01*
X54127784Y16234800D01*
X54155845Y16124310D01*
X54244369Y15932286D01*
X54366405Y15759609D01*
X54517865Y15612063D01*
X54522661Y15608858D01*
X54522664Y15608856D01*
X54665936Y15513125D01*
X54693677Y15494589D01*
X54698985Y15492308D01*
X54698986Y15492308D01*
X54882650Y15413400D01*
X54882653Y15413399D01*
X54887953Y15411122D01*
X54893582Y15409848D01*
X54893583Y15409848D01*
X55088550Y15365731D01*
X55088553Y15365731D01*
X55094186Y15364456D01*
X55099957Y15364229D01*
X55099959Y15364229D01*
X55161989Y15361792D01*
X55305470Y15356154D01*
X55311179Y15356982D01*
X55311183Y15356982D01*
X55509015Y15385667D01*
X55509019Y15385668D01*
X55514730Y15386496D01*
X55593987Y15413400D01*
X55709483Y15452605D01*
X55709488Y15452607D01*
X55714955Y15454463D01*
X55719998Y15457287D01*
X55894395Y15554954D01*
X55894399Y15554957D01*
X55899442Y15557781D01*
X56062012Y15692988D01*
X56197219Y15855558D01*
X56200043Y15860601D01*
X56200046Y15860605D01*
X56297713Y16035002D01*
X56297714Y16035004D01*
X56300537Y16040045D01*
X56302393Y16045512D01*
X56302395Y16045517D01*
X56366647Y16234800D01*
X56368504Y16240270D01*
X56398846Y16449530D01*
X56400429Y16510000D01*
X56381081Y16720560D01*
X56323686Y16924069D01*
X56312553Y16946646D01*
X56232719Y17108531D01*
X56230165Y17113710D01*
X56103651Y17283133D01*
X55948381Y17426663D01*
X55769554Y17539495D01*
X55573160Y17617848D01*
X55567503Y17618973D01*
X55567497Y17618975D01*
X55371442Y17657972D01*
X55371440Y17657972D01*
X55365775Y17659099D01*
X55360000Y17659175D01*
X55359996Y17659175D01*
X55253976Y17660563D01*
X55154346Y17661867D01*
X55148649Y17660888D01*
X55148648Y17660888D01*
X54951650Y17627038D01*
X54951649Y17627038D01*
X54945953Y17626059D01*
X54747575Y17552873D01*
X54742614Y17549921D01*
X54742613Y17549921D01*
X54725089Y17539495D01*
X54565856Y17444762D01*
X54406881Y17305345D01*
X54275976Y17139292D01*
X54273287Y17134181D01*
X54273285Y17134178D01*
X54259792Y17108531D01*
X54177523Y16952164D01*
X54114820Y16750227D01*
X54089967Y16540246D01*
X51985500Y16540246D01*
X51985500Y19715246D01*
X54089967Y19715246D01*
X54103796Y19504251D01*
X54105217Y19498655D01*
X54105218Y19498650D01*
X54127784Y19409800D01*
X54155845Y19299310D01*
X54244369Y19107286D01*
X54366405Y18934609D01*
X54517865Y18787063D01*
X54522661Y18783858D01*
X54522664Y18783856D01*
X54665936Y18688125D01*
X54693677Y18669589D01*
X54698985Y18667308D01*
X54698986Y18667308D01*
X54882650Y18588400D01*
X54882653Y18588399D01*
X54887953Y18586122D01*
X54893582Y18584848D01*
X54893583Y18584848D01*
X55088550Y18540731D01*
X55088553Y18540731D01*
X55094186Y18539456D01*
X55099957Y18539229D01*
X55099959Y18539229D01*
X55161989Y18536792D01*
X55305470Y18531154D01*
X55311179Y18531982D01*
X55311183Y18531982D01*
X55509015Y18560667D01*
X55509019Y18560668D01*
X55514730Y18561496D01*
X55593987Y18588400D01*
X55709483Y18627605D01*
X55709488Y18627607D01*
X55714955Y18629463D01*
X55719998Y18632287D01*
X55894395Y18729954D01*
X55894399Y18729957D01*
X55899442Y18732781D01*
X56062012Y18867988D01*
X56197219Y19030558D01*
X56200043Y19035601D01*
X56200046Y19035605D01*
X56297713Y19210002D01*
X56297714Y19210004D01*
X56300537Y19215045D01*
X56302393Y19220512D01*
X56302395Y19220517D01*
X56366647Y19409800D01*
X56368504Y19415270D01*
X56382242Y19510018D01*
X56390090Y19564140D01*
X56419660Y19628685D01*
X56479432Y19666997D01*
X56550429Y19666913D01*
X56610109Y19628458D01*
X56639525Y19563842D01*
X56640515Y19554305D01*
X56643796Y19504251D01*
X56645217Y19498655D01*
X56645218Y19498650D01*
X56667784Y19409800D01*
X56695845Y19299310D01*
X56784369Y19107286D01*
X56906405Y18934609D01*
X57057865Y18787063D01*
X57062661Y18783858D01*
X57062664Y18783856D01*
X57205936Y18688125D01*
X57233677Y18669589D01*
X57238985Y18667308D01*
X57238986Y18667308D01*
X57422650Y18588400D01*
X57422653Y18588399D01*
X57427953Y18586122D01*
X57433582Y18584848D01*
X57433583Y18584848D01*
X57628550Y18540731D01*
X57628553Y18540731D01*
X57634186Y18539456D01*
X57639957Y18539229D01*
X57639959Y18539229D01*
X57701989Y18536792D01*
X57845470Y18531154D01*
X57851179Y18531982D01*
X57851183Y18531982D01*
X58049015Y18560667D01*
X58049019Y18560668D01*
X58054730Y18561496D01*
X58133987Y18588400D01*
X58249483Y18627605D01*
X58249488Y18627607D01*
X58254955Y18629463D01*
X58259998Y18632287D01*
X58434395Y18729954D01*
X58434399Y18729957D01*
X58439442Y18732781D01*
X58602012Y18867988D01*
X58737219Y19030558D01*
X58740043Y19035601D01*
X58740046Y19035605D01*
X58837713Y19210002D01*
X58837714Y19210004D01*
X58840537Y19215045D01*
X58842393Y19220512D01*
X58842395Y19220517D01*
X58906647Y19409800D01*
X58908504Y19415270D01*
X58922243Y19510019D01*
X58938314Y19620860D01*
X58938314Y19620862D01*
X58938846Y19624530D01*
X58940429Y19685000D01*
X58937650Y19715246D01*
X66789967Y19715246D01*
X66803796Y19504251D01*
X66805217Y19498655D01*
X66805218Y19498650D01*
X66827784Y19409800D01*
X66855845Y19299310D01*
X66944369Y19107286D01*
X67066405Y18934609D01*
X67217865Y18787063D01*
X67222661Y18783858D01*
X67222664Y18783856D01*
X67365936Y18688125D01*
X67393677Y18669589D01*
X67398985Y18667308D01*
X67398986Y18667308D01*
X67582650Y18588400D01*
X67582653Y18588399D01*
X67587953Y18586122D01*
X67593582Y18584848D01*
X67593583Y18584848D01*
X67788550Y18540731D01*
X67788553Y18540731D01*
X67794186Y18539456D01*
X67799957Y18539229D01*
X67799959Y18539229D01*
X67861989Y18536792D01*
X68005470Y18531154D01*
X68011179Y18531982D01*
X68011183Y18531982D01*
X68209015Y18560667D01*
X68209019Y18560668D01*
X68214730Y18561496D01*
X68293987Y18588400D01*
X68409483Y18627605D01*
X68409488Y18627607D01*
X68414955Y18629463D01*
X68419998Y18632287D01*
X68594395Y18729954D01*
X68594399Y18729957D01*
X68599442Y18732781D01*
X68762012Y18867988D01*
X68897219Y19030558D01*
X68900043Y19035601D01*
X68900046Y19035605D01*
X68997713Y19210002D01*
X68997714Y19210004D01*
X69000537Y19215045D01*
X69002393Y19220512D01*
X69002395Y19220517D01*
X69066647Y19409800D01*
X69068504Y19415270D01*
X69082243Y19510019D01*
X69098314Y19620860D01*
X69098314Y19620862D01*
X69098846Y19624530D01*
X69100429Y19685000D01*
X69081081Y19895560D01*
X69023686Y20099069D01*
X69012553Y20121646D01*
X68932719Y20283531D01*
X68930165Y20288710D01*
X68803651Y20458133D01*
X68648381Y20601663D01*
X68469554Y20714495D01*
X68273160Y20792848D01*
X68267503Y20793973D01*
X68267497Y20793975D01*
X68071442Y20832972D01*
X68071440Y20832972D01*
X68065775Y20834099D01*
X68060000Y20834175D01*
X68059996Y20834175D01*
X67953976Y20835563D01*
X67854346Y20836867D01*
X67848649Y20835888D01*
X67848648Y20835888D01*
X67651650Y20802038D01*
X67651649Y20802038D01*
X67645953Y20801059D01*
X67447575Y20727873D01*
X67442614Y20724921D01*
X67442613Y20724921D01*
X67425089Y20714495D01*
X67265856Y20619762D01*
X67106881Y20480345D01*
X66975976Y20314292D01*
X66973287Y20309181D01*
X66973285Y20309178D01*
X66959792Y20283531D01*
X66877523Y20127164D01*
X66814820Y19925227D01*
X66789967Y19715246D01*
X58937650Y19715246D01*
X58921081Y19895560D01*
X58863686Y20099069D01*
X58852553Y20121646D01*
X58772719Y20283531D01*
X58770165Y20288710D01*
X58643651Y20458133D01*
X58488381Y20601663D01*
X58309554Y20714495D01*
X58113160Y20792848D01*
X58107503Y20793973D01*
X58107497Y20793975D01*
X57911442Y20832972D01*
X57911440Y20832972D01*
X57905775Y20834099D01*
X57900000Y20834175D01*
X57899996Y20834175D01*
X57793976Y20835563D01*
X57694346Y20836867D01*
X57688649Y20835888D01*
X57688648Y20835888D01*
X57491650Y20802038D01*
X57491649Y20802038D01*
X57485953Y20801059D01*
X57287575Y20727873D01*
X57282614Y20724921D01*
X57282613Y20724921D01*
X57265089Y20714495D01*
X57105856Y20619762D01*
X56946881Y20480345D01*
X56815976Y20314292D01*
X56813287Y20309181D01*
X56813285Y20309178D01*
X56799792Y20283531D01*
X56717523Y20127164D01*
X56654820Y19925227D01*
X56654141Y19919490D01*
X56640088Y19800761D01*
X56612217Y19735463D01*
X56553469Y19695599D01*
X56482494Y19693826D01*
X56421828Y19730705D01*
X56390730Y19794529D01*
X56389490Y19804042D01*
X56381610Y19889803D01*
X56381081Y19895560D01*
X56323686Y20099069D01*
X56312553Y20121646D01*
X56232719Y20283531D01*
X56230165Y20288710D01*
X56103651Y20458133D01*
X55948381Y20601663D01*
X55769554Y20714495D01*
X55573160Y20792848D01*
X55567503Y20793973D01*
X55567497Y20793975D01*
X55371442Y20832972D01*
X55371440Y20832972D01*
X55365775Y20834099D01*
X55360000Y20834175D01*
X55359996Y20834175D01*
X55253976Y20835563D01*
X55154346Y20836867D01*
X55148649Y20835888D01*
X55148648Y20835888D01*
X54951650Y20802038D01*
X54951649Y20802038D01*
X54945953Y20801059D01*
X54747575Y20727873D01*
X54742614Y20724921D01*
X54742613Y20724921D01*
X54725089Y20714495D01*
X54565856Y20619762D01*
X54406881Y20480345D01*
X54275976Y20314292D01*
X54273287Y20309181D01*
X54273285Y20309178D01*
X54259792Y20283531D01*
X54177523Y20127164D01*
X54114820Y19925227D01*
X54089967Y19715246D01*
X51985500Y19715246D01*
X51985500Y22890246D01*
X54114967Y22890246D01*
X54128796Y22679251D01*
X54130217Y22673655D01*
X54130218Y22673650D01*
X54152784Y22584800D01*
X54180845Y22474310D01*
X54269369Y22282286D01*
X54391405Y22109609D01*
X54542865Y21962063D01*
X54547661Y21958858D01*
X54547664Y21958856D01*
X54690936Y21863125D01*
X54718677Y21844589D01*
X54723985Y21842308D01*
X54723986Y21842308D01*
X54907650Y21763400D01*
X54907653Y21763399D01*
X54912953Y21761122D01*
X54918582Y21759848D01*
X54918583Y21759848D01*
X55113550Y21715731D01*
X55113553Y21715731D01*
X55119186Y21714456D01*
X55124957Y21714229D01*
X55124959Y21714229D01*
X55186989Y21711792D01*
X55330470Y21706154D01*
X55336179Y21706982D01*
X55336183Y21706982D01*
X55534015Y21735667D01*
X55534019Y21735668D01*
X55539730Y21736496D01*
X55618987Y21763400D01*
X55734483Y21802605D01*
X55734488Y21802607D01*
X55739955Y21804463D01*
X55744998Y21807287D01*
X55919395Y21904954D01*
X55919399Y21904957D01*
X55924442Y21907781D01*
X56087012Y22042988D01*
X56222219Y22205558D01*
X56225043Y22210601D01*
X56225046Y22210605D01*
X56322713Y22385002D01*
X56322714Y22385004D01*
X56325537Y22390045D01*
X56327393Y22395512D01*
X56327395Y22395517D01*
X56391647Y22584800D01*
X56393504Y22590270D01*
X56401785Y22647384D01*
X56431355Y22711928D01*
X56491126Y22750241D01*
X56562123Y22750157D01*
X56621803Y22711702D01*
X56648604Y22660319D01*
X56667784Y22584800D01*
X56695845Y22474310D01*
X56784369Y22282286D01*
X56906405Y22109609D01*
X57057865Y21962063D01*
X57062661Y21958858D01*
X57062664Y21958856D01*
X57205936Y21863125D01*
X57233677Y21844589D01*
X57238985Y21842308D01*
X57238986Y21842308D01*
X57422650Y21763400D01*
X57422653Y21763399D01*
X57427953Y21761122D01*
X57433582Y21759848D01*
X57433583Y21759848D01*
X57628550Y21715731D01*
X57628553Y21715731D01*
X57634186Y21714456D01*
X57639957Y21714229D01*
X57639959Y21714229D01*
X57701989Y21711792D01*
X57845470Y21706154D01*
X57851179Y21706982D01*
X57851183Y21706982D01*
X58049015Y21735667D01*
X58049019Y21735668D01*
X58054730Y21736496D01*
X58133987Y21763400D01*
X58249483Y21802605D01*
X58249488Y21802607D01*
X58254955Y21804463D01*
X58259998Y21807287D01*
X58434395Y21904954D01*
X58434399Y21904957D01*
X58439442Y21907781D01*
X58602012Y22042988D01*
X58737219Y22205558D01*
X58740043Y22210601D01*
X58740046Y22210605D01*
X58837713Y22385002D01*
X58837714Y22385004D01*
X58840537Y22390045D01*
X58842393Y22395512D01*
X58842395Y22395517D01*
X58906647Y22584800D01*
X58908504Y22590270D01*
X58938846Y22799530D01*
X58940429Y22860000D01*
X58921081Y23070560D01*
X58863686Y23274069D01*
X58852553Y23296646D01*
X58772719Y23458531D01*
X58770165Y23463710D01*
X58643651Y23633133D01*
X58488381Y23776663D01*
X58455014Y23797716D01*
X58314434Y23886416D01*
X58314433Y23886416D01*
X58309554Y23889495D01*
X58113160Y23967848D01*
X58107503Y23968973D01*
X58107497Y23968975D01*
X57911442Y24007972D01*
X57911440Y24007972D01*
X57905775Y24009099D01*
X57900000Y24009175D01*
X57899996Y24009175D01*
X57793976Y24010563D01*
X57694346Y24011867D01*
X57688649Y24010888D01*
X57688648Y24010888D01*
X57491650Y23977038D01*
X57491649Y23977038D01*
X57485953Y23976059D01*
X57287575Y23902873D01*
X57282614Y23899921D01*
X57282613Y23899921D01*
X57265089Y23889495D01*
X57105856Y23794762D01*
X56946881Y23655345D01*
X56815976Y23489292D01*
X56813287Y23484181D01*
X56813285Y23484178D01*
X56799792Y23458531D01*
X56717523Y23302164D01*
X56654820Y23100227D01*
X56654141Y23094490D01*
X56654141Y23094488D01*
X56653165Y23086244D01*
X56625296Y23020946D01*
X56566549Y22981081D01*
X56495575Y22979305D01*
X56434907Y23016183D01*
X56407664Y23071006D01*
X56406081Y23070560D01*
X56350255Y23268504D01*
X56348686Y23274069D01*
X56337553Y23296646D01*
X56257719Y23458531D01*
X56255165Y23463710D01*
X56128651Y23633133D01*
X55973381Y23776663D01*
X55940014Y23797716D01*
X55799434Y23886416D01*
X55799433Y23886416D01*
X55794554Y23889495D01*
X55598160Y23967848D01*
X55592503Y23968973D01*
X55592497Y23968975D01*
X55396442Y24007972D01*
X55396440Y24007972D01*
X55390775Y24009099D01*
X55385000Y24009175D01*
X55384996Y24009175D01*
X55278976Y24010563D01*
X55179346Y24011867D01*
X55173649Y24010888D01*
X55173648Y24010888D01*
X54976650Y23977038D01*
X54976649Y23977038D01*
X54970953Y23976059D01*
X54772575Y23902873D01*
X54767614Y23899921D01*
X54767613Y23899921D01*
X54750089Y23889495D01*
X54590856Y23794762D01*
X54431881Y23655345D01*
X54300976Y23489292D01*
X54298287Y23484181D01*
X54298285Y23484178D01*
X54284792Y23458531D01*
X54202523Y23302164D01*
X54139820Y23100227D01*
X54114967Y22890246D01*
X51985500Y22890246D01*
X51985500Y25528409D01*
X52005502Y25596530D01*
X52049933Y25638343D01*
X52112842Y25673574D01*
X52112845Y25673576D01*
X52117884Y25676398D01*
X52287518Y25817482D01*
X52349475Y25891977D01*
X52424908Y25982674D01*
X52424910Y25982677D01*
X52428602Y25987116D01*
X52507635Y26128240D01*
X52533586Y26174578D01*
X52533587Y26174580D01*
X52536410Y26179621D01*
X52538266Y26185088D01*
X52538268Y26185093D01*
X52605472Y26383071D01*
X52605472Y26383073D01*
X52607331Y26388548D01*
X52608094Y26393812D01*
X52643371Y26455250D01*
X52706397Y26487933D01*
X52777088Y26481353D01*
X52833000Y26437599D01*
X52852661Y26395283D01*
X52879173Y26290893D01*
X52880845Y26284310D01*
X52883262Y26279067D01*
X52926811Y26184602D01*
X52969369Y26092286D01*
X53091405Y25919609D01*
X53242865Y25772063D01*
X53247661Y25768858D01*
X53247664Y25768856D01*
X53380509Y25680092D01*
X53418677Y25654589D01*
X53423985Y25652308D01*
X53423986Y25652308D01*
X53607650Y25573400D01*
X53607653Y25573399D01*
X53612953Y25571122D01*
X53618582Y25569848D01*
X53618583Y25569848D01*
X53813550Y25525731D01*
X53813553Y25525731D01*
X53819186Y25524456D01*
X53824957Y25524229D01*
X53824959Y25524229D01*
X53886989Y25521792D01*
X54030470Y25516154D01*
X54036179Y25516982D01*
X54036183Y25516982D01*
X54234015Y25545667D01*
X54234019Y25545668D01*
X54239730Y25546496D01*
X54329121Y25576840D01*
X54434483Y25612605D01*
X54434488Y25612607D01*
X54439955Y25614463D01*
X54482596Y25638343D01*
X54619395Y25714954D01*
X54619399Y25714957D01*
X54624442Y25717781D01*
X54787012Y25852988D01*
X54922219Y26015558D01*
X54925043Y26020601D01*
X54925046Y26020605D01*
X55022713Y26195002D01*
X55022714Y26195004D01*
X55025537Y26200045D01*
X55027393Y26205512D01*
X55027395Y26205517D01*
X55091267Y26393681D01*
X55093504Y26400270D01*
X55095083Y26411155D01*
X55123314Y26605860D01*
X55123314Y26605862D01*
X55123846Y26609530D01*
X55125429Y26670000D01*
X55106081Y26880560D01*
X55098519Y26907375D01*
X55050255Y27078504D01*
X55048686Y27084069D01*
X55037553Y27106646D01*
X54957719Y27268531D01*
X54955165Y27273710D01*
X54828651Y27443133D01*
X54728286Y27535910D01*
X54677622Y27582743D01*
X54677620Y27582745D01*
X54673381Y27586663D01*
X54494554Y27699495D01*
X54298160Y27777848D01*
X54292503Y27778973D01*
X54292497Y27778975D01*
X54095234Y27818212D01*
X54032324Y27851119D01*
X53997192Y27912814D01*
X54000992Y27983709D01*
X54042517Y28041295D01*
X54101734Y28066487D01*
X54234015Y28085667D01*
X54234019Y28085668D01*
X54239730Y28086496D01*
X54318987Y28113400D01*
X54434483Y28152605D01*
X54434488Y28152607D01*
X54439955Y28154463D01*
X54480198Y28177000D01*
X54619395Y28254954D01*
X54619399Y28254957D01*
X54624442Y28257781D01*
X54787012Y28392988D01*
X54922219Y28555558D01*
X54925043Y28560601D01*
X54925046Y28560605D01*
X55022713Y28735002D01*
X55022714Y28735004D01*
X55025537Y28740045D01*
X55027393Y28745512D01*
X55027395Y28745517D01*
X55091647Y28934800D01*
X55093504Y28940270D01*
X55123846Y29149530D01*
X55125429Y29210000D01*
X55106081Y29420560D01*
X55098519Y29447375D01*
X55061880Y29577286D01*
X55048686Y29624069D01*
X55037553Y29646646D01*
X54957719Y29808531D01*
X54955165Y29813710D01*
X54828651Y29983133D01*
X54673381Y30126663D01*
X54494554Y30239495D01*
X54298160Y30317848D01*
X54292503Y30318973D01*
X54292497Y30318975D01*
X54095234Y30358212D01*
X54032324Y30391119D01*
X53997192Y30452814D01*
X54000992Y30523709D01*
X54042517Y30581295D01*
X54101734Y30606487D01*
X54234015Y30625667D01*
X54234019Y30625668D01*
X54239730Y30626496D01*
X54318987Y30653400D01*
X54434483Y30692605D01*
X54434488Y30692607D01*
X54439955Y30694463D01*
X54444998Y30697287D01*
X54619395Y30794954D01*
X54619399Y30794957D01*
X54624442Y30797781D01*
X54787012Y30932988D01*
X54922219Y31095558D01*
X54925043Y31100601D01*
X54925046Y31100605D01*
X55022713Y31275002D01*
X55022714Y31275004D01*
X55025537Y31280045D01*
X55027393Y31285512D01*
X55027395Y31285517D01*
X55074173Y31423324D01*
X55093504Y31480270D01*
X55094577Y31487665D01*
X55123314Y31685860D01*
X55123314Y31685862D01*
X55123846Y31689530D01*
X55125429Y31750000D01*
X55106081Y31960560D01*
X55098519Y31987375D01*
X55056436Y32136589D01*
X55048686Y32164069D01*
X55042732Y32176144D01*
X54957719Y32348531D01*
X54955165Y32353710D01*
X54828651Y32523133D01*
X54728107Y32616075D01*
X54691662Y32677004D01*
X54693943Y32747964D01*
X54734225Y32806426D01*
X54799720Y32833829D01*
X54813636Y32834600D01*
X67119790Y32834600D01*
X67134598Y32833727D01*
X67166155Y32829992D01*
X67175417Y32831684D01*
X67175426Y32831684D01*
X67220752Y32839963D01*
X67224660Y32840614D01*
X67226689Y32840919D01*
X67279484Y32848856D01*
X67285648Y32851816D01*
X67292377Y32853045D01*
X67341615Y32878622D01*
X67345131Y32880379D01*
X67386659Y32900320D01*
X67386663Y32900322D01*
X67395150Y32904398D01*
X67400172Y32909041D01*
X67406241Y32912193D01*
X67411019Y32916274D01*
X67446194Y32951449D01*
X67449760Y32954879D01*
X67482456Y32985103D01*
X67489371Y32991495D01*
X67492910Y32997587D01*
X67497869Y33003124D01*
X68102690Y33607945D01*
X68165002Y33641971D01*
X68235817Y33636906D01*
X68294681Y33591571D01*
X68328071Y33544326D01*
X68331405Y33539609D01*
X68335539Y33535582D01*
X68458936Y33415374D01*
X68482865Y33392063D01*
X68487661Y33388858D01*
X68487664Y33388856D01*
X68589772Y33320630D01*
X68658677Y33274589D01*
X68663985Y33272308D01*
X68663986Y33272308D01*
X68847650Y33193400D01*
X68847653Y33193399D01*
X68852953Y33191122D01*
X68858582Y33189848D01*
X68858583Y33189848D01*
X69053550Y33145731D01*
X69053553Y33145731D01*
X69059186Y33144456D01*
X69064958Y33144229D01*
X69070687Y33143475D01*
X69070327Y33140743D01*
X69126604Y33121784D01*
X69170950Y33066341D01*
X69178282Y32995724D01*
X69146271Y32932353D01*
X69085081Y32896349D01*
X69075704Y32894368D01*
X68916650Y32867038D01*
X68916649Y32867038D01*
X68910953Y32866059D01*
X68712575Y32792873D01*
X68707614Y32789921D01*
X68707613Y32789921D01*
X68572577Y32709583D01*
X68530856Y32684762D01*
X68371881Y32545345D01*
X68240976Y32379292D01*
X68238287Y32374181D01*
X68238285Y32374178D01*
X68200628Y32302603D01*
X68142523Y32192164D01*
X68079820Y31990227D01*
X68054967Y31780246D01*
X68068796Y31569251D01*
X68070217Y31563655D01*
X68070218Y31563650D01*
X68118191Y31374760D01*
X68120845Y31364310D01*
X68123262Y31359067D01*
X68167151Y31263865D01*
X68209369Y31172286D01*
X68331405Y30999609D01*
X68482865Y30852063D01*
X68487661Y30848858D01*
X68487664Y30848856D01*
X68620509Y30760092D01*
X68658677Y30734589D01*
X68663985Y30732308D01*
X68663986Y30732308D01*
X68847650Y30653400D01*
X68847653Y30653399D01*
X68852953Y30651122D01*
X68858582Y30649848D01*
X68858583Y30649848D01*
X69053550Y30605731D01*
X69053553Y30605731D01*
X69059186Y30604456D01*
X69064958Y30604229D01*
X69070687Y30603475D01*
X69070327Y30600743D01*
X69126604Y30581784D01*
X69170950Y30526341D01*
X69178282Y30455724D01*
X69146271Y30392353D01*
X69085081Y30356349D01*
X69075704Y30354368D01*
X68916650Y30327038D01*
X68916649Y30327038D01*
X68910953Y30326059D01*
X68712575Y30252873D01*
X68707614Y30249921D01*
X68707613Y30249921D01*
X68572577Y30169583D01*
X68530856Y30144762D01*
X68371881Y30005345D01*
X68240976Y29839292D01*
X68238287Y29834181D01*
X68238285Y29834178D01*
X68214110Y29788229D01*
X68142523Y29652164D01*
X68079820Y29450227D01*
X68054967Y29240246D01*
X68068796Y29029251D01*
X68070217Y29023655D01*
X68070218Y29023650D01*
X68119173Y28830893D01*
X68120845Y28824310D01*
X68123262Y28819067D01*
X68169107Y28719621D01*
X68209369Y28632286D01*
X68331405Y28459609D01*
X68355426Y28436209D01*
X68461529Y28332848D01*
X68482865Y28312063D01*
X68487661Y28308858D01*
X68487664Y28308856D01*
X68589811Y28240604D01*
X68658677Y28194589D01*
X68663985Y28192308D01*
X68663986Y28192308D01*
X68847650Y28113400D01*
X68847653Y28113399D01*
X68852953Y28111122D01*
X68858582Y28109848D01*
X68858583Y28109848D01*
X69053550Y28065731D01*
X69053553Y28065731D01*
X69059186Y28064456D01*
X69064958Y28064229D01*
X69070687Y28063475D01*
X69070327Y28060743D01*
X69126604Y28041784D01*
X69170950Y27986341D01*
X69178282Y27915724D01*
X69146271Y27852353D01*
X69085081Y27816349D01*
X69075704Y27814368D01*
X68916650Y27787038D01*
X68916649Y27787038D01*
X68910953Y27786059D01*
X68712575Y27712873D01*
X68707614Y27709921D01*
X68707613Y27709921D01*
X68572577Y27629583D01*
X68530856Y27604762D01*
X68371881Y27465345D01*
X68240976Y27299292D01*
X68238287Y27294181D01*
X68238285Y27294178D01*
X68198655Y27218853D01*
X68142523Y27112164D01*
X68079820Y26910227D01*
X68054967Y26700246D01*
X68068796Y26489251D01*
X68070217Y26483655D01*
X68070218Y26483650D01*
X68119173Y26290893D01*
X68120845Y26284310D01*
X68123262Y26279067D01*
X68166811Y26184602D01*
X68209369Y26092286D01*
X68331405Y25919609D01*
X68482865Y25772063D01*
X68487661Y25768858D01*
X68487664Y25768856D01*
X68620509Y25680092D01*
X68658677Y25654589D01*
X68663985Y25652308D01*
X68663986Y25652308D01*
X68847650Y25573400D01*
X68847653Y25573399D01*
X68852953Y25571122D01*
X68858582Y25569848D01*
X68858583Y25569848D01*
X69053550Y25525731D01*
X69053553Y25525731D01*
X69059186Y25524456D01*
X69064957Y25524229D01*
X69064959Y25524229D01*
X69126989Y25521792D01*
X69270470Y25516154D01*
X69276179Y25516982D01*
X69276183Y25516982D01*
X69474015Y25545667D01*
X69474019Y25545668D01*
X69479730Y25546496D01*
X69592426Y25584751D01*
X69663361Y25587707D01*
X69722022Y25554533D01*
X69789960Y25486595D01*
X69823986Y25424283D01*
X69818921Y25353468D01*
X69789960Y25308405D01*
X68457834Y23976279D01*
X68395522Y23942253D01*
X68322050Y23948343D01*
X68273160Y23967848D01*
X68267503Y23968973D01*
X68267497Y23968975D01*
X68071442Y24007972D01*
X68071440Y24007972D01*
X68065775Y24009099D01*
X68060000Y24009175D01*
X68059996Y24009175D01*
X67953976Y24010563D01*
X67854346Y24011867D01*
X67848649Y24010888D01*
X67848648Y24010888D01*
X67651650Y23977038D01*
X67651649Y23977038D01*
X67645953Y23976059D01*
X67447575Y23902873D01*
X67442614Y23899921D01*
X67442613Y23899921D01*
X67425089Y23889495D01*
X67265856Y23794762D01*
X67106881Y23655345D01*
X66975976Y23489292D01*
X66973287Y23484181D01*
X66973285Y23484178D01*
X66959792Y23458531D01*
X66877523Y23302164D01*
X66814820Y23100227D01*
X66789967Y22890246D01*
X66803796Y22679251D01*
X66805217Y22673655D01*
X66805218Y22673650D01*
X66827784Y22584800D01*
X66855845Y22474310D01*
X66944369Y22282286D01*
X67066405Y22109609D01*
X67217865Y21962063D01*
X67222661Y21958858D01*
X67222664Y21958856D01*
X67365936Y21863125D01*
X67393677Y21844589D01*
X67398985Y21842308D01*
X67398986Y21842308D01*
X67582650Y21763400D01*
X67582653Y21763399D01*
X67587953Y21761122D01*
X67593582Y21759848D01*
X67593583Y21759848D01*
X67788550Y21715731D01*
X67788553Y21715731D01*
X67794186Y21714456D01*
X67799957Y21714229D01*
X67799959Y21714229D01*
X67861989Y21711792D01*
X68005470Y21706154D01*
X68011179Y21706982D01*
X68011183Y21706982D01*
X68209015Y21735667D01*
X68209019Y21735668D01*
X68214730Y21736496D01*
X68293987Y21763400D01*
X68409483Y21802605D01*
X68409488Y21802607D01*
X68414955Y21804463D01*
X68419998Y21807287D01*
X68594395Y21904954D01*
X68594399Y21904957D01*
X68599442Y21907781D01*
X68762012Y22042988D01*
X68897219Y22205558D01*
X68900043Y22210601D01*
X68900046Y22210605D01*
X68997713Y22385002D01*
X68997714Y22385004D01*
X69000537Y22390045D01*
X69002393Y22395512D01*
X69002395Y22395517D01*
X69066647Y22584800D01*
X69068504Y22590270D01*
X69098846Y22799530D01*
X69100429Y22860000D01*
X69081081Y23070560D01*
X69030274Y23250709D01*
X69031035Y23321701D01*
X69062449Y23374004D01*
X70511440Y24822995D01*
X70573752Y24857021D01*
X70600535Y24859900D01*
X71555710Y24859900D01*
X71623831Y24839898D01*
X71670324Y24786242D01*
X71680428Y24715968D01*
X71650934Y24651388D01*
X71644805Y24644805D01*
X71266428Y24266428D01*
X71265859Y24266997D01*
X71264734Y24265334D01*
X71260848Y24262825D01*
X71254400Y24254646D01*
X71251953Y24252419D01*
X71248230Y24248230D01*
X71000000Y24000000D01*
X71000000Y1052190D01*
X70979998Y984069D01*
X70963095Y963095D01*
X70536905Y536905D01*
X70474593Y502879D01*
X70447810Y500000D01*
X552190Y500000D01*
X484069Y520002D01*
X463095Y536905D01*
X36905Y963095D01*
X2879Y1025407D01*
X0Y1052190D01*
X0Y10420817D01*
X569389Y10420817D01*
X570912Y10412393D01*
X583292Y10409000D01*
X3223344Y10409000D01*
X3236875Y10412973D01*
X3238180Y10422053D01*
X3196214Y10589125D01*
X3192894Y10598876D01*
X3107972Y10794186D01*
X3103105Y10803261D01*
X2987426Y10982074D01*
X2981136Y10990243D01*
X2837806Y11147760D01*
X2830273Y11154785D01*
X2684868Y11269618D01*
X2643805Y11327535D01*
X2640573Y11398458D01*
X2676198Y11459870D01*
X2739369Y11492272D01*
X2762960Y11494500D01*
X2788218Y11494500D01*
X2792768Y11495170D01*
X2792771Y11495170D01*
X2847426Y11503216D01*
X2847427Y11503216D01*
X2857112Y11504642D01*
X2951804Y11551133D01*
X2952507Y11551478D01*
X2952509Y11551479D01*
X2961855Y11556068D01*
X3044293Y11638650D01*
X3095536Y11743482D01*
X3105500Y11811782D01*
X3105500Y13578218D01*
X3096871Y13636838D01*
X3096784Y13637426D01*
X3096784Y13637427D01*
X3095358Y13647112D01*
X3043932Y13751855D01*
X2961350Y13834293D01*
X2856518Y13885536D01*
X2826027Y13889984D01*
X2792744Y13894840D01*
X2792740Y13894840D01*
X2788218Y13895500D01*
X1021782Y13895500D01*
X1017232Y13894830D01*
X1017229Y13894830D01*
X962574Y13886784D01*
X962573Y13886784D01*
X952888Y13885358D01*
X902992Y13860860D01*
X857493Y13838522D01*
X857491Y13838521D01*
X848145Y13833932D01*
X765707Y13751350D01*
X714464Y13646518D01*
X704500Y13578218D01*
X704500Y11811782D01*
X705170Y11807232D01*
X705170Y11807229D01*
X713216Y11752574D01*
X714642Y11742888D01*
X766068Y11638145D01*
X848650Y11555707D01*
X953482Y11504464D01*
X983973Y11500016D01*
X1017256Y11495160D01*
X1017260Y11495160D01*
X1021782Y11494500D01*
X1049508Y11494500D01*
X1117629Y11474498D01*
X1164122Y11420842D01*
X1174226Y11350568D01*
X1144732Y11285988D01*
X1125161Y11267740D01*
X1004433Y11177095D01*
X996726Y11170252D01*
X849590Y11016283D01*
X843104Y11008273D01*
X723098Y10832351D01*
X718000Y10823377D01*
X628338Y10630217D01*
X624775Y10620530D01*
X569389Y10420817D01*
X0Y10420817D01*
X0Y13947810D01*
X20002Y14015931D01*
X36905Y14036905D01*
X463095Y14463095D01*
X525407Y14497121D01*
X552190Y14500000D01*
X37000000Y14500000D01*
X37733571Y15233571D01*
X37734140Y15233002D01*
X37735265Y15234665D01*
X37739152Y15237175D01*
X37745600Y15245354D01*
X37748047Y15247581D01*
X37751770Y15251770D01*
X38000000Y15500000D01*
X38000000Y16540246D01*
X43929967Y16540246D01*
X43943796Y16329251D01*
X43945217Y16323655D01*
X43945218Y16323650D01*
X43967784Y16234800D01*
X43995845Y16124310D01*
X44084369Y15932286D01*
X44206405Y15759609D01*
X44357865Y15612063D01*
X44362661Y15608858D01*
X44362664Y15608856D01*
X44505936Y15513125D01*
X44533677Y15494589D01*
X44538985Y15492308D01*
X44538986Y15492308D01*
X44722650Y15413400D01*
X44722653Y15413399D01*
X44727953Y15411122D01*
X44733582Y15409848D01*
X44733583Y15409848D01*
X44928550Y15365731D01*
X44928553Y15365731D01*
X44934186Y15364456D01*
X44939957Y15364229D01*
X44939959Y15364229D01*
X45001989Y15361792D01*
X45145470Y15356154D01*
X45151179Y15356982D01*
X45151183Y15356982D01*
X45349015Y15385667D01*
X45349019Y15385668D01*
X45354730Y15386496D01*
X45433987Y15413400D01*
X45549483Y15452605D01*
X45549488Y15452607D01*
X45554955Y15454463D01*
X45559998Y15457287D01*
X45734395Y15554954D01*
X45734399Y15554957D01*
X45739442Y15557781D01*
X45902012Y15692988D01*
X46037219Y15855558D01*
X46040043Y15860601D01*
X46040046Y15860605D01*
X46137713Y16035002D01*
X46137714Y16035004D01*
X46140537Y16040045D01*
X46142393Y16045512D01*
X46142395Y16045517D01*
X46206647Y16234800D01*
X46208504Y16240270D01*
X46238846Y16449530D01*
X46240429Y16510000D01*
X46221081Y16720560D01*
X46163686Y16924069D01*
X46152553Y16946646D01*
X46072719Y17108531D01*
X46070165Y17113710D01*
X45943651Y17283133D01*
X45788381Y17426663D01*
X45609554Y17539495D01*
X45413160Y17617848D01*
X45407503Y17618973D01*
X45407497Y17618975D01*
X45211442Y17657972D01*
X45211440Y17657972D01*
X45205775Y17659099D01*
X45200000Y17659175D01*
X45199996Y17659175D01*
X45093976Y17660563D01*
X44994346Y17661867D01*
X44988649Y17660888D01*
X44988648Y17660888D01*
X44791650Y17627038D01*
X44791649Y17627038D01*
X44785953Y17626059D01*
X44587575Y17552873D01*
X44582614Y17549921D01*
X44582613Y17549921D01*
X44565089Y17539495D01*
X44405856Y17444762D01*
X44246881Y17305345D01*
X44115976Y17139292D01*
X44113287Y17134181D01*
X44113285Y17134178D01*
X44099792Y17108531D01*
X44017523Y16952164D01*
X43954820Y16750227D01*
X43929967Y16540246D01*
X38000000Y16540246D01*
X38000000Y19715246D01*
X43929967Y19715246D01*
X43943796Y19504251D01*
X43945217Y19498655D01*
X43945218Y19498650D01*
X43967784Y19409800D01*
X43995845Y19299310D01*
X44084369Y19107286D01*
X44206405Y18934609D01*
X44357865Y18787063D01*
X44362661Y18783858D01*
X44362664Y18783856D01*
X44505936Y18688125D01*
X44533677Y18669589D01*
X44538985Y18667308D01*
X44538986Y18667308D01*
X44722650Y18588400D01*
X44722653Y18588399D01*
X44727953Y18586122D01*
X44733582Y18584848D01*
X44733583Y18584848D01*
X44928550Y18540731D01*
X44928553Y18540731D01*
X44934186Y18539456D01*
X44939957Y18539229D01*
X44939959Y18539229D01*
X45001989Y18536792D01*
X45145470Y18531154D01*
X45151179Y18531982D01*
X45151183Y18531982D01*
X45349015Y18560667D01*
X45349019Y18560668D01*
X45354730Y18561496D01*
X45433987Y18588400D01*
X45549483Y18627605D01*
X45549488Y18627607D01*
X45554955Y18629463D01*
X45559998Y18632287D01*
X45734395Y18729954D01*
X45734399Y18729957D01*
X45739442Y18732781D01*
X45902012Y18867988D01*
X46037219Y19030558D01*
X46040043Y19035601D01*
X46040046Y19035605D01*
X46137713Y19210002D01*
X46137714Y19210004D01*
X46140537Y19215045D01*
X46142393Y19220512D01*
X46142395Y19220517D01*
X46206647Y19409800D01*
X46208504Y19415270D01*
X46222243Y19510019D01*
X46238314Y19620860D01*
X46238314Y19620862D01*
X46238846Y19624530D01*
X46240429Y19685000D01*
X46221081Y19895560D01*
X46163686Y20099069D01*
X46152553Y20121646D01*
X46072719Y20283531D01*
X46070165Y20288710D01*
X45943651Y20458133D01*
X45788381Y20601663D01*
X45609554Y20714495D01*
X45413160Y20792848D01*
X45407503Y20793973D01*
X45407497Y20793975D01*
X45211442Y20832972D01*
X45211440Y20832972D01*
X45205775Y20834099D01*
X45200000Y20834175D01*
X45199996Y20834175D01*
X45093976Y20835563D01*
X44994346Y20836867D01*
X44988649Y20835888D01*
X44988648Y20835888D01*
X44791650Y20802038D01*
X44791649Y20802038D01*
X44785953Y20801059D01*
X44587575Y20727873D01*
X44582614Y20724921D01*
X44582613Y20724921D01*
X44565089Y20714495D01*
X44405856Y20619762D01*
X44246881Y20480345D01*
X44115976Y20314292D01*
X44113287Y20309181D01*
X44113285Y20309178D01*
X44099792Y20283531D01*
X44017523Y20127164D01*
X43954820Y19925227D01*
X43929967Y19715246D01*
X38000000Y19715246D01*
X38000000Y22890246D01*
X43954967Y22890246D01*
X43968796Y22679251D01*
X43970217Y22673655D01*
X43970218Y22673650D01*
X43992784Y22584800D01*
X44020845Y22474310D01*
X44109369Y22282286D01*
X44231405Y22109609D01*
X44382865Y21962063D01*
X44387661Y21958858D01*
X44387664Y21958856D01*
X44530936Y21863125D01*
X44558677Y21844589D01*
X44563985Y21842308D01*
X44563986Y21842308D01*
X44747650Y21763400D01*
X44747653Y21763399D01*
X44752953Y21761122D01*
X44758582Y21759848D01*
X44758583Y21759848D01*
X44953550Y21715731D01*
X44953553Y21715731D01*
X44959186Y21714456D01*
X44964957Y21714229D01*
X44964959Y21714229D01*
X45026989Y21711792D01*
X45170470Y21706154D01*
X45176179Y21706982D01*
X45176183Y21706982D01*
X45374015Y21735667D01*
X45374019Y21735668D01*
X45379730Y21736496D01*
X45458987Y21763400D01*
X45574483Y21802605D01*
X45574488Y21802607D01*
X45579955Y21804463D01*
X45584998Y21807287D01*
X45759395Y21904954D01*
X45759399Y21904957D01*
X45764442Y21907781D01*
X45927012Y22042988D01*
X46062219Y22205558D01*
X46065043Y22210601D01*
X46065046Y22210605D01*
X46162713Y22385002D01*
X46162714Y22385004D01*
X46165537Y22390045D01*
X46167393Y22395512D01*
X46167395Y22395517D01*
X46231647Y22584800D01*
X46233504Y22590270D01*
X46263846Y22799530D01*
X46265429Y22860000D01*
X46246081Y23070560D01*
X46188686Y23274069D01*
X46177553Y23296646D01*
X46097719Y23458531D01*
X46095165Y23463710D01*
X45968651Y23633133D01*
X45813381Y23776663D01*
X45780014Y23797716D01*
X45639434Y23886416D01*
X45639433Y23886416D01*
X45634554Y23889495D01*
X45438160Y23967848D01*
X45432503Y23968973D01*
X45432497Y23968975D01*
X45236442Y24007972D01*
X45236440Y24007972D01*
X45230775Y24009099D01*
X45225000Y24009175D01*
X45224996Y24009175D01*
X45118976Y24010563D01*
X45019346Y24011867D01*
X45013649Y24010888D01*
X45013648Y24010888D01*
X44816650Y23977038D01*
X44816649Y23977038D01*
X44810953Y23976059D01*
X44612575Y23902873D01*
X44607614Y23899921D01*
X44607613Y23899921D01*
X44590089Y23889495D01*
X44430856Y23794762D01*
X44271881Y23655345D01*
X44140976Y23489292D01*
X44138287Y23484181D01*
X44138285Y23484178D01*
X44124792Y23458531D01*
X44042523Y23302164D01*
X43979820Y23100227D01*
X43954967Y22890246D01*
X38000000Y22890246D01*
X38000000Y75202115D01*
X46902000Y75202115D01*
X46906475Y75186876D01*
X46907865Y75185671D01*
X46915548Y75184000D01*
X47987885Y75184000D01*
X48003124Y75188475D01*
X48004329Y75189865D01*
X48006000Y75197548D01*
X48006000Y75202115D01*
X48514000Y75202115D01*
X48518475Y75186876D01*
X48519865Y75185671D01*
X48527548Y75184000D01*
X49599884Y75184000D01*
X49615123Y75188475D01*
X49616328Y75189865D01*
X49617999Y75197548D01*
X49617999Y75824669D01*
X49617629Y75831490D01*
X49612105Y75882352D01*
X49608479Y75897604D01*
X49563324Y76018054D01*
X49554786Y76033649D01*
X49478285Y76135724D01*
X49465724Y76148285D01*
X49363649Y76224786D01*
X49348054Y76233324D01*
X49227606Y76278478D01*
X49212351Y76282105D01*
X49161486Y76287631D01*
X49154672Y76288000D01*
X48532115Y76288000D01*
X48516876Y76283525D01*
X48515671Y76282135D01*
X48514000Y76274452D01*
X48514000Y75202115D01*
X48006000Y75202115D01*
X48006000Y76269884D01*
X48001525Y76285123D01*
X48000135Y76286328D01*
X47992452Y76287999D01*
X47365331Y76287999D01*
X47358510Y76287629D01*
X47307648Y76282105D01*
X47292396Y76278479D01*
X47171946Y76233324D01*
X47156351Y76224786D01*
X47054276Y76148285D01*
X47041715Y76135724D01*
X46965214Y76033649D01*
X46956676Y76018054D01*
X46911522Y75897606D01*
X46907895Y75882351D01*
X46902369Y75831486D01*
X46902000Y75824672D01*
X46902000Y75202115D01*
X38000000Y75202115D01*
X38000000Y76447810D01*
X38020002Y76515931D01*
X38036905Y76536905D01*
X38463095Y76963095D01*
X38525407Y76997121D01*
X38552190Y77000000D01*
X82447810Y77000000D01*
X82515931Y76979998D01*
G37*
G04 #@! TD.AperFunction*
G04 #@! TA.AperFunction,Conductor*
G36*
X50289012Y26261399D02*
G01*
X50320925Y26218928D01*
X50390883Y26067179D01*
X50518222Y25886998D01*
X50676264Y25733039D01*
X50681060Y25729834D01*
X50681063Y25729832D01*
X50828502Y25631317D01*
X50874030Y25576840D01*
X50884500Y25526552D01*
X50884500Y4725215D01*
X50864498Y4657094D01*
X50847595Y4636120D01*
X49333881Y3122405D01*
X49271569Y3088380D01*
X49244786Y3085500D01*
X3050511Y3085500D01*
X2982390Y3105502D01*
X2937507Y3155768D01*
X2935536Y3159764D01*
X2935535Y3159766D01*
X2932980Y3164947D01*
X2800967Y3341733D01*
X2638949Y3491501D01*
X2452350Y3609236D01*
X2249955Y3689983D01*
X2194096Y3733804D01*
X2170795Y3800868D01*
X2187451Y3869883D01*
X2238775Y3918937D01*
X2256144Y3926326D01*
X2389907Y3971732D01*
X2389912Y3971734D01*
X2395379Y3973590D01*
X2587884Y4081398D01*
X2599188Y4090799D01*
X2753086Y4218796D01*
X2757518Y4222482D01*
X2898602Y4392116D01*
X2901426Y4397158D01*
X2936657Y4460067D01*
X2987394Y4509728D01*
X3046591Y4524500D01*
X47605007Y4524500D01*
X47610284Y4524389D01*
X47672294Y4521790D01*
X47683848Y4524500D01*
X47714662Y4531727D01*
X47726333Y4533890D01*
X47741229Y4535931D01*
X47769432Y4539794D01*
X47783230Y4545765D01*
X47804499Y4552799D01*
X47810775Y4554271D01*
X47819136Y4556232D01*
X47826661Y4560369D01*
X47826664Y4560370D01*
X47857268Y4577195D01*
X47867913Y4582411D01*
X47907855Y4599695D01*
X47919541Y4609158D01*
X47938126Y4621646D01*
X47945518Y4625710D01*
X47951308Y4628893D01*
X47959422Y4635897D01*
X47983958Y4660433D01*
X47993759Y4669258D01*
X48018392Y4689206D01*
X48018393Y4689207D01*
X48025070Y4694614D01*
X48030043Y4701612D01*
X48030048Y4701617D01*
X48035968Y4709948D01*
X48049579Y4726054D01*
X49908642Y6585118D01*
X49912451Y6588771D01*
X49944860Y6618573D01*
X49958156Y6630799D01*
X49981099Y6667802D01*
X49987800Y6677552D01*
X50014112Y6712217D01*
X50019646Y6726196D01*
X50029707Y6746199D01*
X50037635Y6758986D01*
X50049775Y6800772D01*
X50053621Y6812005D01*
X50069636Y6852453D01*
X50071208Y6867408D01*
X50075520Y6889383D01*
X50079715Y6903825D01*
X50080500Y6914515D01*
X50080500Y6949217D01*
X50081190Y6962387D01*
X50084503Y6993912D01*
X50085401Y7002454D01*
X50083969Y7010919D01*
X50083969Y7010928D01*
X50082265Y7021000D01*
X50080500Y7042013D01*
X50080500Y26166175D01*
X50100502Y26234296D01*
X50154158Y26280789D01*
X50224432Y26290893D01*
X50289012Y26261399D01*
G37*
G04 #@! TD.AperFunction*
G04 #@! TA.AperFunction,Conductor*
G36*
X48927924Y25583599D02*
G01*
X48971077Y25527222D01*
X48979500Y25481928D01*
X48979500Y7265215D01*
X48959498Y7197094D01*
X48942595Y7176120D01*
X47428881Y5662405D01*
X47366569Y5628380D01*
X47339786Y5625500D01*
X3050511Y5625500D01*
X2982390Y5645502D01*
X2937507Y5695768D01*
X2935536Y5699764D01*
X2935535Y5699766D01*
X2932980Y5704947D01*
X2800967Y5881733D01*
X2638949Y6031501D01*
X2452350Y6149236D01*
X2249955Y6229983D01*
X2194096Y6273804D01*
X2170795Y6340868D01*
X2187451Y6409883D01*
X2238775Y6458937D01*
X2256144Y6466326D01*
X2389907Y6511732D01*
X2389912Y6511734D01*
X2395379Y6513590D01*
X2587884Y6621398D01*
X2599188Y6630799D01*
X2753086Y6758796D01*
X2757518Y6762482D01*
X2898602Y6932116D01*
X2901426Y6937158D01*
X2936657Y7000067D01*
X2987394Y7049728D01*
X3046591Y7064500D01*
X45700007Y7064500D01*
X45705284Y7064389D01*
X45767294Y7061790D01*
X45778848Y7064500D01*
X45809662Y7071727D01*
X45821333Y7073890D01*
X45836229Y7075931D01*
X45864432Y7079794D01*
X45878230Y7085765D01*
X45899499Y7092799D01*
X45905775Y7094271D01*
X45914136Y7096232D01*
X45921661Y7100369D01*
X45921664Y7100370D01*
X45952268Y7117195D01*
X45962913Y7122411D01*
X46002855Y7139695D01*
X46014541Y7149158D01*
X46033126Y7161646D01*
X46040518Y7165710D01*
X46046308Y7168893D01*
X46054422Y7175897D01*
X46078958Y7200433D01*
X46088759Y7209258D01*
X46113392Y7229206D01*
X46113393Y7229207D01*
X46120070Y7234614D01*
X46125043Y7241612D01*
X46125048Y7241617D01*
X46130968Y7249948D01*
X46144579Y7266054D01*
X48003642Y9125118D01*
X48007451Y9128771D01*
X48039860Y9158573D01*
X48053156Y9170799D01*
X48076099Y9207802D01*
X48082800Y9217552D01*
X48109112Y9252217D01*
X48114646Y9266196D01*
X48124707Y9286199D01*
X48132635Y9298986D01*
X48144775Y9340772D01*
X48148621Y9352005D01*
X48149653Y9354612D01*
X48164636Y9392453D01*
X48166208Y9407408D01*
X48170520Y9429383D01*
X48174715Y9443825D01*
X48175500Y9454515D01*
X48175500Y9489217D01*
X48176190Y9502387D01*
X48179503Y9533912D01*
X48180401Y9542454D01*
X48178969Y9550919D01*
X48178969Y9550928D01*
X48177265Y9561000D01*
X48175500Y9582013D01*
X48175500Y25340760D01*
X48195502Y25408881D01*
X48249158Y25455374D01*
X48306445Y25466663D01*
X48311706Y25466457D01*
X48323098Y25466009D01*
X48447655Y25484069D01*
X48535738Y25496840D01*
X48535743Y25496841D01*
X48541452Y25497669D01*
X48546916Y25499524D01*
X48546921Y25499525D01*
X48744907Y25566732D01*
X48744912Y25566734D01*
X48750379Y25568590D01*
X48765111Y25576840D01*
X48791934Y25591862D01*
X48861142Y25607696D01*
X48927924Y25583599D01*
G37*
G04 #@! TD.AperFunction*
G04 #@! TA.AperFunction,Conductor*
G36*
X68338823Y48767032D02*
G01*
X68363589Y48748257D01*
X68461138Y48653229D01*
X68482865Y48632063D01*
X68487661Y48628858D01*
X68487664Y48628856D01*
X68576678Y48569379D01*
X68658677Y48514589D01*
X68663985Y48512308D01*
X68663986Y48512308D01*
X68847650Y48433400D01*
X68847653Y48433399D01*
X68852953Y48431122D01*
X68858582Y48429848D01*
X68858583Y48429848D01*
X69053550Y48385731D01*
X69053553Y48385731D01*
X69059186Y48384456D01*
X69064958Y48384229D01*
X69070687Y48383475D01*
X69070327Y48380743D01*
X69126604Y48361784D01*
X69170950Y48306341D01*
X69178282Y48235724D01*
X69146271Y48172353D01*
X69085081Y48136349D01*
X69075704Y48134368D01*
X68916650Y48107038D01*
X68916649Y48107038D01*
X68910953Y48106059D01*
X68712575Y48032873D01*
X68707614Y48029921D01*
X68707613Y48029921D01*
X68562243Y47943435D01*
X68530856Y47924762D01*
X68371881Y47785345D01*
X68240976Y47619292D01*
X68238287Y47614181D01*
X68238285Y47614178D01*
X68217667Y47574989D01*
X68142523Y47432164D01*
X68079820Y47230227D01*
X68054967Y47020246D01*
X68068796Y46809251D01*
X68070217Y46803655D01*
X68070218Y46803650D01*
X68113534Y46633098D01*
X68120845Y46604310D01*
X68123262Y46599067D01*
X68133092Y46577744D01*
X68209369Y46412286D01*
X68331405Y46239609D01*
X68390466Y46182074D01*
X68429638Y46143915D01*
X68482865Y46092063D01*
X68487661Y46088858D01*
X68487664Y46088856D01*
X68580647Y46026727D01*
X68658677Y45974589D01*
X68663985Y45972308D01*
X68663986Y45972308D01*
X68847650Y45893400D01*
X68847653Y45893399D01*
X68852953Y45891122D01*
X68858582Y45889848D01*
X68858583Y45889848D01*
X69053550Y45845731D01*
X69053553Y45845731D01*
X69059186Y45844456D01*
X69064958Y45844229D01*
X69070687Y45843475D01*
X69070327Y45840743D01*
X69126604Y45821784D01*
X69170950Y45766341D01*
X69178282Y45695724D01*
X69146271Y45632353D01*
X69085081Y45596349D01*
X69075704Y45594368D01*
X68916650Y45567038D01*
X68916649Y45567038D01*
X68910953Y45566059D01*
X68712575Y45492873D01*
X68707614Y45489921D01*
X68707613Y45489921D01*
X68538669Y45389410D01*
X68530856Y45384762D01*
X68371881Y45245345D01*
X68360340Y45230705D01*
X68291058Y45142821D01*
X68233177Y45101708D01*
X68162257Y45098414D01*
X68103013Y45131732D01*
X67305264Y45929481D01*
X67295409Y45940571D01*
X67281571Y45958125D01*
X67281567Y45958129D01*
X67275737Y45965524D01*
X67230026Y45997116D01*
X67226903Y45999349D01*
X67182262Y46032321D01*
X67175812Y46034586D01*
X67170184Y46038476D01*
X67161203Y46041316D01*
X67152748Y46045458D01*
X67153322Y46046631D01*
X67105228Y46077953D01*
X67103680Y46079709D01*
X67099379Y46085967D01*
X67089895Y46094417D01*
X66987043Y46186056D01*
X66987039Y46186059D01*
X66981372Y46191108D01*
X66974664Y46194660D01*
X66974662Y46194661D01*
X66848401Y46261512D01*
X66848400Y46261513D01*
X66841692Y46265064D01*
X66688403Y46303568D01*
X66680805Y46303608D01*
X66680803Y46303608D01*
X66609379Y46303982D01*
X66530354Y46304396D01*
X66522967Y46302622D01*
X66522963Y46302622D01*
X66389032Y46270467D01*
X66376670Y46267499D01*
X66369926Y46264018D01*
X66369923Y46264017D01*
X66251649Y46202971D01*
X66236223Y46195009D01*
X66230501Y46190017D01*
X66230499Y46190016D01*
X66177653Y46143915D01*
X66117121Y46091110D01*
X66090968Y46053898D01*
X66034968Y45974218D01*
X66026241Y45961801D01*
X65968829Y45814546D01*
X65965072Y45786009D01*
X65949590Y45668411D01*
X65948199Y45657847D01*
X65954512Y45600665D01*
X65964638Y45508949D01*
X65965543Y45500751D01*
X65968153Y45493620D01*
X65968153Y45493618D01*
X65984310Y45449467D01*
X66019858Y45352326D01*
X66024095Y45346020D01*
X66024097Y45346017D01*
X66041545Y45320053D01*
X66108011Y45221142D01*
X66224910Y45114771D01*
X66231583Y45111148D01*
X66231587Y45111145D01*
X66326195Y45059778D01*
X66363808Y45039356D01*
X66516686Y44999249D01*
X66600036Y44997939D01*
X66667120Y44996885D01*
X66667123Y44996885D01*
X66674717Y44996766D01*
X66828779Y45032051D01*
X66858578Y45047039D01*
X66928419Y45059778D01*
X66994063Y45032735D01*
X67004286Y45023569D01*
X67856377Y44171478D01*
X67866232Y44160388D01*
X67880070Y44142834D01*
X67880074Y44142830D01*
X67885904Y44135435D01*
X67893651Y44130080D01*
X67893653Y44130079D01*
X67931532Y44103900D01*
X67934754Y44101598D01*
X67971803Y44074232D01*
X67971807Y44074230D01*
X67979379Y44068637D01*
X67985831Y44066371D01*
X67991457Y44062483D01*
X68000434Y44059644D01*
X68000436Y44059643D01*
X68044361Y44045752D01*
X68048091Y44044507D01*
X68091557Y44029243D01*
X68095452Y44027875D01*
X68153097Y43986431D01*
X68168128Y43961744D01*
X68195213Y43902992D01*
X68209369Y43872286D01*
X68331405Y43699609D01*
X68335539Y43695582D01*
X68420583Y43612736D01*
X68482865Y43552063D01*
X68487661Y43548858D01*
X68487664Y43548856D01*
X68620509Y43460092D01*
X68658677Y43434589D01*
X68663985Y43432308D01*
X68663986Y43432308D01*
X68847650Y43353400D01*
X68847653Y43353399D01*
X68852953Y43351122D01*
X68858582Y43349848D01*
X68858583Y43349848D01*
X69053550Y43305731D01*
X69053553Y43305731D01*
X69059186Y43304456D01*
X69064958Y43304229D01*
X69070687Y43303475D01*
X69070327Y43300743D01*
X69126604Y43281784D01*
X69170950Y43226341D01*
X69178282Y43155724D01*
X69146271Y43092353D01*
X69085081Y43056349D01*
X69075704Y43054368D01*
X68916650Y43027038D01*
X68916649Y43027038D01*
X68910953Y43026059D01*
X68712575Y42952873D01*
X68707614Y42949921D01*
X68707613Y42949921D01*
X68690089Y42939495D01*
X68530856Y42844762D01*
X68371881Y42705345D01*
X68240976Y42539292D01*
X68238287Y42534181D01*
X68238285Y42534178D01*
X68202596Y42466344D01*
X68142523Y42352164D01*
X68079820Y42150227D01*
X68054967Y41940246D01*
X68068796Y41729251D01*
X68070217Y41723655D01*
X68070218Y41723650D01*
X68114569Y41549021D01*
X68120845Y41524310D01*
X68123262Y41519067D01*
X68167150Y41423866D01*
X68209369Y41332286D01*
X68331405Y41159609D01*
X68482865Y41012063D01*
X68487661Y41008858D01*
X68487664Y41008856D01*
X68599717Y40933985D01*
X68658677Y40894589D01*
X68663985Y40892308D01*
X68663986Y40892308D01*
X68847650Y40813400D01*
X68847653Y40813399D01*
X68852953Y40811122D01*
X68858582Y40809848D01*
X68858583Y40809848D01*
X69053550Y40765731D01*
X69053553Y40765731D01*
X69059186Y40764456D01*
X69064958Y40764229D01*
X69070687Y40763475D01*
X69070327Y40760743D01*
X69126604Y40741784D01*
X69170950Y40686341D01*
X69178282Y40615724D01*
X69146271Y40552353D01*
X69085081Y40516349D01*
X69075704Y40514368D01*
X68916650Y40487038D01*
X68916649Y40487038D01*
X68910953Y40486059D01*
X68712575Y40412873D01*
X68707614Y40409921D01*
X68707613Y40409921D01*
X68572577Y40329583D01*
X68530856Y40304762D01*
X68371881Y40165345D01*
X68240976Y39999292D01*
X68238287Y39994181D01*
X68238285Y39994178D01*
X68214110Y39948229D01*
X68142523Y39812164D01*
X68079820Y39610227D01*
X68054967Y39400246D01*
X68068796Y39189251D01*
X68070217Y39183655D01*
X68070218Y39183650D01*
X68114569Y39009020D01*
X68120845Y38984310D01*
X68209369Y38792286D01*
X68331405Y38619609D01*
X68482865Y38472063D01*
X68487661Y38468858D01*
X68487664Y38468856D01*
X68626038Y38376398D01*
X68658677Y38354589D01*
X68663985Y38352308D01*
X68663986Y38352308D01*
X68847650Y38273400D01*
X68847653Y38273399D01*
X68852953Y38271122D01*
X68858582Y38269848D01*
X68858583Y38269848D01*
X69053550Y38225731D01*
X69053553Y38225731D01*
X69059186Y38224456D01*
X69064958Y38224229D01*
X69070687Y38223475D01*
X69070327Y38220743D01*
X69126604Y38201784D01*
X69170950Y38146341D01*
X69178282Y38075724D01*
X69146271Y38012353D01*
X69085081Y37976349D01*
X69075704Y37974368D01*
X68916650Y37947038D01*
X68916649Y37947038D01*
X68910953Y37946059D01*
X68712575Y37872873D01*
X68707614Y37869921D01*
X68707613Y37869921D01*
X68574952Y37790996D01*
X68530856Y37764762D01*
X68371881Y37625345D01*
X68240976Y37459292D01*
X68238287Y37454181D01*
X68238285Y37454178D01*
X68188400Y37359362D01*
X68142523Y37272164D01*
X68079820Y37070227D01*
X68054967Y36860246D01*
X68068796Y36649251D01*
X68070217Y36643655D01*
X68070218Y36643650D01*
X68114569Y36469021D01*
X68120845Y36444310D01*
X68123262Y36439067D01*
X68167151Y36343865D01*
X68209369Y36252286D01*
X68331405Y36079609D01*
X68482865Y35932063D01*
X68487661Y35928858D01*
X68487664Y35928856D01*
X68585861Y35863243D01*
X68658677Y35814589D01*
X68663985Y35812308D01*
X68663986Y35812308D01*
X68847650Y35733400D01*
X68847653Y35733399D01*
X68852953Y35731122D01*
X68858582Y35729848D01*
X68858583Y35729848D01*
X69053550Y35685731D01*
X69053553Y35685731D01*
X69059186Y35684456D01*
X69064958Y35684229D01*
X69070687Y35683475D01*
X69070327Y35680743D01*
X69126604Y35661784D01*
X69170950Y35606341D01*
X69178282Y35535724D01*
X69146271Y35472353D01*
X69085081Y35436349D01*
X69075704Y35434368D01*
X68916650Y35407038D01*
X68916649Y35407038D01*
X68910953Y35406059D01*
X68712575Y35332873D01*
X68707614Y35329921D01*
X68707613Y35329921D01*
X68537736Y35228855D01*
X68530856Y35224762D01*
X68371881Y35085345D01*
X68240976Y34919292D01*
X68162810Y34770723D01*
X68113392Y34719752D01*
X68070033Y34704792D01*
X68063726Y34703844D01*
X68063724Y34703843D01*
X68054416Y34702444D01*
X68048251Y34699484D01*
X68041523Y34698255D01*
X67992285Y34672678D01*
X67988769Y34670921D01*
X67947241Y34650980D01*
X67947237Y34650978D01*
X67938750Y34646902D01*
X67933728Y34642259D01*
X67927659Y34639107D01*
X67922881Y34635026D01*
X67887706Y34599851D01*
X67884141Y34596422D01*
X67844529Y34559805D01*
X67840990Y34553713D01*
X67836031Y34548176D01*
X67012760Y33724905D01*
X66950448Y33690879D01*
X66923665Y33688000D01*
X55156546Y33688000D01*
X55088425Y33708002D01*
X55041932Y33761658D01*
X55031828Y33831932D01*
X55037233Y33854501D01*
X55056376Y33910893D01*
X55093504Y34020270D01*
X55122021Y34216940D01*
X55123314Y34225860D01*
X55123314Y34225862D01*
X55123846Y34229530D01*
X55125429Y34290000D01*
X55106081Y34500560D01*
X55055274Y34680709D01*
X55056035Y34751701D01*
X55087449Y34804004D01*
X55277122Y34993677D01*
X55288212Y35003532D01*
X55305766Y35017370D01*
X55305770Y35017374D01*
X55313165Y35023204D01*
X55344757Y35068915D01*
X55346990Y35072038D01*
X55379962Y35116679D01*
X55382227Y35123129D01*
X55386117Y35128757D01*
X55388955Y35137732D01*
X55388958Y35137737D01*
X55402844Y35181646D01*
X55404097Y35185403D01*
X55419357Y35228855D01*
X55419358Y35228858D01*
X55422477Y35237741D01*
X55422746Y35244577D01*
X55424807Y35251095D01*
X55425300Y35257359D01*
X55425300Y35307120D01*
X55425397Y35312066D01*
X55426293Y35334871D01*
X55427514Y35365952D01*
X55425708Y35372763D01*
X55425300Y35380178D01*
X55425300Y36778261D01*
X55445302Y36846382D01*
X55462205Y36867356D01*
X67021804Y48426955D01*
X67084116Y48460981D01*
X67154931Y48455916D01*
X67180449Y48442389D01*
X67182951Y48440112D01*
X67267831Y48394026D01*
X67294359Y48379623D01*
X67321849Y48364697D01*
X67474727Y48324590D01*
X67558077Y48323280D01*
X67625161Y48322226D01*
X67625164Y48322226D01*
X67632758Y48322107D01*
X67786820Y48357392D01*
X67928019Y48428408D01*
X68048202Y48531054D01*
X68053863Y48538932D01*
X68135994Y48653229D01*
X68135995Y48653230D01*
X68140431Y48659404D01*
X68158760Y48704999D01*
X68202726Y48760744D01*
X68269851Y48783869D01*
X68338823Y48767032D01*
G37*
G04 #@! TD.AperFunction*
G04 #@! TA.AperFunction,Conductor*
G36*
X63548245Y48168898D02*
G01*
X63594738Y48115242D01*
X63605046Y48046455D01*
X63600631Y48012921D01*
X63600631Y48012915D01*
X63599640Y48005388D01*
X63600474Y47997838D01*
X63614090Y47874507D01*
X63616984Y47848292D01*
X63619594Y47841161D01*
X63619594Y47841159D01*
X63634419Y47800649D01*
X63671299Y47699867D01*
X63675536Y47693561D01*
X63675538Y47693558D01*
X63713259Y47637424D01*
X63759452Y47568683D01*
X63837206Y47497932D01*
X63874127Y47437293D01*
X63872404Y47366317D01*
X63841500Y47315645D01*
X56359460Y39833605D01*
X56297148Y39799579D01*
X56270365Y39796700D01*
X55120809Y39796700D01*
X55052688Y39816702D01*
X55007803Y39866971D01*
X54957719Y39968531D01*
X54955165Y39973710D01*
X54828651Y40143133D01*
X54673381Y40286663D01*
X54494554Y40399495D01*
X54298160Y40477848D01*
X54292503Y40478973D01*
X54292497Y40478975D01*
X54095234Y40518212D01*
X54032324Y40551119D01*
X53997192Y40612814D01*
X54000992Y40683709D01*
X54042517Y40741295D01*
X54101734Y40766487D01*
X54234015Y40785667D01*
X54234019Y40785668D01*
X54239730Y40786496D01*
X54318987Y40813400D01*
X54434483Y40852605D01*
X54434488Y40852607D01*
X54439955Y40854463D01*
X54446137Y40857925D01*
X54619395Y40954954D01*
X54619399Y40954957D01*
X54624442Y40957781D01*
X54787012Y41092988D01*
X54922219Y41255558D01*
X54925043Y41260601D01*
X54925046Y41260605D01*
X55022713Y41435002D01*
X55022714Y41435004D01*
X55025537Y41440045D01*
X55027393Y41445513D01*
X55027395Y41445517D01*
X55074173Y41583324D01*
X55093504Y41640270D01*
X55094577Y41647665D01*
X55123314Y41845860D01*
X55123314Y41845862D01*
X55123846Y41849530D01*
X55125429Y41910000D01*
X55106081Y42120560D01*
X55098519Y42147375D01*
X55050255Y42318504D01*
X55048686Y42324069D01*
X55037553Y42346646D01*
X54957719Y42508531D01*
X54955165Y42513710D01*
X54835312Y42674213D01*
X54832104Y42678509D01*
X54832103Y42678510D01*
X54828651Y42683133D01*
X54706469Y42796077D01*
X54677622Y42822743D01*
X54677620Y42822745D01*
X54673381Y42826663D01*
X54494554Y42939495D01*
X54307053Y43014300D01*
X54303524Y43015708D01*
X54298160Y43017848D01*
X54292503Y43018973D01*
X54292497Y43018975D01*
X54095234Y43058212D01*
X54032324Y43091119D01*
X53997192Y43152814D01*
X54000992Y43223709D01*
X54042517Y43281295D01*
X54101734Y43306487D01*
X54234015Y43325667D01*
X54234019Y43325668D01*
X54239730Y43326496D01*
X54329074Y43356824D01*
X54434483Y43392605D01*
X54434488Y43392607D01*
X54439955Y43394463D01*
X54444998Y43397287D01*
X54619395Y43494954D01*
X54619399Y43494957D01*
X54624442Y43497781D01*
X54787012Y43632988D01*
X54922219Y43795558D01*
X54925043Y43800601D01*
X54925046Y43800605D01*
X55022713Y43975002D01*
X55022714Y43975004D01*
X55025537Y43980045D01*
X55027393Y43985512D01*
X55027395Y43985517D01*
X55074173Y44123324D01*
X55093504Y44180270D01*
X55111417Y44303807D01*
X55123314Y44385860D01*
X55123314Y44385862D01*
X55123846Y44389530D01*
X55125429Y44450000D01*
X55106081Y44660560D01*
X55055274Y44840709D01*
X55056035Y44911701D01*
X55087449Y44964004D01*
X55581922Y45458477D01*
X55593012Y45468332D01*
X55610566Y45482170D01*
X55610570Y45482174D01*
X55617965Y45488004D01*
X55649511Y45533648D01*
X55651806Y45536860D01*
X55654270Y45540196D01*
X55684762Y45581478D01*
X55687028Y45587929D01*
X55690917Y45593557D01*
X55707664Y45646513D01*
X55708900Y45650215D01*
X55724154Y45693651D01*
X55727276Y45702541D01*
X55727544Y45709373D01*
X55729607Y45715895D01*
X55730100Y45722159D01*
X55730100Y45771930D01*
X55730197Y45776877D01*
X55731944Y45821339D01*
X55732314Y45830752D01*
X55730508Y45837563D01*
X55730100Y45844977D01*
X55730100Y47785412D01*
X55750102Y47853533D01*
X55767004Y47874507D01*
X56044491Y48151995D01*
X56106804Y48186020D01*
X56133587Y48188900D01*
X63480124Y48188900D01*
X63548245Y48168898D01*
G37*
G04 #@! TD.AperFunction*
G04 #@! TA.AperFunction,Conductor*
G36*
X73690586Y47621898D02*
G01*
X73711560Y47604995D01*
X73773952Y47542603D01*
X73807978Y47480291D01*
X73805190Y47416144D01*
X73752972Y47247973D01*
X73750703Y47240667D01*
X73724770Y47021560D01*
X73739200Y46801396D01*
X73740621Y46795800D01*
X73740622Y46795795D01*
X73792090Y46593143D01*
X73793511Y46587548D01*
X73795928Y46582306D01*
X73795928Y46582305D01*
X73827684Y46513422D01*
X73885883Y46387179D01*
X74013222Y46206998D01*
X74171264Y46053039D01*
X74176060Y46049834D01*
X74176063Y46049832D01*
X74281919Y45979102D01*
X74354717Y45930460D01*
X74360020Y45928182D01*
X74360023Y45928180D01*
X74519576Y45859631D01*
X74557436Y45843365D01*
X74563071Y45842090D01*
X74563074Y45842089D01*
X74564484Y45841770D01*
X74565083Y45841436D01*
X74568562Y45840306D01*
X74568340Y45839623D01*
X74626511Y45807228D01*
X74660016Y45744634D01*
X74654362Y45673863D01*
X74611344Y45617384D01*
X74580287Y45600665D01*
X74416376Y45540196D01*
X74416368Y45540192D01*
X74410957Y45538196D01*
X74405996Y45535244D01*
X74405995Y45535244D01*
X74254375Y45445039D01*
X74221341Y45425386D01*
X74055457Y45279910D01*
X73918863Y45106640D01*
X73862299Y44999130D01*
X73825750Y44929663D01*
X73776330Y44878691D01*
X73742599Y44867051D01*
X73742733Y44866614D01*
X73733729Y44863844D01*
X73724416Y44862444D01*
X73718252Y44859484D01*
X73711523Y44858255D01*
X73662285Y44832678D01*
X73658769Y44830921D01*
X73617241Y44810980D01*
X73617237Y44810978D01*
X73608750Y44806902D01*
X73603728Y44802259D01*
X73597659Y44799107D01*
X73592881Y44795026D01*
X73557706Y44759851D01*
X73554141Y44756422D01*
X73514529Y44719805D01*
X73510990Y44713713D01*
X73506031Y44708176D01*
X73174795Y44376940D01*
X73112483Y44342914D01*
X73041668Y44347979D01*
X72984832Y44390526D01*
X72960229Y44454506D01*
X72940983Y44663954D01*
X72940454Y44669711D01*
X72924524Y44726197D01*
X72903072Y44802259D01*
X72880565Y44882064D01*
X72782980Y45079947D01*
X72676058Y45223133D01*
X72654420Y45252109D01*
X72654420Y45252110D01*
X72650967Y45256733D01*
X72547555Y45352326D01*
X72493189Y45402582D01*
X72493186Y45402584D01*
X72488949Y45406501D01*
X72303702Y45523383D01*
X72303700Y45523385D01*
X72302350Y45524236D01*
X72302517Y45524501D01*
X72253071Y45571198D01*
X72236002Y45640112D01*
X72258901Y45707314D01*
X72306454Y45747871D01*
X72448095Y45817261D01*
X72456945Y45822536D01*
X72630328Y45946208D01*
X72638200Y45952861D01*
X72789052Y46103188D01*
X72795730Y46111035D01*
X72920003Y46283980D01*
X72925313Y46292817D01*
X73019670Y46483733D01*
X73023469Y46493328D01*
X73085377Y46697090D01*
X73087555Y46707163D01*
X73088986Y46718038D01*
X73086775Y46732222D01*
X73073617Y46736000D01*
X71627000Y46736000D01*
X71558879Y46756002D01*
X71512386Y46809658D01*
X71501000Y46862000D01*
X71501000Y47118000D01*
X71521002Y47186121D01*
X71574658Y47232614D01*
X71627000Y47244000D01*
X73073344Y47244000D01*
X73086875Y47247973D01*
X73088180Y47257053D01*
X73046214Y47424125D01*
X73042892Y47433882D01*
X73029076Y47465657D01*
X73020255Y47536104D01*
X73050921Y47600136D01*
X73111338Y47637424D01*
X73144625Y47641900D01*
X73622465Y47641900D01*
X73690586Y47621898D01*
G37*
G04 #@! TD.AperFunction*
G04 #@! TA.AperFunction,Conductor*
G36*
X55077759Y53927496D02*
G01*
X56135077Y52870178D01*
X56144932Y52859088D01*
X56158770Y52841534D01*
X56158774Y52841530D01*
X56164604Y52834135D01*
X56172351Y52828781D01*
X56172353Y52828779D01*
X56210238Y52802596D01*
X56213450Y52800301D01*
X56258078Y52767338D01*
X56264529Y52765072D01*
X56270157Y52761183D01*
X56323113Y52744436D01*
X56326798Y52743206D01*
X56379141Y52724824D01*
X56385973Y52724556D01*
X56392495Y52722493D01*
X56398759Y52722000D01*
X56448530Y52722000D01*
X56453476Y52721903D01*
X56507352Y52719786D01*
X56514163Y52721592D01*
X56521577Y52722000D01*
X66877499Y52722000D01*
X66945620Y52701998D01*
X66992113Y52648342D01*
X67002217Y52578068D01*
X66988573Y52536548D01*
X66984282Y52530442D01*
X66981524Y52523367D01*
X66981522Y52523364D01*
X66966202Y52484069D01*
X66926870Y52383187D01*
X66914092Y52286124D01*
X66912678Y52275386D01*
X66883956Y52210459D01*
X66876851Y52202737D01*
X65485960Y50811846D01*
X65423648Y50777820D01*
X65396865Y50774941D01*
X64615963Y50774941D01*
X64601155Y50775814D01*
X64569598Y50779549D01*
X64560334Y50777857D01*
X64560333Y50777857D01*
X64515002Y50769578D01*
X64511097Y50768928D01*
X64456268Y50760685D01*
X64450106Y50757726D01*
X64443376Y50756497D01*
X64427810Y50748411D01*
X64394136Y50730919D01*
X64390596Y50729150D01*
X64340602Y50705143D01*
X64335579Y50700499D01*
X64329512Y50697348D01*
X64324734Y50693268D01*
X64289558Y50658092D01*
X64285993Y50654663D01*
X64246381Y50618046D01*
X64242842Y50611954D01*
X64237883Y50606417D01*
X63625071Y49993605D01*
X63562759Y49959579D01*
X63535976Y49956700D01*
X55120809Y49956700D01*
X55052688Y49976702D01*
X55007803Y50026971D01*
X54998954Y50044916D01*
X54955165Y50133710D01*
X54828651Y50303133D01*
X54673381Y50446663D01*
X54531763Y50536018D01*
X54499434Y50556416D01*
X54499433Y50556416D01*
X54494554Y50559495D01*
X54298160Y50637848D01*
X54292503Y50638973D01*
X54292497Y50638975D01*
X54095234Y50678212D01*
X54032324Y50711119D01*
X53997192Y50772814D01*
X54000992Y50843709D01*
X54042517Y50901295D01*
X54101734Y50926487D01*
X54234015Y50945667D01*
X54234019Y50945668D01*
X54239730Y50946496D01*
X54308644Y50969889D01*
X54434483Y51012605D01*
X54434488Y51012607D01*
X54439955Y51014463D01*
X54450101Y51020145D01*
X54619395Y51114954D01*
X54619399Y51114957D01*
X54624442Y51117781D01*
X54787012Y51252988D01*
X54922219Y51415558D01*
X54925043Y51420601D01*
X54925046Y51420605D01*
X55022713Y51595002D01*
X55022714Y51595004D01*
X55025537Y51600045D01*
X55027393Y51605512D01*
X55027395Y51605517D01*
X55091647Y51794800D01*
X55093504Y51800270D01*
X55122021Y51996940D01*
X55123314Y52005860D01*
X55123314Y52005862D01*
X55123846Y52009530D01*
X55125429Y52070000D01*
X55106081Y52280560D01*
X55048686Y52484069D01*
X55045277Y52490983D01*
X54957719Y52668531D01*
X54955165Y52673710D01*
X54828651Y52843133D01*
X54673381Y52986663D01*
X54494554Y53099495D01*
X54298160Y53177848D01*
X54292503Y53178973D01*
X54292497Y53178975D01*
X54095234Y53218212D01*
X54032324Y53251119D01*
X53997192Y53312814D01*
X54000992Y53383709D01*
X54042517Y53441295D01*
X54101734Y53466487D01*
X54234015Y53485667D01*
X54234019Y53485668D01*
X54239730Y53486496D01*
X54308523Y53509848D01*
X54434483Y53552605D01*
X54434488Y53552607D01*
X54439955Y53554463D01*
X54444998Y53557287D01*
X54619395Y53654954D01*
X54619399Y53654957D01*
X54624442Y53657781D01*
X54787012Y53792988D01*
X54793183Y53800407D01*
X54891790Y53918970D01*
X54950727Y53958554D01*
X55021709Y53959990D01*
X55077759Y53927496D01*
G37*
G04 #@! TD.AperFunction*
G04 #@! TA.AperFunction,Conductor*
G36*
X68146207Y60386298D02*
G01*
X68192700Y60332642D01*
X68202804Y60262368D01*
X68189595Y60221633D01*
X68142523Y60132164D01*
X68115499Y60045133D01*
X68082470Y59938760D01*
X68079820Y59930227D01*
X68054967Y59720246D01*
X68068796Y59509251D01*
X68070217Y59503655D01*
X68070218Y59503650D01*
X68095763Y59403068D01*
X68120845Y59304310D01*
X68123262Y59299067D01*
X68172676Y59191879D01*
X68209369Y59112286D01*
X68331405Y58939609D01*
X68482865Y58792063D01*
X68487661Y58788858D01*
X68487664Y58788856D01*
X68608141Y58708356D01*
X68658677Y58674589D01*
X68663985Y58672308D01*
X68663986Y58672308D01*
X68847650Y58593400D01*
X68847653Y58593399D01*
X68852953Y58591122D01*
X68858582Y58589848D01*
X68858583Y58589848D01*
X69053550Y58545731D01*
X69053553Y58545731D01*
X69059186Y58544456D01*
X69064958Y58544229D01*
X69070687Y58543475D01*
X69070327Y58540743D01*
X69126604Y58521784D01*
X69170950Y58466341D01*
X69178282Y58395724D01*
X69146271Y58332353D01*
X69085081Y58296349D01*
X69075704Y58294368D01*
X68916650Y58267038D01*
X68916649Y58267038D01*
X68910953Y58266059D01*
X68712575Y58192873D01*
X68707614Y58189921D01*
X68707613Y58189921D01*
X68562949Y58103855D01*
X68530856Y58084762D01*
X68371881Y57945345D01*
X68240976Y57779292D01*
X68238287Y57774181D01*
X68238285Y57774178D01*
X68202257Y57705700D01*
X68142523Y57592164D01*
X68079820Y57390227D01*
X68054967Y57180246D01*
X68068796Y56969251D01*
X68070217Y56963655D01*
X68070218Y56963650D01*
X68114569Y56789021D01*
X68120845Y56764310D01*
X68123262Y56759067D01*
X68167150Y56663866D01*
X68209369Y56572286D01*
X68331405Y56399609D01*
X68482865Y56252063D01*
X68487661Y56248858D01*
X68487664Y56248856D01*
X68589944Y56180515D01*
X68658677Y56134589D01*
X68663985Y56132308D01*
X68663986Y56132308D01*
X68847650Y56053400D01*
X68847653Y56053399D01*
X68852953Y56051122D01*
X68858582Y56049848D01*
X68858583Y56049848D01*
X69053550Y56005731D01*
X69053553Y56005731D01*
X69059186Y56004456D01*
X69064958Y56004229D01*
X69070687Y56003475D01*
X69070327Y56000743D01*
X69126604Y55981784D01*
X69170950Y55926341D01*
X69178282Y55855724D01*
X69146271Y55792353D01*
X69085081Y55756349D01*
X69075704Y55754368D01*
X68916650Y55727038D01*
X68916649Y55727038D01*
X68910953Y55726059D01*
X68712575Y55652873D01*
X68707614Y55649921D01*
X68707613Y55649921D01*
X68544130Y55552659D01*
X68530856Y55544762D01*
X68371881Y55405345D01*
X68240976Y55239292D01*
X68238287Y55234181D01*
X68238285Y55234178D01*
X68188400Y55139362D01*
X68142523Y55052164D01*
X68079820Y54850227D01*
X68054967Y54640246D01*
X68068796Y54429251D01*
X68070217Y54423655D01*
X68070218Y54423650D01*
X68110790Y54263900D01*
X68120845Y54224310D01*
X68123262Y54219067D01*
X68197076Y54058951D01*
X68207431Y53988713D01*
X68178168Y53924028D01*
X68118579Y53885431D01*
X68082650Y53880200D01*
X56815187Y53880200D01*
X56747066Y53900202D01*
X56726092Y53917105D01*
X54849746Y55793451D01*
X54815720Y55855763D01*
X54820785Y55926578D01*
X54849746Y55971641D01*
X55277121Y56399016D01*
X55288211Y56408871D01*
X55305762Y56422707D01*
X55313165Y56428543D01*
X55344754Y56474249D01*
X55346960Y56477337D01*
X55379963Y56522018D01*
X55382229Y56528470D01*
X55386117Y56534096D01*
X55390255Y56547179D01*
X55402848Y56587000D01*
X55404102Y56590758D01*
X55419357Y56634196D01*
X55422477Y56643080D01*
X55422746Y56649916D01*
X55424807Y56656434D01*
X55425300Y56662698D01*
X55425300Y56712459D01*
X55425397Y56717405D01*
X55427144Y56761878D01*
X55427514Y56771291D01*
X55425708Y56778102D01*
X55425300Y56785517D01*
X55425300Y59849665D01*
X55445302Y59917786D01*
X55462205Y59938760D01*
X55892840Y60369395D01*
X55955152Y60403421D01*
X55981935Y60406300D01*
X68078086Y60406300D01*
X68146207Y60386298D01*
G37*
G04 #@! TD.AperFunction*
G04 #@! TA.AperFunction,Conductor*
G36*
X68129792Y67975098D02*
G01*
X68176285Y67921442D01*
X68186389Y67851168D01*
X68173180Y67810434D01*
X68142523Y67752164D01*
X68079820Y67550227D01*
X68054967Y67340246D01*
X68068796Y67129251D01*
X68070217Y67123655D01*
X68070218Y67123650D01*
X68114569Y66949020D01*
X68120845Y66924310D01*
X68123262Y66919067D01*
X68167464Y66823185D01*
X68209369Y66732286D01*
X68331405Y66559609D01*
X68482865Y66412063D01*
X68487661Y66408858D01*
X68487664Y66408856D01*
X68620509Y66320092D01*
X68658677Y66294589D01*
X68663985Y66292308D01*
X68663986Y66292308D01*
X68847650Y66213400D01*
X68847653Y66213399D01*
X68852953Y66211122D01*
X68858582Y66209848D01*
X68858583Y66209848D01*
X69053550Y66165731D01*
X69053553Y66165731D01*
X69059186Y66164456D01*
X69064958Y66164229D01*
X69070687Y66163475D01*
X69070327Y66160743D01*
X69126604Y66141784D01*
X69170950Y66086341D01*
X69178282Y66015724D01*
X69146271Y65952353D01*
X69085081Y65916349D01*
X69075704Y65914368D01*
X68916650Y65887038D01*
X68916649Y65887038D01*
X68910953Y65886059D01*
X68712575Y65812873D01*
X68707614Y65809921D01*
X68707613Y65809921D01*
X68539822Y65710096D01*
X68530856Y65704762D01*
X68371881Y65565345D01*
X68240976Y65399292D01*
X68238287Y65394181D01*
X68238285Y65394178D01*
X68188400Y65299362D01*
X68142523Y65212164D01*
X68079820Y65010227D01*
X68054967Y64800246D01*
X68068796Y64589251D01*
X68070217Y64583655D01*
X68070218Y64583650D01*
X68109413Y64429323D01*
X68120845Y64384310D01*
X68123262Y64379067D01*
X68167151Y64283865D01*
X68209369Y64192286D01*
X68331405Y64019609D01*
X68482865Y63872063D01*
X68487661Y63868858D01*
X68487664Y63868856D01*
X68520815Y63846705D01*
X68548524Y63828191D01*
X68594050Y63773716D01*
X68602899Y63703272D01*
X68572258Y63639228D01*
X68549615Y63619452D01*
X68541389Y63615502D01*
X68536367Y63610859D01*
X68530298Y63607707D01*
X68525520Y63603626D01*
X68490345Y63568451D01*
X68486780Y63565022D01*
X68447168Y63528405D01*
X68443629Y63522313D01*
X68438670Y63516776D01*
X66599499Y61677605D01*
X66537187Y61643579D01*
X66510404Y61640700D01*
X55160857Y61640700D01*
X55092736Y61660702D01*
X55046243Y61714358D01*
X55036139Y61784632D01*
X55041544Y61807201D01*
X55054809Y61846277D01*
X55093504Y61960270D01*
X55122021Y62156940D01*
X55123314Y62165860D01*
X55123314Y62165862D01*
X55123846Y62169530D01*
X55125429Y62230000D01*
X55106081Y62440560D01*
X55048686Y62644069D01*
X55045276Y62650985D01*
X54957719Y62828531D01*
X54955165Y62833710D01*
X54828651Y63003133D01*
X54673381Y63146663D01*
X54575629Y63208340D01*
X54499434Y63256416D01*
X54499433Y63256416D01*
X54494554Y63259495D01*
X54298160Y63337848D01*
X54292503Y63338973D01*
X54292497Y63338975D01*
X54095234Y63378212D01*
X54032324Y63411119D01*
X53997192Y63472814D01*
X54000992Y63543709D01*
X54042517Y63601295D01*
X54101734Y63626487D01*
X54234015Y63645667D01*
X54234019Y63645668D01*
X54239730Y63646496D01*
X54337199Y63679582D01*
X54434483Y63712605D01*
X54434488Y63712607D01*
X54439955Y63714463D01*
X54444998Y63717287D01*
X54619395Y63814954D01*
X54619399Y63814957D01*
X54624442Y63817781D01*
X54787012Y63952988D01*
X54922219Y64115558D01*
X54925043Y64120601D01*
X54925046Y64120605D01*
X55022713Y64295002D01*
X55022714Y64295004D01*
X55025537Y64300045D01*
X55027393Y64305512D01*
X55027395Y64305517D01*
X55074173Y64443324D01*
X55093504Y64500270D01*
X55123846Y64709530D01*
X55125429Y64770000D01*
X55106081Y64980560D01*
X55048686Y65184069D01*
X55045977Y65189564D01*
X54957719Y65368531D01*
X54955165Y65373710D01*
X54835312Y65534213D01*
X54832104Y65538509D01*
X54832103Y65538510D01*
X54828651Y65543133D01*
X54673381Y65686663D01*
X54668503Y65689741D01*
X54668491Y65689750D01*
X54636244Y65710096D01*
X54589306Y65763362D01*
X54578618Y65833550D01*
X54607572Y65898374D01*
X54635038Y65920222D01*
X54634608Y65920860D01*
X54635311Y65921198D01*
X54640333Y65925841D01*
X54646402Y65928993D01*
X54651180Y65933074D01*
X54686354Y65968248D01*
X54689920Y65971678D01*
X54709705Y65989967D01*
X54729532Y66008295D01*
X54733071Y66014387D01*
X54738025Y66019919D01*
X55277125Y66559020D01*
X55288216Y66568875D01*
X55305762Y66582707D01*
X55313165Y66588543D01*
X55344754Y66634249D01*
X55346960Y66637337D01*
X55379963Y66682018D01*
X55382229Y66688470D01*
X55386117Y66694096D01*
X55389503Y66704800D01*
X55402848Y66747000D01*
X55404102Y66750758D01*
X55419357Y66794196D01*
X55422477Y66803080D01*
X55422746Y66809916D01*
X55424807Y66816434D01*
X55425300Y66822698D01*
X55425300Y66872459D01*
X55425397Y66877405D01*
X55427144Y66921878D01*
X55427144Y66921879D01*
X55427514Y66931291D01*
X55425708Y66938102D01*
X55425300Y66945517D01*
X55425300Y67215665D01*
X55445302Y67283786D01*
X55462205Y67304760D01*
X56115640Y67958195D01*
X56177952Y67992221D01*
X56204735Y67995100D01*
X68061671Y67995100D01*
X68129792Y67975098D01*
G37*
G04 #@! TD.AperFunction*
G04 #@! TA.AperFunction,Conductor*
G36*
X68000566Y72771755D02*
G01*
X68057402Y72729208D01*
X68082213Y72662688D01*
X68080012Y72630845D01*
X68079820Y72630227D01*
X68054967Y72420246D01*
X68068796Y72209251D01*
X68070217Y72203655D01*
X68070218Y72203650D01*
X68114569Y72029020D01*
X68120845Y72004310D01*
X68123262Y71999067D01*
X68169107Y71899621D01*
X68209369Y71812286D01*
X68331405Y71639609D01*
X68482865Y71492063D01*
X68487661Y71488858D01*
X68487664Y71488856D01*
X68620509Y71400092D01*
X68658677Y71374589D01*
X68663985Y71372308D01*
X68663986Y71372308D01*
X68847650Y71293400D01*
X68847653Y71293399D01*
X68852953Y71291122D01*
X68858582Y71289848D01*
X68858583Y71289848D01*
X69053550Y71245731D01*
X69053553Y71245731D01*
X69059186Y71244456D01*
X69064958Y71244229D01*
X69070687Y71243475D01*
X69070327Y71240743D01*
X69126604Y71221784D01*
X69170950Y71166341D01*
X69178282Y71095724D01*
X69146271Y71032353D01*
X69085081Y70996349D01*
X69075704Y70994368D01*
X68916650Y70967038D01*
X68916649Y70967038D01*
X68910953Y70966059D01*
X68712575Y70892873D01*
X68707614Y70889921D01*
X68707613Y70889921D01*
X68572577Y70809583D01*
X68530856Y70784762D01*
X68371881Y70645345D01*
X68240976Y70479292D01*
X68238287Y70474181D01*
X68238285Y70474178D01*
X68211986Y70424191D01*
X68142523Y70292164D01*
X68079820Y70090227D01*
X68054967Y69880246D01*
X68068796Y69669251D01*
X68070217Y69663655D01*
X68070218Y69663650D01*
X68109413Y69509323D01*
X68120845Y69464310D01*
X68123262Y69459067D01*
X68138206Y69426651D01*
X68148561Y69356414D01*
X68119298Y69291728D01*
X68059710Y69253131D01*
X68023780Y69247900D01*
X56121735Y69247900D01*
X56053614Y69267902D01*
X56032640Y69284805D01*
X55462205Y69855240D01*
X55428179Y69917552D01*
X55425300Y69944335D01*
X55425300Y70243250D01*
X55426173Y70258061D01*
X55428321Y70276207D01*
X55429908Y70289615D01*
X55423549Y70324433D01*
X55419940Y70344196D01*
X55419290Y70348099D01*
X55412444Y70393634D01*
X55412444Y70393635D01*
X55411044Y70402945D01*
X55408084Y70409109D01*
X55406855Y70415838D01*
X55381278Y70465076D01*
X55379521Y70468592D01*
X55359580Y70510120D01*
X55359578Y70510124D01*
X55355502Y70518611D01*
X55350859Y70523633D01*
X55347707Y70529702D01*
X55343627Y70534479D01*
X55308451Y70569655D01*
X55305021Y70573221D01*
X55302228Y70576242D01*
X55268405Y70612832D01*
X55262313Y70616371D01*
X55256776Y70621330D01*
X55208701Y70669405D01*
X55174675Y70731717D01*
X55179740Y70802532D01*
X55222287Y70859368D01*
X55288807Y70884179D01*
X55297796Y70884500D01*
X65799590Y70884500D01*
X65814398Y70883627D01*
X65845955Y70879892D01*
X65855217Y70881584D01*
X65855226Y70881584D01*
X65900552Y70889863D01*
X65904460Y70890514D01*
X65906489Y70890819D01*
X65959284Y70898756D01*
X65965448Y70901716D01*
X65972177Y70902945D01*
X66021415Y70928522D01*
X66024931Y70930279D01*
X66066459Y70950220D01*
X66066463Y70950222D01*
X66074950Y70954298D01*
X66079972Y70958941D01*
X66086041Y70962093D01*
X66090819Y70966174D01*
X66125994Y71001349D01*
X66129560Y71004779D01*
X66162256Y71035003D01*
X66169171Y71041395D01*
X66172710Y71047487D01*
X66177669Y71053024D01*
X67867439Y72742794D01*
X67929751Y72776820D01*
X68000566Y72771755D01*
G37*
G04 #@! TD.AperFunction*
M02*
