G04 #@! TF.GenerationSoftware,KiCad,Pcbnew,(6.0.10-0)*
G04 #@! TF.CreationDate,2023-02-15T13:21:11+09:00*
G04 #@! TF.ProjectId,MEZ6809LED,4d455a36-3830-4394-9c45-442e6b696361,A*
G04 #@! TF.SameCoordinates,PX5ee3fe0PY8f872a0*
G04 #@! TF.FileFunction,Legend,Top*
G04 #@! TF.FilePolarity,Positive*
%FSLAX46Y46*%
G04 Gerber Fmt 4.6, Leading zero omitted, Abs format (unit mm)*
G04 Created by KiCad (PCBNEW (6.0.10-0)) date 2023-02-15 13:21:11*
%MOMM*%
%LPD*%
G01*
G04 APERTURE LIST*
%ADD10C,0.150000*%
%ADD11C,0.120000*%
G04 APERTURE END LIST*
D10*
X55070952Y3087620D02*
X55070952Y2373334D01*
X55023333Y2230477D01*
X54928095Y2135239D01*
X54785238Y2087620D01*
X54690000Y2087620D01*
X56023333Y2087620D02*
X55547142Y2087620D01*
X55547142Y3087620D01*
X56928095Y2182858D02*
X56880476Y2135239D01*
X56737619Y2087620D01*
X56642380Y2087620D01*
X56499523Y2135239D01*
X56404285Y2230477D01*
X56356666Y2325715D01*
X56309047Y2516191D01*
X56309047Y2659048D01*
X56356666Y2849524D01*
X56404285Y2944762D01*
X56499523Y3040000D01*
X56642380Y3087620D01*
X56737619Y3087620D01*
X56880476Y3040000D01*
X56928095Y2992381D01*
X57642380Y3087620D02*
X57642380Y2373334D01*
X57594761Y2230477D01*
X57499523Y2135239D01*
X57356666Y2087620D01*
X57261428Y2087620D01*
X58594761Y2087620D02*
X58118571Y2087620D01*
X58118571Y3087620D01*
X59499523Y2182858D02*
X59451904Y2135239D01*
X59309047Y2087620D01*
X59213809Y2087620D01*
X59070952Y2135239D01*
X58975714Y2230477D01*
X58928095Y2325715D01*
X58880476Y2516191D01*
X58880476Y2659048D01*
X58928095Y2849524D01*
X58975714Y2944762D01*
X59070952Y3040000D01*
X59213809Y3087620D01*
X59309047Y3087620D01*
X59451904Y3040000D01*
X59499523Y2992381D01*
X60213809Y3087620D02*
X60213809Y2373334D01*
X60166190Y2230477D01*
X60070952Y2135239D01*
X59928095Y2087620D01*
X59832857Y2087620D01*
X61166190Y2087620D02*
X60690000Y2087620D01*
X60690000Y3087620D01*
X62070952Y2182858D02*
X62023333Y2135239D01*
X61880476Y2087620D01*
X61785238Y2087620D01*
X61642380Y2135239D01*
X61547142Y2230477D01*
X61499523Y2325715D01*
X61451904Y2516191D01*
X61451904Y2659048D01*
X61499523Y2849524D01*
X61547142Y2944762D01*
X61642380Y3040000D01*
X61785238Y3087620D01*
X61880476Y3087620D01*
X62023333Y3040000D01*
X62070952Y2992381D01*
X62785238Y3087620D02*
X62785238Y2373334D01*
X62737619Y2230477D01*
X62642380Y2135239D01*
X62499523Y2087620D01*
X62404285Y2087620D01*
X63737619Y2087620D02*
X63261428Y2087620D01*
X63261428Y3087620D01*
X64642380Y2182858D02*
X64594761Y2135239D01*
X64451904Y2087620D01*
X64356666Y2087620D01*
X64213809Y2135239D01*
X64118571Y2230477D01*
X64070952Y2325715D01*
X64023333Y2516191D01*
X64023333Y2659048D01*
X64070952Y2849524D01*
X64118571Y2944762D01*
X64213809Y3040000D01*
X64356666Y3087620D01*
X64451904Y3087620D01*
X64594761Y3040000D01*
X64642380Y2992381D01*
X44003452Y49363334D02*
X44479642Y49363334D01*
X43908214Y49077620D02*
X44241547Y50077620D01*
X44574880Y49077620D01*
X44812976Y50077620D02*
X45432023Y50077620D01*
X45098690Y49696667D01*
X45241547Y49696667D01*
X45336785Y49649048D01*
X45384404Y49601429D01*
X45432023Y49506191D01*
X45432023Y49268096D01*
X45384404Y49172858D01*
X45336785Y49125239D01*
X45241547Y49077620D01*
X44955833Y49077620D01*
X44860595Y49125239D01*
X44812976Y49172858D01*
X76932500Y57980000D02*
X77932500Y57980000D01*
X77503928Y57221429D02*
X77646785Y57173810D01*
X77694404Y57126191D01*
X77742023Y57030953D01*
X77742023Y56888096D01*
X77694404Y56792858D01*
X77646785Y56745239D01*
X77551547Y56697620D01*
X77170595Y56697620D01*
X77170595Y57697620D01*
X77503928Y57697620D01*
X77599166Y57650000D01*
X77646785Y57602381D01*
X77694404Y57507143D01*
X77694404Y57411905D01*
X77646785Y57316667D01*
X77599166Y57269048D01*
X77503928Y57221429D01*
X77170595Y57221429D01*
X77932500Y57980000D02*
X78932500Y57980000D01*
X78742023Y56697620D02*
X78408690Y57173810D01*
X78170595Y56697620D02*
X78170595Y57697620D01*
X78551547Y57697620D01*
X78646785Y57650000D01*
X78694404Y57602381D01*
X78742023Y57507143D01*
X78742023Y57364286D01*
X78694404Y57269048D01*
X78646785Y57221429D01*
X78551547Y57173810D01*
X78170595Y57173810D01*
X78932500Y57980000D02*
X79837261Y57980000D01*
X79170595Y57221429D02*
X79503928Y57221429D01*
X79646785Y56697620D02*
X79170595Y56697620D01*
X79170595Y57697620D01*
X79646785Y57697620D01*
X79837261Y57980000D02*
X80884880Y57980000D01*
X80742023Y56602381D02*
X80646785Y56650000D01*
X80551547Y56745239D01*
X80408690Y56888096D01*
X80313452Y56935715D01*
X80218214Y56935715D01*
X80265833Y56697620D02*
X80170595Y56745239D01*
X80075357Y56840477D01*
X80027738Y57030953D01*
X80027738Y57364286D01*
X80075357Y57554762D01*
X80170595Y57650000D01*
X80265833Y57697620D01*
X80456309Y57697620D01*
X80551547Y57650000D01*
X80646785Y57554762D01*
X80694404Y57364286D01*
X80694404Y57030953D01*
X80646785Y56840477D01*
X80551547Y56745239D01*
X80456309Y56697620D01*
X80265833Y56697620D01*
X43056071Y26503334D02*
X43532261Y26503334D01*
X42960833Y26217620D02*
X43294166Y27217620D01*
X43627500Y26217620D01*
X44484642Y26217620D02*
X43913214Y26217620D01*
X44198928Y26217620D02*
X44198928Y27217620D01*
X44103690Y27074762D01*
X44008452Y26979524D01*
X43913214Y26931905D01*
X44865595Y27122381D02*
X44913214Y27170000D01*
X45008452Y27217620D01*
X45246547Y27217620D01*
X45341785Y27170000D01*
X45389404Y27122381D01*
X45437023Y27027143D01*
X45437023Y26931905D01*
X45389404Y26789048D01*
X44817976Y26217620D01*
X45437023Y26217620D01*
X38395595Y60237620D02*
X38728928Y59237620D01*
X39062261Y60237620D01*
X39967023Y59332858D02*
X39919404Y59285239D01*
X39776547Y59237620D01*
X39681309Y59237620D01*
X39538452Y59285239D01*
X39443214Y59380477D01*
X39395595Y59475715D01*
X39347976Y59666191D01*
X39347976Y59809048D01*
X39395595Y59999524D01*
X39443214Y60094762D01*
X39538452Y60190000D01*
X39681309Y60237620D01*
X39776547Y60237620D01*
X39919404Y60190000D01*
X39967023Y60142381D01*
X40967023Y59332858D02*
X40919404Y59285239D01*
X40776547Y59237620D01*
X40681309Y59237620D01*
X40538452Y59285239D01*
X40443214Y59380477D01*
X40395595Y59475715D01*
X40347976Y59666191D01*
X40347976Y59809048D01*
X40395595Y59999524D01*
X40443214Y60094762D01*
X40538452Y60190000D01*
X40681309Y60237620D01*
X40776547Y60237620D01*
X40919404Y60190000D01*
X40967023Y60142381D01*
X44341785Y62301429D02*
X44484642Y62253810D01*
X44532261Y62206191D01*
X44579880Y62110953D01*
X44579880Y61968096D01*
X44532261Y61872858D01*
X44484642Y61825239D01*
X44389404Y61777620D01*
X44008452Y61777620D01*
X44008452Y62777620D01*
X44341785Y62777620D01*
X44437023Y62730000D01*
X44484642Y62682381D01*
X44532261Y62587143D01*
X44532261Y62491905D01*
X44484642Y62396667D01*
X44437023Y62349048D01*
X44341785Y62301429D01*
X44008452Y62301429D01*
X44960833Y62063334D02*
X45437023Y62063334D01*
X44865595Y61777620D02*
X45198928Y62777620D01*
X45532261Y61777620D01*
X42246547Y68140000D02*
X43103690Y68140000D01*
X42817976Y67381429D02*
X42484642Y67381429D01*
X42484642Y66857620D02*
X42484642Y67857620D01*
X42960833Y67857620D01*
X43103690Y68140000D02*
X43579880Y68140000D01*
X43341785Y66857620D02*
X43341785Y67857620D01*
X43579880Y68140000D02*
X44579880Y68140000D01*
X44389404Y66857620D02*
X44056071Y67333810D01*
X43817976Y66857620D02*
X43817976Y67857620D01*
X44198928Y67857620D01*
X44294166Y67810000D01*
X44341785Y67762381D01*
X44389404Y67667143D01*
X44389404Y67524286D01*
X44341785Y67429048D01*
X44294166Y67381429D01*
X44198928Y67333810D01*
X43817976Y67333810D01*
X44579880Y68140000D02*
X45627500Y68140000D01*
X45484642Y66762381D02*
X45389404Y66810000D01*
X45294166Y66905239D01*
X45151309Y67048096D01*
X45056071Y67095715D01*
X44960833Y67095715D01*
X45008452Y66857620D02*
X44913214Y66905239D01*
X44817976Y67000477D01*
X44770357Y67190953D01*
X44770357Y67524286D01*
X44817976Y67714762D01*
X44913214Y67810000D01*
X45008452Y67857620D01*
X45198928Y67857620D01*
X45294166Y67810000D01*
X45389404Y67714762D01*
X45437023Y67524286D01*
X45437023Y67190953D01*
X45389404Y67000477D01*
X45294166Y66905239D01*
X45198928Y66857620D01*
X45008452Y66857620D01*
X77127976Y31583334D02*
X77604166Y31583334D01*
X77032738Y31297620D02*
X77366071Y32297620D01*
X77699404Y31297620D01*
X78556547Y31297620D02*
X77985119Y31297620D01*
X78270833Y31297620D02*
X78270833Y32297620D01*
X78175595Y32154762D01*
X78080357Y32059524D01*
X77985119Y32011905D01*
X79461309Y32297620D02*
X78985119Y32297620D01*
X78937500Y31821429D01*
X78985119Y31869048D01*
X79080357Y31916667D01*
X79318452Y31916667D01*
X79413690Y31869048D01*
X79461309Y31821429D01*
X79508928Y31726191D01*
X79508928Y31488096D01*
X79461309Y31392858D01*
X79413690Y31345239D01*
X79318452Y31297620D01*
X79080357Y31297620D01*
X78985119Y31345239D01*
X78937500Y31392858D01*
X77080357Y72937620D02*
X77747023Y71937620D01*
X77747023Y72937620D02*
X77080357Y71937620D01*
X77985119Y72937620D02*
X78556547Y72937620D01*
X78270833Y71937620D02*
X78270833Y72937620D01*
X78842261Y72223334D02*
X79318452Y72223334D01*
X78747023Y71937620D02*
X79080357Y72937620D01*
X79413690Y71937620D01*
X80223214Y71937620D02*
X79747023Y71937620D01*
X79747023Y72937620D01*
X77842261Y61682381D02*
X77747023Y61730000D01*
X77651785Y61825239D01*
X77508928Y61968096D01*
X77413690Y62015715D01*
X77318452Y62015715D01*
X77366071Y61777620D02*
X77270833Y61825239D01*
X77175595Y61920477D01*
X77127976Y62110953D01*
X77127976Y62444286D01*
X77175595Y62634762D01*
X77270833Y62730000D01*
X77366071Y62777620D01*
X77556547Y62777620D01*
X77651785Y62730000D01*
X77747023Y62634762D01*
X77794642Y62444286D01*
X77794642Y62110953D01*
X77747023Y61920477D01*
X77651785Y61825239D01*
X77556547Y61777620D01*
X77366071Y61777620D01*
X43998452Y51903334D02*
X44474642Y51903334D01*
X43903214Y51617620D02*
X44236547Y52617620D01*
X44569880Y51617620D01*
X44855595Y52522381D02*
X44903214Y52570000D01*
X44998452Y52617620D01*
X45236547Y52617620D01*
X45331785Y52570000D01*
X45379404Y52522381D01*
X45427023Y52427143D01*
X45427023Y52331905D01*
X45379404Y52189048D01*
X44807976Y51617620D01*
X45427023Y51617620D01*
X77175595Y38917620D02*
X77175595Y39917620D01*
X77413690Y39917620D01*
X77556547Y39870000D01*
X77651785Y39774762D01*
X77699404Y39679524D01*
X77747023Y39489048D01*
X77747023Y39346191D01*
X77699404Y39155715D01*
X77651785Y39060477D01*
X77556547Y38965239D01*
X77413690Y38917620D01*
X77175595Y38917620D01*
X78651785Y39917620D02*
X78175595Y39917620D01*
X78127976Y39441429D01*
X78175595Y39489048D01*
X78270833Y39536667D01*
X78508928Y39536667D01*
X78604166Y39489048D01*
X78651785Y39441429D01*
X78699404Y39346191D01*
X78699404Y39108096D01*
X78651785Y39012858D01*
X78604166Y38965239D01*
X78508928Y38917620D01*
X78270833Y38917620D01*
X78175595Y38965239D01*
X78127976Y39012858D01*
X44003452Y36663334D02*
X44479642Y36663334D01*
X43908214Y36377620D02*
X44241547Y37377620D01*
X44574880Y36377620D01*
X45051071Y36949048D02*
X44955833Y36996667D01*
X44908214Y37044286D01*
X44860595Y37139524D01*
X44860595Y37187143D01*
X44908214Y37282381D01*
X44955833Y37330000D01*
X45051071Y37377620D01*
X45241547Y37377620D01*
X45336785Y37330000D01*
X45384404Y37282381D01*
X45432023Y37187143D01*
X45432023Y37139524D01*
X45384404Y37044286D01*
X45336785Y36996667D01*
X45241547Y36949048D01*
X45051071Y36949048D01*
X44955833Y36901429D01*
X44908214Y36853810D01*
X44860595Y36758572D01*
X44860595Y36568096D01*
X44908214Y36472858D01*
X44955833Y36425239D01*
X45051071Y36377620D01*
X45241547Y36377620D01*
X45336785Y36425239D01*
X45384404Y36472858D01*
X45432023Y36568096D01*
X45432023Y36758572D01*
X45384404Y36853810D01*
X45336785Y36901429D01*
X45241547Y36949048D01*
X77175595Y41457620D02*
X77175595Y42457620D01*
X77413690Y42457620D01*
X77556547Y42410000D01*
X77651785Y42314762D01*
X77699404Y42219524D01*
X77747023Y42029048D01*
X77747023Y41886191D01*
X77699404Y41695715D01*
X77651785Y41600477D01*
X77556547Y41505239D01*
X77413690Y41457620D01*
X77175595Y41457620D01*
X78604166Y42124286D02*
X78604166Y41457620D01*
X78366071Y42505239D02*
X78127976Y41790953D01*
X78747023Y41790953D01*
X5939404Y10655000D02*
X5844166Y10702620D01*
X5701309Y10702620D01*
X5558452Y10655000D01*
X5463214Y10559762D01*
X5415595Y10464524D01*
X5367976Y10274048D01*
X5367976Y10131191D01*
X5415595Y9940715D01*
X5463214Y9845477D01*
X5558452Y9750239D01*
X5701309Y9702620D01*
X5796547Y9702620D01*
X5939404Y9750239D01*
X5987023Y9797858D01*
X5987023Y10131191D01*
X5796547Y10131191D01*
X6415595Y9702620D02*
X6415595Y10702620D01*
X6987023Y9702620D01*
X6987023Y10702620D01*
X7463214Y9702620D02*
X7463214Y10702620D01*
X7701309Y10702620D01*
X7844166Y10655000D01*
X7939404Y10559762D01*
X7987023Y10464524D01*
X8034642Y10274048D01*
X8034642Y10131191D01*
X7987023Y9940715D01*
X7939404Y9845477D01*
X7844166Y9750239D01*
X7701309Y9702620D01*
X7463214Y9702620D01*
X76937500Y68140000D02*
X77937500Y68140000D01*
X77747023Y66857620D02*
X77413690Y67333810D01*
X77175595Y66857620D02*
X77175595Y67857620D01*
X77556547Y67857620D01*
X77651785Y67810000D01*
X77699404Y67762381D01*
X77747023Y67667143D01*
X77747023Y67524286D01*
X77699404Y67429048D01*
X77651785Y67381429D01*
X77556547Y67333810D01*
X77175595Y67333810D01*
X77937500Y68140000D02*
X78842261Y68140000D01*
X78175595Y67381429D02*
X78508928Y67381429D01*
X78651785Y66857620D02*
X78175595Y66857620D01*
X78175595Y67857620D01*
X78651785Y67857620D01*
X78842261Y68140000D02*
X79794642Y68140000D01*
X79032738Y66905239D02*
X79175595Y66857620D01*
X79413690Y66857620D01*
X79508928Y66905239D01*
X79556547Y66952858D01*
X79604166Y67048096D01*
X79604166Y67143334D01*
X79556547Y67238572D01*
X79508928Y67286191D01*
X79413690Y67333810D01*
X79223214Y67381429D01*
X79127976Y67429048D01*
X79080357Y67476667D01*
X79032738Y67571905D01*
X79032738Y67667143D01*
X79080357Y67762381D01*
X79127976Y67810000D01*
X79223214Y67857620D01*
X79461309Y67857620D01*
X79604166Y67810000D01*
X79794642Y68140000D02*
X80699404Y68140000D01*
X80032738Y67381429D02*
X80366071Y67381429D01*
X80508928Y66857620D02*
X80032738Y66857620D01*
X80032738Y67857620D01*
X80508928Y67857620D01*
X80699404Y68140000D02*
X81461309Y68140000D01*
X80794642Y67857620D02*
X81366071Y67857620D01*
X81080357Y66857620D02*
X81080357Y67857620D01*
X77175595Y49077620D02*
X77175595Y50077620D01*
X77413690Y50077620D01*
X77556547Y50030000D01*
X77651785Y49934762D01*
X77699404Y49839524D01*
X77747023Y49649048D01*
X77747023Y49506191D01*
X77699404Y49315715D01*
X77651785Y49220477D01*
X77556547Y49125239D01*
X77413690Y49077620D01*
X77175595Y49077620D01*
X78699404Y49077620D02*
X78127976Y49077620D01*
X78413690Y49077620D02*
X78413690Y50077620D01*
X78318452Y49934762D01*
X78223214Y49839524D01*
X78127976Y49791905D01*
X44003452Y54443334D02*
X44479642Y54443334D01*
X43908214Y54157620D02*
X44241547Y55157620D01*
X44574880Y54157620D01*
X45432023Y54157620D02*
X44860595Y54157620D01*
X45146309Y54157620D02*
X45146309Y55157620D01*
X45051071Y55014762D01*
X44955833Y54919524D01*
X44860595Y54871905D01*
X44003452Y41743334D02*
X44479642Y41743334D01*
X43908214Y41457620D02*
X44241547Y42457620D01*
X44574880Y41457620D01*
X45336785Y42457620D02*
X45146309Y42457620D01*
X45051071Y42410000D01*
X45003452Y42362381D01*
X44908214Y42219524D01*
X44860595Y42029048D01*
X44860595Y41648096D01*
X44908214Y41552858D01*
X44955833Y41505239D01*
X45051071Y41457620D01*
X45241547Y41457620D01*
X45336785Y41505239D01*
X45384404Y41552858D01*
X45432023Y41648096D01*
X45432023Y41886191D01*
X45384404Y41981429D01*
X45336785Y42029048D01*
X45241547Y42076667D01*
X45051071Y42076667D01*
X44955833Y42029048D01*
X44908214Y41981429D01*
X44860595Y41886191D01*
X77742023Y54157620D02*
X77408690Y54633810D01*
X77170595Y54157620D02*
X77170595Y55157620D01*
X77551547Y55157620D01*
X77646785Y55110000D01*
X77694404Y55062381D01*
X77742023Y54967143D01*
X77742023Y54824286D01*
X77694404Y54729048D01*
X77646785Y54681429D01*
X77551547Y54633810D01*
X77170595Y54633810D01*
X78884880Y55205239D02*
X78027738Y53919524D01*
X78980119Y55440000D02*
X80122976Y55440000D01*
X79122976Y55157620D02*
X79361071Y54157620D01*
X79551547Y54871905D01*
X79742023Y54157620D01*
X79980119Y55157620D01*
X76937500Y75760000D02*
X77985119Y75760000D01*
X77175595Y74477620D02*
X77175595Y75477620D01*
X77175595Y75001429D02*
X77747023Y75001429D01*
X77747023Y74477620D02*
X77747023Y75477620D01*
X77985119Y75760000D02*
X78842261Y75760000D01*
X78175595Y74763334D02*
X78651785Y74763334D01*
X78080357Y74477620D02*
X78413690Y75477620D01*
X78747023Y74477620D01*
X78842261Y75760000D02*
X79651785Y75760000D01*
X79556547Y74477620D02*
X79080357Y74477620D01*
X79080357Y75477620D01*
X79651785Y75760000D02*
X80413690Y75760000D01*
X79747023Y75477620D02*
X80318452Y75477620D01*
X80032738Y74477620D02*
X80032738Y75477620D01*
X77175595Y69921429D02*
X77508928Y69921429D01*
X77651785Y69397620D02*
X77175595Y69397620D01*
X77175595Y70397620D01*
X77651785Y70397620D01*
X77985119Y70397620D02*
X78651785Y69397620D01*
X78651785Y70397620D02*
X77985119Y69397620D01*
X78889880Y70397620D02*
X79461309Y70397620D01*
X79175595Y69397620D02*
X79175595Y70397620D01*
X79747023Y69683334D02*
X80223214Y69683334D01*
X79651785Y69397620D02*
X79985119Y70397620D01*
X80318452Y69397620D01*
X81127976Y69397620D02*
X80651785Y69397620D01*
X80651785Y70397620D01*
X42960833Y75477620D02*
X43294166Y74477620D01*
X43627500Y75477620D01*
X43913214Y74525239D02*
X44056071Y74477620D01*
X44294166Y74477620D01*
X44389404Y74525239D01*
X44437023Y74572858D01*
X44484642Y74668096D01*
X44484642Y74763334D01*
X44437023Y74858572D01*
X44389404Y74906191D01*
X44294166Y74953810D01*
X44103690Y75001429D01*
X44008452Y75049048D01*
X43960833Y75096667D01*
X43913214Y75191905D01*
X43913214Y75287143D01*
X43960833Y75382381D01*
X44008452Y75430000D01*
X44103690Y75477620D01*
X44341785Y75477620D01*
X44484642Y75430000D01*
X44865595Y74525239D02*
X45008452Y74477620D01*
X45246547Y74477620D01*
X45341785Y74525239D01*
X45389404Y74572858D01*
X45437023Y74668096D01*
X45437023Y74763334D01*
X45389404Y74858572D01*
X45341785Y74906191D01*
X45246547Y74953810D01*
X45056071Y75001429D01*
X44960833Y75049048D01*
X44913214Y75096667D01*
X44865595Y75191905D01*
X44865595Y75287143D01*
X44913214Y75382381D01*
X44960833Y75430000D01*
X45056071Y75477620D01*
X45294166Y75477620D01*
X45437023Y75430000D01*
X44003452Y46823334D02*
X44479642Y46823334D01*
X43908214Y46537620D02*
X44241547Y47537620D01*
X44574880Y46537620D01*
X45336785Y47204286D02*
X45336785Y46537620D01*
X45098690Y47585239D02*
X44860595Y46870953D01*
X45479642Y46870953D01*
X57071190Y16057620D02*
X57071190Y17057620D01*
X57404523Y16343334D01*
X57737857Y17057620D01*
X57737857Y16057620D01*
X58214047Y16581429D02*
X58547380Y16581429D01*
X58690238Y16057620D02*
X58214047Y16057620D01*
X58214047Y17057620D01*
X58690238Y17057620D01*
X59023571Y17057620D02*
X59690238Y17057620D01*
X59023571Y16057620D01*
X59690238Y16057620D01*
X60499761Y17057620D02*
X60309285Y17057620D01*
X60214047Y17010000D01*
X60166428Y16962381D01*
X60071190Y16819524D01*
X60023571Y16629048D01*
X60023571Y16248096D01*
X60071190Y16152858D01*
X60118809Y16105239D01*
X60214047Y16057620D01*
X60404523Y16057620D01*
X60499761Y16105239D01*
X60547380Y16152858D01*
X60595000Y16248096D01*
X60595000Y16486191D01*
X60547380Y16581429D01*
X60499761Y16629048D01*
X60404523Y16676667D01*
X60214047Y16676667D01*
X60118809Y16629048D01*
X60071190Y16581429D01*
X60023571Y16486191D01*
X61166428Y16629048D02*
X61071190Y16676667D01*
X61023571Y16724286D01*
X60975952Y16819524D01*
X60975952Y16867143D01*
X61023571Y16962381D01*
X61071190Y17010000D01*
X61166428Y17057620D01*
X61356904Y17057620D01*
X61452142Y17010000D01*
X61499761Y16962381D01*
X61547380Y16867143D01*
X61547380Y16819524D01*
X61499761Y16724286D01*
X61452142Y16676667D01*
X61356904Y16629048D01*
X61166428Y16629048D01*
X61071190Y16581429D01*
X61023571Y16533810D01*
X60975952Y16438572D01*
X60975952Y16248096D01*
X61023571Y16152858D01*
X61071190Y16105239D01*
X61166428Y16057620D01*
X61356904Y16057620D01*
X61452142Y16105239D01*
X61499761Y16152858D01*
X61547380Y16248096D01*
X61547380Y16438572D01*
X61499761Y16533810D01*
X61452142Y16581429D01*
X61356904Y16629048D01*
X62166428Y17057620D02*
X62261666Y17057620D01*
X62356904Y17010000D01*
X62404523Y16962381D01*
X62452142Y16867143D01*
X62499761Y16676667D01*
X62499761Y16438572D01*
X62452142Y16248096D01*
X62404523Y16152858D01*
X62356904Y16105239D01*
X62261666Y16057620D01*
X62166428Y16057620D01*
X62071190Y16105239D01*
X62023571Y16152858D01*
X61975952Y16248096D01*
X61928333Y16438572D01*
X61928333Y16676667D01*
X61975952Y16867143D01*
X62023571Y16962381D01*
X62071190Y17010000D01*
X62166428Y17057620D01*
X62975952Y16057620D02*
X63166428Y16057620D01*
X63261666Y16105239D01*
X63309285Y16152858D01*
X63404523Y16295715D01*
X63452142Y16486191D01*
X63452142Y16867143D01*
X63404523Y16962381D01*
X63356904Y17010000D01*
X63261666Y17057620D01*
X63071190Y17057620D01*
X62975952Y17010000D01*
X62928333Y16962381D01*
X62880714Y16867143D01*
X62880714Y16629048D01*
X62928333Y16533810D01*
X62975952Y16486191D01*
X63071190Y16438572D01*
X63261666Y16438572D01*
X63356904Y16486191D01*
X63404523Y16533810D01*
X63452142Y16629048D01*
X64356904Y16057620D02*
X63880714Y16057620D01*
X63880714Y17057620D01*
X64690238Y16581429D02*
X65023571Y16581429D01*
X65166428Y16057620D02*
X64690238Y16057620D01*
X64690238Y17057620D01*
X65166428Y17057620D01*
X65595000Y16057620D02*
X65595000Y17057620D01*
X65833095Y17057620D01*
X65975952Y17010000D01*
X66071190Y16914762D01*
X66118809Y16819524D01*
X66166428Y16629048D01*
X66166428Y16486191D01*
X66118809Y16295715D01*
X66071190Y16200477D01*
X65975952Y16105239D01*
X65833095Y16057620D01*
X65595000Y16057620D01*
X77175595Y36377620D02*
X77175595Y37377620D01*
X77413690Y37377620D01*
X77556547Y37330000D01*
X77651785Y37234762D01*
X77699404Y37139524D01*
X77747023Y36949048D01*
X77747023Y36806191D01*
X77699404Y36615715D01*
X77651785Y36520477D01*
X77556547Y36425239D01*
X77413690Y36377620D01*
X77175595Y36377620D01*
X78604166Y37377620D02*
X78413690Y37377620D01*
X78318452Y37330000D01*
X78270833Y37282381D01*
X78175595Y37139524D01*
X78127976Y36949048D01*
X78127976Y36568096D01*
X78175595Y36472858D01*
X78223214Y36425239D01*
X78318452Y36377620D01*
X78508928Y36377620D01*
X78604166Y36425239D01*
X78651785Y36472858D01*
X78699404Y36568096D01*
X78699404Y36806191D01*
X78651785Y36901429D01*
X78604166Y36949048D01*
X78508928Y36996667D01*
X78318452Y36996667D01*
X78223214Y36949048D01*
X78175595Y36901429D01*
X78127976Y36806191D01*
X5415595Y7162620D02*
X5415595Y8162620D01*
X5653690Y8162620D01*
X5796547Y8115000D01*
X5891785Y8019762D01*
X5939404Y7924524D01*
X5987023Y7734048D01*
X5987023Y7591191D01*
X5939404Y7400715D01*
X5891785Y7305477D01*
X5796547Y7210239D01*
X5653690Y7162620D01*
X5415595Y7162620D01*
X6415595Y7162620D02*
X6415595Y8162620D01*
X6891785Y7162620D02*
X6891785Y8162620D01*
X7463214Y7162620D01*
X7463214Y8162620D01*
X43051071Y29043334D02*
X43527261Y29043334D01*
X42955833Y28757620D02*
X43289166Y29757620D01*
X43622500Y28757620D01*
X44479642Y28757620D02*
X43908214Y28757620D01*
X44193928Y28757620D02*
X44193928Y29757620D01*
X44098690Y29614762D01*
X44003452Y29519524D01*
X43908214Y29471905D01*
X45432023Y28757620D02*
X44860595Y28757620D01*
X45146309Y28757620D02*
X45146309Y29757620D01*
X45051071Y29614762D01*
X44955833Y29519524D01*
X44860595Y29471905D01*
X44003452Y39203334D02*
X44479642Y39203334D01*
X43908214Y38917620D02*
X44241547Y39917620D01*
X44574880Y38917620D01*
X44812976Y39917620D02*
X45479642Y39917620D01*
X45051071Y38917620D01*
X44003452Y34123334D02*
X44479642Y34123334D01*
X43908214Y33837620D02*
X44241547Y34837620D01*
X44574880Y33837620D01*
X44955833Y33837620D02*
X45146309Y33837620D01*
X45241547Y33885239D01*
X45289166Y33932858D01*
X45384404Y34075715D01*
X45432023Y34266191D01*
X45432023Y34647143D01*
X45384404Y34742381D01*
X45336785Y34790000D01*
X45241547Y34837620D01*
X45051071Y34837620D01*
X44955833Y34790000D01*
X44908214Y34742381D01*
X44860595Y34647143D01*
X44860595Y34409048D01*
X44908214Y34313810D01*
X44955833Y34266191D01*
X45051071Y34218572D01*
X45241547Y34218572D01*
X45336785Y34266191D01*
X45384404Y34313810D01*
X45432023Y34409048D01*
X5987023Y4717858D02*
X5939404Y4670239D01*
X5796547Y4622620D01*
X5701309Y4622620D01*
X5558452Y4670239D01*
X5463214Y4765477D01*
X5415595Y4860715D01*
X5367976Y5051191D01*
X5367976Y5194048D01*
X5415595Y5384524D01*
X5463214Y5479762D01*
X5558452Y5575000D01*
X5701309Y5622620D01*
X5796547Y5622620D01*
X5939404Y5575000D01*
X5987023Y5527381D01*
X6367976Y4670239D02*
X6510833Y4622620D01*
X6748928Y4622620D01*
X6844166Y4670239D01*
X6891785Y4717858D01*
X6939404Y4813096D01*
X6939404Y4908334D01*
X6891785Y5003572D01*
X6844166Y5051191D01*
X6748928Y5098810D01*
X6558452Y5146429D01*
X6463214Y5194048D01*
X6415595Y5241667D01*
X6367976Y5336905D01*
X6367976Y5432143D01*
X6415595Y5527381D01*
X6463214Y5575000D01*
X6558452Y5622620D01*
X6796547Y5622620D01*
X6939404Y5575000D01*
X77175595Y43997620D02*
X77175595Y44997620D01*
X77413690Y44997620D01*
X77556547Y44950000D01*
X77651785Y44854762D01*
X77699404Y44759524D01*
X77747023Y44569048D01*
X77747023Y44426191D01*
X77699404Y44235715D01*
X77651785Y44140477D01*
X77556547Y44045239D01*
X77413690Y43997620D01*
X77175595Y43997620D01*
X78080357Y44997620D02*
X78699404Y44997620D01*
X78366071Y44616667D01*
X78508928Y44616667D01*
X78604166Y44569048D01*
X78651785Y44521429D01*
X78699404Y44426191D01*
X78699404Y44188096D01*
X78651785Y44092858D01*
X78604166Y44045239D01*
X78508928Y43997620D01*
X78223214Y43997620D01*
X78127976Y44045239D01*
X78080357Y44092858D01*
X5987023Y2177858D02*
X5939404Y2130239D01*
X5796547Y2082620D01*
X5701309Y2082620D01*
X5558452Y2130239D01*
X5463214Y2225477D01*
X5415595Y2320715D01*
X5367976Y2511191D01*
X5367976Y2654048D01*
X5415595Y2844524D01*
X5463214Y2939762D01*
X5558452Y3035000D01*
X5701309Y3082620D01*
X5796547Y3082620D01*
X5939404Y3035000D01*
X5987023Y2987381D01*
X6891785Y2082620D02*
X6415595Y2082620D01*
X6415595Y3082620D01*
X7225119Y2082620D02*
X7225119Y3082620D01*
X7796547Y2082620D02*
X7367976Y2654048D01*
X7796547Y3082620D02*
X7225119Y2511191D01*
X58861904Y61777620D02*
X58861904Y62777620D01*
X59195238Y62063334D01*
X59528571Y62777620D01*
X59528571Y61777620D01*
X60576190Y61872858D02*
X60528571Y61825239D01*
X60385714Y61777620D01*
X60290476Y61777620D01*
X60147619Y61825239D01*
X60052380Y61920477D01*
X60004761Y62015715D01*
X59957142Y62206191D01*
X59957142Y62349048D01*
X60004761Y62539524D01*
X60052380Y62634762D01*
X60147619Y62730000D01*
X60290476Y62777620D01*
X60385714Y62777620D01*
X60528571Y62730000D01*
X60576190Y62682381D01*
X61433333Y62777620D02*
X61242857Y62777620D01*
X61147619Y62730000D01*
X61100000Y62682381D01*
X61004761Y62539524D01*
X60957142Y62349048D01*
X60957142Y61968096D01*
X61004761Y61872858D01*
X61052380Y61825239D01*
X61147619Y61777620D01*
X61338095Y61777620D01*
X61433333Y61825239D01*
X61480952Y61872858D01*
X61528571Y61968096D01*
X61528571Y62206191D01*
X61480952Y62301429D01*
X61433333Y62349048D01*
X61338095Y62396667D01*
X61147619Y62396667D01*
X61052380Y62349048D01*
X61004761Y62301429D01*
X60957142Y62206191D01*
X62100000Y62349048D02*
X62004761Y62396667D01*
X61957142Y62444286D01*
X61909523Y62539524D01*
X61909523Y62587143D01*
X61957142Y62682381D01*
X62004761Y62730000D01*
X62100000Y62777620D01*
X62290476Y62777620D01*
X62385714Y62730000D01*
X62433333Y62682381D01*
X62480952Y62587143D01*
X62480952Y62539524D01*
X62433333Y62444286D01*
X62385714Y62396667D01*
X62290476Y62349048D01*
X62100000Y62349048D01*
X62004761Y62301429D01*
X61957142Y62253810D01*
X61909523Y62158572D01*
X61909523Y61968096D01*
X61957142Y61872858D01*
X62004761Y61825239D01*
X62100000Y61777620D01*
X62290476Y61777620D01*
X62385714Y61825239D01*
X62433333Y61872858D01*
X62480952Y61968096D01*
X62480952Y62158572D01*
X62433333Y62253810D01*
X62385714Y62301429D01*
X62290476Y62349048D01*
X63100000Y62777620D02*
X63195238Y62777620D01*
X63290476Y62730000D01*
X63338095Y62682381D01*
X63385714Y62587143D01*
X63433333Y62396667D01*
X63433333Y62158572D01*
X63385714Y61968096D01*
X63338095Y61872858D01*
X63290476Y61825239D01*
X63195238Y61777620D01*
X63100000Y61777620D01*
X63004761Y61825239D01*
X62957142Y61872858D01*
X62909523Y61968096D01*
X62861904Y62158572D01*
X62861904Y62396667D01*
X62909523Y62587143D01*
X62957142Y62682381D01*
X63004761Y62730000D01*
X63100000Y62777620D01*
X63909523Y61777620D02*
X64100000Y61777620D01*
X64195238Y61825239D01*
X64242857Y61872858D01*
X64338095Y62015715D01*
X64385714Y62206191D01*
X64385714Y62587143D01*
X64338095Y62682381D01*
X64290476Y62730000D01*
X64195238Y62777620D01*
X64004761Y62777620D01*
X63909523Y62730000D01*
X63861904Y62682381D01*
X63814285Y62587143D01*
X63814285Y62349048D01*
X63861904Y62253810D01*
X63909523Y62206191D01*
X64004761Y62158572D01*
X64195238Y62158572D01*
X64290476Y62206191D01*
X64338095Y62253810D01*
X64385714Y62349048D01*
X44003452Y56983334D02*
X44479642Y56983334D01*
X43908214Y56697620D02*
X44241547Y57697620D01*
X44574880Y56697620D01*
X45098690Y57697620D02*
X45193928Y57697620D01*
X45289166Y57650000D01*
X45336785Y57602381D01*
X45384404Y57507143D01*
X45432023Y57316667D01*
X45432023Y57078572D01*
X45384404Y56888096D01*
X45336785Y56792858D01*
X45289166Y56745239D01*
X45193928Y56697620D01*
X45098690Y56697620D01*
X45003452Y56745239D01*
X44955833Y56792858D01*
X44908214Y56888096D01*
X44860595Y57078572D01*
X44860595Y57316667D01*
X44908214Y57507143D01*
X44955833Y57602381D01*
X45003452Y57650000D01*
X45098690Y57697620D01*
X77175595Y64317620D02*
X77175595Y65317620D01*
X77508928Y64603334D01*
X77842261Y65317620D01*
X77842261Y64317620D01*
X78889880Y64317620D02*
X78556547Y64793810D01*
X78318452Y64317620D02*
X78318452Y65317620D01*
X78699404Y65317620D01*
X78794642Y65270000D01*
X78842261Y65222381D01*
X78889880Y65127143D01*
X78889880Y64984286D01*
X78842261Y64889048D01*
X78794642Y64841429D01*
X78699404Y64793810D01*
X78318452Y64793810D01*
X79318452Y64317620D02*
X79318452Y65317620D01*
X79556547Y65317620D01*
X79699404Y65270000D01*
X79794642Y65174762D01*
X79842261Y65079524D01*
X79889880Y64889048D01*
X79889880Y64746191D01*
X79842261Y64555715D01*
X79794642Y64460477D01*
X79699404Y64365239D01*
X79556547Y64317620D01*
X79318452Y64317620D01*
X80508928Y64793810D02*
X80508928Y64317620D01*
X80175595Y65317620D02*
X80508928Y64793810D01*
X80842261Y65317620D01*
X5272738Y13242620D02*
X5606071Y12242620D01*
X5939404Y13242620D01*
X6844166Y12337858D02*
X6796547Y12290239D01*
X6653690Y12242620D01*
X6558452Y12242620D01*
X6415595Y12290239D01*
X6320357Y12385477D01*
X6272738Y12480715D01*
X6225119Y12671191D01*
X6225119Y12814048D01*
X6272738Y13004524D01*
X6320357Y13099762D01*
X6415595Y13195000D01*
X6558452Y13242620D01*
X6653690Y13242620D01*
X6796547Y13195000D01*
X6844166Y13147381D01*
X7844166Y12337858D02*
X7796547Y12290239D01*
X7653690Y12242620D01*
X7558452Y12242620D01*
X7415595Y12290239D01*
X7320357Y12385477D01*
X7272738Y12480715D01*
X7225119Y12671191D01*
X7225119Y12814048D01*
X7272738Y13004524D01*
X7320357Y13099762D01*
X7415595Y13195000D01*
X7558452Y13242620D01*
X7653690Y13242620D01*
X7796547Y13195000D01*
X7844166Y13147381D01*
X77127976Y26503334D02*
X77604166Y26503334D01*
X77032738Y26217620D02*
X77366071Y27217620D01*
X77699404Y26217620D01*
X78556547Y26217620D02*
X77985119Y26217620D01*
X78270833Y26217620D02*
X78270833Y27217620D01*
X78175595Y27074762D01*
X78080357Y26979524D01*
X77985119Y26931905D01*
X78889880Y27217620D02*
X79508928Y27217620D01*
X79175595Y26836667D01*
X79318452Y26836667D01*
X79413690Y26789048D01*
X79461309Y26741429D01*
X79508928Y26646191D01*
X79508928Y26408096D01*
X79461309Y26312858D01*
X79413690Y26265239D01*
X79318452Y26217620D01*
X79032738Y26217620D01*
X78937500Y26265239D01*
X78889880Y26312858D01*
X44003452Y44283334D02*
X44479642Y44283334D01*
X43908214Y43997620D02*
X44241547Y44997620D01*
X44574880Y43997620D01*
X45384404Y44997620D02*
X44908214Y44997620D01*
X44860595Y44521429D01*
X44908214Y44569048D01*
X45003452Y44616667D01*
X45241547Y44616667D01*
X45336785Y44569048D01*
X45384404Y44521429D01*
X45432023Y44426191D01*
X45432023Y44188096D01*
X45384404Y44092858D01*
X45336785Y44045239D01*
X45241547Y43997620D01*
X45003452Y43997620D01*
X44908214Y44045239D01*
X44860595Y44092858D01*
X44246547Y64841429D02*
X44389404Y64793810D01*
X44437023Y64746191D01*
X44484642Y64650953D01*
X44484642Y64508096D01*
X44437023Y64412858D01*
X44389404Y64365239D01*
X44294166Y64317620D01*
X43913214Y64317620D01*
X43913214Y65317620D01*
X44246547Y65317620D01*
X44341785Y65270000D01*
X44389404Y65222381D01*
X44437023Y65127143D01*
X44437023Y65031905D01*
X44389404Y64936667D01*
X44341785Y64889048D01*
X44246547Y64841429D01*
X43913214Y64841429D01*
X44865595Y64365239D02*
X45008452Y64317620D01*
X45246547Y64317620D01*
X45341785Y64365239D01*
X45389404Y64412858D01*
X45437023Y64508096D01*
X45437023Y64603334D01*
X45389404Y64698572D01*
X45341785Y64746191D01*
X45246547Y64793810D01*
X45056071Y64841429D01*
X44960833Y64889048D01*
X44913214Y64936667D01*
X44865595Y65031905D01*
X44865595Y65127143D01*
X44913214Y65222381D01*
X44960833Y65270000D01*
X45056071Y65317620D01*
X45294166Y65317620D01*
X45437023Y65270000D01*
X77175595Y46537620D02*
X77175595Y47537620D01*
X77413690Y47537620D01*
X77556547Y47490000D01*
X77651785Y47394762D01*
X77699404Y47299524D01*
X77747023Y47109048D01*
X77747023Y46966191D01*
X77699404Y46775715D01*
X77651785Y46680477D01*
X77556547Y46585239D01*
X77413690Y46537620D01*
X77175595Y46537620D01*
X78127976Y47442381D02*
X78175595Y47490000D01*
X78270833Y47537620D01*
X78508928Y47537620D01*
X78604166Y47490000D01*
X78651785Y47442381D01*
X78699404Y47347143D01*
X78699404Y47251905D01*
X78651785Y47109048D01*
X78080357Y46537620D01*
X78699404Y46537620D01*
X77175595Y59761429D02*
X77508928Y59761429D01*
X77651785Y59237620D02*
X77175595Y59237620D01*
X77175595Y60237620D01*
X77651785Y60237620D01*
X77175595Y33837620D02*
X77175595Y34837620D01*
X77413690Y34837620D01*
X77556547Y34790000D01*
X77651785Y34694762D01*
X77699404Y34599524D01*
X77747023Y34409048D01*
X77747023Y34266191D01*
X77699404Y34075715D01*
X77651785Y33980477D01*
X77556547Y33885239D01*
X77413690Y33837620D01*
X77175595Y33837620D01*
X78080357Y34837620D02*
X78747023Y34837620D01*
X78318452Y33837620D01*
X43051071Y31583334D02*
X43527261Y31583334D01*
X42955833Y31297620D02*
X43289166Y32297620D01*
X43622500Y31297620D01*
X44479642Y31297620D02*
X43908214Y31297620D01*
X44193928Y31297620D02*
X44193928Y32297620D01*
X44098690Y32154762D01*
X44003452Y32059524D01*
X43908214Y32011905D01*
X45098690Y32297620D02*
X45193928Y32297620D01*
X45289166Y32250000D01*
X45336785Y32202381D01*
X45384404Y32107143D01*
X45432023Y31916667D01*
X45432023Y31678572D01*
X45384404Y31488096D01*
X45336785Y31392858D01*
X45289166Y31345239D01*
X45193928Y31297620D01*
X45098690Y31297620D01*
X45003452Y31345239D01*
X44955833Y31392858D01*
X44908214Y31488096D01*
X44860595Y31678572D01*
X44860595Y31916667D01*
X44908214Y32107143D01*
X44955833Y32202381D01*
X45003452Y32250000D01*
X45098690Y32297620D01*
X77175595Y51617620D02*
X77175595Y52617620D01*
X77413690Y52617620D01*
X77556547Y52570000D01*
X77651785Y52474762D01*
X77699404Y52379524D01*
X77747023Y52189048D01*
X77747023Y52046191D01*
X77699404Y51855715D01*
X77651785Y51760477D01*
X77556547Y51665239D01*
X77413690Y51617620D01*
X77175595Y51617620D01*
X78366071Y52617620D02*
X78461309Y52617620D01*
X78556547Y52570000D01*
X78604166Y52522381D01*
X78651785Y52427143D01*
X78699404Y52236667D01*
X78699404Y51998572D01*
X78651785Y51808096D01*
X78604166Y51712858D01*
X78556547Y51665239D01*
X78461309Y51617620D01*
X78366071Y51617620D01*
X78270833Y51665239D01*
X78223214Y51712858D01*
X78175595Y51808096D01*
X78127976Y51998572D01*
X78127976Y52236667D01*
X78175595Y52427143D01*
X78223214Y52522381D01*
X78270833Y52570000D01*
X78366071Y52617620D01*
X77127976Y29043334D02*
X77604166Y29043334D01*
X77032738Y28757620D02*
X77366071Y29757620D01*
X77699404Y28757620D01*
X78556547Y28757620D02*
X77985119Y28757620D01*
X78270833Y28757620D02*
X78270833Y29757620D01*
X78175595Y29614762D01*
X78080357Y29519524D01*
X77985119Y29471905D01*
X79413690Y29424286D02*
X79413690Y28757620D01*
X79175595Y29805239D02*
X78937500Y29090953D01*
X79556547Y29090953D01*
X43103690Y70680000D02*
X43579880Y70680000D01*
X43341785Y69397620D02*
X43341785Y70397620D01*
X43579880Y70680000D02*
X44579880Y70680000D01*
X44389404Y69397620D02*
X44056071Y69873810D01*
X43817976Y69397620D02*
X43817976Y70397620D01*
X44198928Y70397620D01*
X44294166Y70350000D01*
X44341785Y70302381D01*
X44389404Y70207143D01*
X44389404Y70064286D01*
X44341785Y69969048D01*
X44294166Y69921429D01*
X44198928Y69873810D01*
X43817976Y69873810D01*
X44579880Y70680000D02*
X45627500Y70680000D01*
X45484642Y69302381D02*
X45389404Y69350000D01*
X45294166Y69445239D01*
X45151309Y69588096D01*
X45056071Y69635715D01*
X44960833Y69635715D01*
X45008452Y69397620D02*
X44913214Y69445239D01*
X44817976Y69540477D01*
X44770357Y69730953D01*
X44770357Y70064286D01*
X44817976Y70254762D01*
X44913214Y70350000D01*
X45008452Y70397620D01*
X45198928Y70397620D01*
X45294166Y70350000D01*
X45389404Y70254762D01*
X45437023Y70064286D01*
X45437023Y69730953D01*
X45389404Y69540477D01*
X45294166Y69445239D01*
X45198928Y69397620D01*
X45008452Y69397620D01*
X42960833Y73220000D02*
X44008452Y73220000D01*
X43198928Y71937620D02*
X43198928Y72937620D01*
X43770357Y71937620D01*
X43770357Y72937620D01*
X44008452Y73220000D02*
X45151309Y73220000D01*
X44246547Y71937620D02*
X44246547Y72937620D01*
X44579880Y72223334D01*
X44913214Y72937620D01*
X44913214Y71937620D01*
X45151309Y73220000D02*
X45627500Y73220000D01*
X45389404Y71937620D02*
X45389404Y72937620D01*
X60833095Y44997620D02*
X60833095Y44188096D01*
X60880714Y44092858D01*
X60928333Y44045239D01*
X61023571Y43997620D01*
X61214047Y43997620D01*
X61309285Y44045239D01*
X61356904Y44092858D01*
X61404523Y44188096D01*
X61404523Y44997620D01*
X62404523Y43997620D02*
X61833095Y43997620D01*
X62118809Y43997620D02*
X62118809Y44997620D01*
X62023571Y44854762D01*
X61928333Y44759524D01*
X61833095Y44711905D01*
X42378333Y19232620D02*
X42045000Y19708810D01*
X41806904Y19232620D02*
X41806904Y20232620D01*
X42187857Y20232620D01*
X42283095Y20185000D01*
X42330714Y20137381D01*
X42378333Y20042143D01*
X42378333Y19899286D01*
X42330714Y19804048D01*
X42283095Y19756429D01*
X42187857Y19708810D01*
X41806904Y19708810D01*
X42759285Y20137381D02*
X42806904Y20185000D01*
X42902142Y20232620D01*
X43140238Y20232620D01*
X43235476Y20185000D01*
X43283095Y20137381D01*
X43330714Y20042143D01*
X43330714Y19946905D01*
X43283095Y19804048D01*
X42711666Y19232620D01*
X43330714Y19232620D01*
X42378333Y16057620D02*
X42045000Y16533810D01*
X41806904Y16057620D02*
X41806904Y17057620D01*
X42187857Y17057620D01*
X42283095Y17010000D01*
X42330714Y16962381D01*
X42378333Y16867143D01*
X42378333Y16724286D01*
X42330714Y16629048D01*
X42283095Y16581429D01*
X42187857Y16533810D01*
X41806904Y16533810D01*
X42711666Y17057620D02*
X43330714Y17057620D01*
X42997380Y16676667D01*
X43140238Y16676667D01*
X43235476Y16629048D01*
X43283095Y16581429D01*
X43330714Y16486191D01*
X43330714Y16248096D01*
X43283095Y16152858D01*
X43235476Y16105239D01*
X43140238Y16057620D01*
X42854523Y16057620D01*
X42759285Y16105239D01*
X42711666Y16152858D01*
X38987023Y61237858D02*
X38939404Y61190239D01*
X38796547Y61142620D01*
X38701309Y61142620D01*
X38558452Y61190239D01*
X38463214Y61285477D01*
X38415595Y61380715D01*
X38367976Y61571191D01*
X38367976Y61714048D01*
X38415595Y61904524D01*
X38463214Y61999762D01*
X38558452Y62095000D01*
X38701309Y62142620D01*
X38796547Y62142620D01*
X38939404Y62095000D01*
X38987023Y62047381D01*
X39939404Y61142620D02*
X39367976Y61142620D01*
X39653690Y61142620D02*
X39653690Y62142620D01*
X39558452Y61999762D01*
X39463214Y61904524D01*
X39367976Y61856905D01*
X69937333Y22407620D02*
X69604000Y22883810D01*
X69365904Y22407620D02*
X69365904Y23407620D01*
X69746857Y23407620D01*
X69842095Y23360000D01*
X69889714Y23312381D01*
X69937333Y23217143D01*
X69937333Y23074286D01*
X69889714Y22979048D01*
X69842095Y22931429D01*
X69746857Y22883810D01*
X69365904Y22883810D01*
X70794476Y23074286D02*
X70794476Y22407620D01*
X70556380Y23455239D02*
X70318285Y22740953D01*
X70937333Y22740953D01*
X69937333Y19232620D02*
X69604000Y19708810D01*
X69365904Y19232620D02*
X69365904Y20232620D01*
X69746857Y20232620D01*
X69842095Y20185000D01*
X69889714Y20137381D01*
X69937333Y20042143D01*
X69937333Y19899286D01*
X69889714Y19804048D01*
X69842095Y19756429D01*
X69746857Y19708810D01*
X69365904Y19708810D01*
X70842095Y20232620D02*
X70365904Y20232620D01*
X70318285Y19756429D01*
X70365904Y19804048D01*
X70461142Y19851667D01*
X70699238Y19851667D01*
X70794476Y19804048D01*
X70842095Y19756429D01*
X70889714Y19661191D01*
X70889714Y19423096D01*
X70842095Y19327858D01*
X70794476Y19280239D01*
X70699238Y19232620D01*
X70461142Y19232620D01*
X70365904Y19280239D01*
X70318285Y19327858D01*
X42378333Y22407620D02*
X42045000Y22883810D01*
X41806904Y22407620D02*
X41806904Y23407620D01*
X42187857Y23407620D01*
X42283095Y23360000D01*
X42330714Y23312381D01*
X42378333Y23217143D01*
X42378333Y23074286D01*
X42330714Y22979048D01*
X42283095Y22931429D01*
X42187857Y22883810D01*
X41806904Y22883810D01*
X43330714Y22407620D02*
X42759285Y22407620D01*
X43045000Y22407620D02*
X43045000Y23407620D01*
X42949761Y23264762D01*
X42854523Y23169524D01*
X42759285Y23121905D01*
D11*
X46930000Y73660000D02*
X46930000Y25340000D01*
X49590000Y73660000D02*
X49590000Y25340000D01*
X46930000Y25340000D02*
X49590000Y25340000D01*
X46930000Y73660000D02*
X49590000Y73660000D01*
X48260000Y76260000D02*
X49590000Y76260000D01*
X49590000Y76260000D02*
X49590000Y74930000D01*
X68050000Y25340000D02*
X68050000Y76260000D01*
X68050000Y76260000D02*
X62590000Y76260000D01*
X55130000Y76260000D02*
X55130000Y25340000D01*
X60590000Y76260000D02*
X55130000Y76260000D01*
X55130000Y25340000D02*
X68050000Y25340000D01*
X60590000Y76260000D02*
G75*
G03*
X62590000Y76260000I1000000J0D01*
G01*
X53435000Y18315000D02*
X53435000Y21055000D01*
X54205000Y19685000D02*
X53435000Y19685000D01*
X46895000Y21055000D02*
X46895000Y18315000D01*
X46895000Y18315000D02*
X53435000Y18315000D01*
X53435000Y21055000D02*
X46895000Y21055000D01*
X46125000Y19685000D02*
X46895000Y19685000D01*
X575000Y11425000D02*
X575000Y1205000D01*
X575000Y14025000D02*
X1905000Y14025000D01*
X575000Y1205000D02*
X3235000Y1205000D01*
X575000Y12695000D02*
X575000Y14025000D01*
X575000Y11425000D02*
X3235000Y11425000D01*
X3235000Y11425000D02*
X3235000Y1205000D01*
X46125000Y16510000D02*
X46895000Y16510000D01*
X54205000Y16510000D02*
X53435000Y16510000D01*
X46895000Y17880000D02*
X46895000Y15140000D01*
X53435000Y17880000D02*
X46895000Y17880000D01*
X53435000Y15140000D02*
X53435000Y17880000D01*
X46895000Y15140000D02*
X53435000Y15140000D01*
X41775000Y58270000D02*
X41775000Y58895000D01*
X45815000Y58270000D02*
X41775000Y58270000D01*
X45815000Y58270000D02*
X45815000Y58895000D01*
X45815000Y60485000D02*
X45815000Y61110000D01*
X45815000Y61110000D02*
X41775000Y61110000D01*
X41775000Y60485000D02*
X41775000Y61110000D01*
X66135000Y24230000D02*
X59595000Y24230000D01*
X66905000Y22860000D02*
X66135000Y22860000D01*
X66135000Y21490000D02*
X66135000Y24230000D01*
X59595000Y21490000D02*
X66135000Y21490000D01*
X59595000Y24230000D02*
X59595000Y21490000D01*
X58825000Y22860000D02*
X59595000Y22860000D01*
X73600000Y73660000D02*
X76260000Y73660000D01*
X76260000Y76260000D02*
X76260000Y74930000D01*
X74930000Y76260000D02*
X76260000Y76260000D01*
X73600000Y73660000D02*
X73600000Y25340000D01*
X73600000Y25340000D02*
X76260000Y25340000D01*
X76260000Y73660000D02*
X76260000Y25340000D01*
X66905000Y19685000D02*
X66135000Y19685000D01*
X59595000Y18315000D02*
X66135000Y18315000D01*
X58825000Y19685000D02*
X59595000Y19685000D01*
X59595000Y21055000D02*
X59595000Y18315000D01*
X66135000Y18315000D02*
X66135000Y21055000D01*
X66135000Y21055000D02*
X59595000Y21055000D01*
X67885000Y1205000D02*
X70545000Y1205000D01*
X67885000Y11425000D02*
X70545000Y11425000D01*
X67885000Y12695000D02*
X67885000Y14025000D01*
X70545000Y11425000D02*
X70545000Y1205000D01*
X67885000Y11425000D02*
X67885000Y1205000D01*
X67885000Y14025000D02*
X69215000Y14025000D01*
X53460000Y24230000D02*
X46920000Y24230000D01*
X46920000Y21490000D02*
X53460000Y21490000D01*
X54230000Y22860000D02*
X53460000Y22860000D01*
X46150000Y22860000D02*
X46920000Y22860000D01*
X53460000Y21490000D02*
X53460000Y24230000D01*
X46920000Y24230000D02*
X46920000Y21490000D01*
M02*
